%TF.GenerationSoftware,KiCad,Pcbnew,7.0.10*%
%TF.CreationDate,2024-01-21T16:50:34+01:00*%
%TF.ProjectId,powermeter,706f7765-726d-4657-9465-722e6b696361,rev?*%
%TF.SameCoordinates,Original*%
%TF.FileFunction,Copper,L1,Top*%
%TF.FilePolarity,Positive*%
%FSLAX46Y46*%
G04 Gerber Fmt 4.6, Leading zero omitted, Abs format (unit mm)*
G04 Created by KiCad (PCBNEW 7.0.10) date 2024-01-21 16:50:34*
%MOMM*%
%LPD*%
G01*
G04 APERTURE LIST*
G04 Aperture macros list*
%AMRoundRect*
0 Rectangle with rounded corners*
0 $1 Rounding radius*
0 $2 $3 $4 $5 $6 $7 $8 $9 X,Y pos of 4 corners*
0 Add a 4 corners polygon primitive as box body*
4,1,4,$2,$3,$4,$5,$6,$7,$8,$9,$2,$3,0*
0 Add four circle primitives for the rounded corners*
1,1,$1+$1,$2,$3*
1,1,$1+$1,$4,$5*
1,1,$1+$1,$6,$7*
1,1,$1+$1,$8,$9*
0 Add four rect primitives between the rounded corners*
20,1,$1+$1,$2,$3,$4,$5,0*
20,1,$1+$1,$4,$5,$6,$7,0*
20,1,$1+$1,$6,$7,$8,$9,0*
20,1,$1+$1,$8,$9,$2,$3,0*%
G04 Aperture macros list end*
%TA.AperFunction,SMDPad,CuDef*%
%ADD10RoundRect,0.135000X-0.185000X0.135000X-0.185000X-0.135000X0.185000X-0.135000X0.185000X0.135000X0*%
%TD*%
%TA.AperFunction,SMDPad,CuDef*%
%ADD11RoundRect,0.135000X-0.135000X-0.185000X0.135000X-0.185000X0.135000X0.185000X-0.135000X0.185000X0*%
%TD*%
%TA.AperFunction,SMDPad,CuDef*%
%ADD12RoundRect,0.140000X-0.140000X-0.170000X0.140000X-0.170000X0.140000X0.170000X-0.140000X0.170000X0*%
%TD*%
%TA.AperFunction,SMDPad,CuDef*%
%ADD13RoundRect,0.140000X0.140000X0.170000X-0.140000X0.170000X-0.140000X-0.170000X0.140000X-0.170000X0*%
%TD*%
%TA.AperFunction,SMDPad,CuDef*%
%ADD14RoundRect,0.150000X-0.587500X-0.150000X0.587500X-0.150000X0.587500X0.150000X-0.587500X0.150000X0*%
%TD*%
%TA.AperFunction,ComponentPad*%
%ADD15R,1.700000X1.700000*%
%TD*%
%TA.AperFunction,ComponentPad*%
%ADD16O,1.700000X1.700000*%
%TD*%
%TA.AperFunction,SMDPad,CuDef*%
%ADD17RoundRect,0.140000X0.170000X-0.140000X0.170000X0.140000X-0.170000X0.140000X-0.170000X-0.140000X0*%
%TD*%
%TA.AperFunction,SMDPad,CuDef*%
%ADD18RoundRect,0.381000X0.381000X-0.762000X0.381000X0.762000X-0.381000X0.762000X-0.381000X-0.762000X0*%
%TD*%
%TA.AperFunction,SMDPad,CuDef*%
%ADD19RoundRect,0.140000X-0.170000X0.140000X-0.170000X-0.140000X0.170000X-0.140000X0.170000X0.140000X0*%
%TD*%
%TA.AperFunction,SMDPad,CuDef*%
%ADD20RoundRect,0.135000X0.185000X-0.135000X0.185000X0.135000X-0.185000X0.135000X-0.185000X-0.135000X0*%
%TD*%
%TA.AperFunction,SMDPad,CuDef*%
%ADD21RoundRect,0.150000X0.850000X0.150000X-0.850000X0.150000X-0.850000X-0.150000X0.850000X-0.150000X0*%
%TD*%
%TA.AperFunction,SMDPad,CuDef*%
%ADD22RoundRect,0.075000X-0.075000X0.350000X-0.075000X-0.350000X0.075000X-0.350000X0.075000X0.350000X0*%
%TD*%
%TA.AperFunction,SMDPad,CuDef*%
%ADD23RoundRect,0.075000X-0.350000X-0.075000X0.350000X-0.075000X0.350000X0.075000X-0.350000X0.075000X0*%
%TD*%
%TA.AperFunction,ViaPad*%
%ADD24C,0.800000*%
%TD*%
%TA.AperFunction,Conductor*%
%ADD25C,0.250000*%
%TD*%
G04 APERTURE END LIST*
D10*
%TO.P,R2,1*%
%TO.N,Net-(J1-Pin_1)*%
X58674000Y-44704000D03*
%TO.P,R2,2*%
%TO.N,Net-(U2-VFB)*%
X58674000Y-45724000D03*
%TD*%
D11*
%TO.P,R3,1*%
%TO.N,Net-(U2-VFB)*%
X59942000Y-45720000D03*
%TO.P,R3,2*%
%TO.N,GND*%
X60962000Y-45720000D03*
%TD*%
D12*
%TO.P,C8,1*%
%TO.N,+3.3V*%
X63020000Y-58674000D03*
%TO.P,C8,2*%
%TO.N,GND*%
X63980000Y-58674000D03*
%TD*%
D13*
%TO.P,C5,1*%
%TO.N,Net-(U3-CPOUT)*%
X66802000Y-58646000D03*
%TO.P,C5,2*%
%TO.N,GND*%
X65842000Y-58646000D03*
%TD*%
D14*
%TO.P,Q1,1,E*%
%TO.N,+3.3V*%
X55118000Y-41976000D03*
%TO.P,Q1,2,B*%
%TO.N,Net-(Q1-B)*%
X55118000Y-43876000D03*
%TO.P,Q1,3,C*%
%TO.N,Net-(J1-Pin_1)*%
X56993000Y-42926000D03*
%TD*%
D12*
%TO.P,C4,1*%
%TO.N,Net-(J1-Pin_1)*%
X59944000Y-44704000D03*
%TO.P,C4,2*%
%TO.N,GND*%
X60904000Y-44704000D03*
%TD*%
D10*
%TO.P,R4,1*%
%TO.N,+3.3V*%
X68072000Y-52832000D03*
%TO.P,R4,2*%
%TO.N,/SDA*%
X68072000Y-53852000D03*
%TD*%
D15*
%TO.P,J3,1,Pin_1*%
%TO.N,Net-(J3-Pin_1)*%
X51816000Y-58928000D03*
D16*
%TO.P,J3,2,Pin_2*%
%TO.N,Net-(J3-Pin_2)*%
X51816000Y-56388000D03*
%TO.P,J3,3,Pin_3*%
%TO.N,/HX_DATA*%
X51816000Y-53848000D03*
%TO.P,J3,4,Pin_4*%
%TO.N,/HX_CLK*%
X51816000Y-51308000D03*
%TO.P,J3,5,Pin_5*%
%TO.N,+3.3V*%
X51816000Y-48768000D03*
%TO.P,J3,6,Pin_6*%
%TO.N,GND*%
X51816000Y-46228000D03*
%TO.P,J3,7,Pin_7*%
%TO.N,/5V*%
X51816000Y-43688000D03*
%TD*%
D11*
%TO.P,R1,1*%
%TO.N,Net-(U2-INA+)*%
X62230000Y-44704000D03*
%TO.P,R1,2*%
%TO.N,Net-(J1-Pin_3)*%
X63250000Y-44704000D03*
%TD*%
D17*
%TO.P,C7,1*%
%TO.N,+3.3V*%
X61976000Y-51521000D03*
%TO.P,C7,2*%
%TO.N,GND*%
X61976000Y-50561000D03*
%TD*%
D18*
%TO.P,J1,1,Pin_1*%
%TO.N,Net-(J1-Pin_1)*%
X59690000Y-42672000D03*
%TO.P,J1,2,Pin_2*%
%TO.N,GND*%
X62230000Y-42672000D03*
%TO.P,J1,3,Pin_3*%
%TO.N,Net-(J1-Pin_3)*%
X64770000Y-42672000D03*
%TO.P,J1,4,Pin_4*%
%TO.N,Net-(J1-Pin_4)*%
X67310000Y-42672000D03*
%TD*%
D12*
%TO.P,C3,1*%
%TO.N,+3.3V*%
X54920000Y-57658000D03*
%TO.P,C3,2*%
%TO.N,GND*%
X55880000Y-57658000D03*
%TD*%
D19*
%TO.P,C2,1*%
%TO.N,Net-(U2-VBG)*%
X61976000Y-48006000D03*
%TO.P,C2,2*%
%TO.N,GND*%
X61976000Y-48966000D03*
%TD*%
D20*
%TO.P,R5,1*%
%TO.N,+3.3V*%
X68072000Y-56134000D03*
%TO.P,R5,2*%
%TO.N,/SCL*%
X68072000Y-55114000D03*
%TD*%
D21*
%TO.P,U2,1,VSUP*%
%TO.N,+3.3V*%
X59827000Y-55880000D03*
%TO.P,U2,2,BASE*%
%TO.N,Net-(Q1-B)*%
X59827000Y-54610000D03*
%TO.P,U2,3,AVDD*%
%TO.N,Net-(J1-Pin_1)*%
X59827000Y-53340000D03*
%TO.P,U2,4,VFB*%
%TO.N,Net-(U2-VFB)*%
X59827000Y-52070000D03*
%TO.P,U2,5,AGND*%
%TO.N,GND*%
X59827000Y-50800000D03*
%TO.P,U2,6,VBG*%
%TO.N,Net-(U2-VBG)*%
X59827000Y-49530000D03*
%TO.P,U2,7,INA-*%
%TO.N,Net-(U2-INA-)*%
X59827000Y-48260000D03*
%TO.P,U2,8,INA+*%
%TO.N,Net-(U2-INA+)*%
X59827000Y-46990000D03*
%TO.P,U2,9,INB-*%
%TO.N,GND*%
X54827000Y-46990000D03*
%TO.P,U2,10,INB+*%
X54827000Y-48260000D03*
%TO.P,U2,11,PD_SCK*%
%TO.N,/HX_CLK*%
X54827000Y-49530000D03*
%TO.P,U2,12,DOUT*%
%TO.N,/HX_DATA*%
X54827000Y-50800000D03*
%TO.P,U2,13,XO*%
%TO.N,unconnected-(U2-XO-Pad13)*%
X54827000Y-52070000D03*
%TO.P,U2,14,XI*%
%TO.N,GND*%
X54827000Y-53340000D03*
%TO.P,U2,15,RATE*%
X54827000Y-54610000D03*
%TO.P,U2,16,DVDD*%
%TO.N,+3.3V*%
X54827000Y-55880000D03*
%TD*%
D11*
%TO.P,R6,1*%
%TO.N,Net-(U2-INA-)*%
X64262000Y-44704000D03*
%TO.P,R6,2*%
%TO.N,Net-(J1-Pin_4)*%
X65282000Y-44704000D03*
%TD*%
D13*
%TO.P,C6,1*%
%TO.N,Net-(U3-REGOUT)*%
X61214000Y-57150000D03*
%TO.P,C6,2*%
%TO.N,GND*%
X60254000Y-57150000D03*
%TD*%
D22*
%TO.P,U3,1,CLKIN*%
%TO.N,unconnected-(U3-CLKIN-Pad1)*%
X65848000Y-53410000D03*
%TO.P,U3,2,NC*%
%TO.N,unconnected-(U3-NC-Pad2)*%
X65348000Y-53410000D03*
%TO.P,U3,3,NC*%
%TO.N,unconnected-(U3-NC-Pad3)*%
X64848000Y-53410000D03*
%TO.P,U3,4,NC*%
%TO.N,unconnected-(U3-NC-Pad4)*%
X64348000Y-53410000D03*
%TO.P,U3,5,NC*%
%TO.N,unconnected-(U3-NC-Pad5)*%
X63848000Y-53410000D03*
%TO.P,U3,6,AUX_DA*%
%TO.N,unconnected-(U3-AUX_DA-Pad6)*%
X63348000Y-53410000D03*
D23*
%TO.P,U3,7,AUX_CL*%
%TO.N,unconnected-(U3-AUX_CL-Pad7)*%
X62648000Y-54110000D03*
%TO.P,U3,8,VLOGIC*%
%TO.N,+3.3V*%
X62648000Y-54610000D03*
%TO.P,U3,9,AD0*%
%TO.N,GND*%
X62648000Y-55110000D03*
%TO.P,U3,10,REGOUT*%
%TO.N,Net-(U3-REGOUT)*%
X62648000Y-55610000D03*
%TO.P,U3,11,FSYNC*%
%TO.N,unconnected-(U3-FSYNC-Pad11)*%
X62648000Y-56110000D03*
%TO.P,U3,12,INT*%
%TO.N,/MPU_INT*%
X62648000Y-56610000D03*
D22*
%TO.P,U3,13,VDD*%
%TO.N,+3.3V*%
X63348000Y-57310000D03*
%TO.P,U3,14,NC*%
%TO.N,unconnected-(U3-NC-Pad14)*%
X63848000Y-57310000D03*
%TO.P,U3,15,NC*%
%TO.N,unconnected-(U3-NC-Pad15)*%
X64348000Y-57310000D03*
%TO.P,U3,16,NC*%
%TO.N,unconnected-(U3-NC-Pad16)*%
X64848000Y-57310000D03*
%TO.P,U3,17,NC*%
%TO.N,unconnected-(U3-NC-Pad17)*%
X65348000Y-57310000D03*
%TO.P,U3,18,GND*%
%TO.N,GND*%
X65848000Y-57310000D03*
D23*
%TO.P,U3,19,RESV*%
%TO.N,unconnected-(U3-RESV-Pad19)*%
X66548000Y-56610000D03*
%TO.P,U3,20,CPOUT*%
%TO.N,Net-(U3-CPOUT)*%
X66548000Y-56110000D03*
%TO.P,U3,21,RESV*%
%TO.N,unconnected-(U3-RESV-Pad21)*%
X66548000Y-55610000D03*
%TO.P,U3,22,RESV*%
%TO.N,unconnected-(U3-RESV-Pad22)*%
X66548000Y-55110000D03*
%TO.P,U3,23,SCL*%
%TO.N,/SCL*%
X66548000Y-54610000D03*
%TO.P,U3,24,SDA*%
%TO.N,/SDA*%
X66548000Y-54110000D03*
%TD*%
D12*
%TO.P,C1,1*%
%TO.N,Net-(U2-INA+)*%
X62230000Y-45720000D03*
%TO.P,C1,2*%
%TO.N,Net-(U2-INA-)*%
X63190000Y-45720000D03*
%TD*%
D15*
%TO.P,J2,1,Pin_1*%
%TO.N,Net-(J2-Pin_1)*%
X69596000Y-43688000D03*
D16*
%TO.P,J2,2,Pin_2*%
%TO.N,Net-(J2-Pin_2)*%
X69596000Y-46228000D03*
%TO.P,J2,3,Pin_3*%
%TO.N,Net-(J2-Pin_3)*%
X69596000Y-48768000D03*
%TO.P,J2,4,Pin_4*%
%TO.N,Net-(J2-Pin_4)*%
X69596000Y-51308000D03*
%TO.P,J2,5,Pin_5*%
%TO.N,/SDA*%
X69596000Y-53848000D03*
%TO.P,J2,6,Pin_6*%
%TO.N,/SCL*%
X69596000Y-56388000D03*
%TO.P,J2,7,Pin_7*%
%TO.N,/MPU_INT*%
X69596000Y-58928000D03*
%TD*%
D24*
%TO.N,GND*%
X65024000Y-58584500D03*
X56896000Y-54610000D03*
X68834000Y-41910000D03*
X53086000Y-41656000D03*
X54864000Y-46990000D03*
X56642000Y-58420000D03*
X66548000Y-45212000D03*
X61722000Y-49728000D03*
X58674000Y-57150000D03*
%TO.N,+3.3V*%
X54827000Y-55880000D03*
%TO.N,/MPU_INT*%
X61722000Y-58203000D03*
%TD*%
D25*
%TO.N,Net-(U2-INA+)*%
X62230000Y-45720000D02*
X60960000Y-46990000D01*
X60960000Y-46990000D02*
X59827000Y-46990000D01*
X62230000Y-44704000D02*
X62230000Y-45720000D01*
%TO.N,Net-(J1-Pin_4)*%
X65282000Y-44700000D02*
X67310000Y-42672000D01*
X65282000Y-44704000D02*
X65282000Y-44700000D01*
%TO.N,Net-(U2-VBG)*%
X61976000Y-48006000D02*
X61964510Y-48006000D01*
X60440510Y-49530000D02*
X59827000Y-49530000D01*
X61964510Y-48006000D02*
X60440510Y-49530000D01*
%TO.N,GND*%
X63980000Y-58674000D02*
X64934500Y-58674000D01*
X65848000Y-58640000D02*
X65842000Y-58646000D01*
X66911434Y-45212000D02*
X66548000Y-45212000D01*
X58674000Y-57150000D02*
X60254000Y-57150000D01*
X54827000Y-46990000D02*
X54864000Y-46990000D01*
X61722000Y-49728000D02*
X60650000Y-50800000D01*
X60962000Y-45720000D02*
X60962000Y-44762000D01*
X65842000Y-58646000D02*
X65085500Y-58646000D01*
X65085500Y-58646000D02*
X65024000Y-58584500D01*
X53086000Y-41656000D02*
X53086000Y-44958000D01*
X60317000Y-46365000D02*
X58669396Y-46365000D01*
X58420000Y-50546000D02*
X58674000Y-50800000D01*
X61976000Y-49474000D02*
X61722000Y-49728000D01*
X60762000Y-41204000D02*
X67983434Y-41204000D01*
X60650000Y-50800000D02*
X59827000Y-50800000D01*
X56134000Y-53340000D02*
X54827000Y-53340000D01*
X53594000Y-46228000D02*
X54065000Y-46228000D01*
X56896000Y-54102000D02*
X56134000Y-53340000D01*
X60962000Y-45720000D02*
X60317000Y-46365000D01*
X53086000Y-44958000D02*
X53594000Y-45466000D01*
X61722000Y-49728000D02*
X61722000Y-50012000D01*
X68541566Y-41617566D02*
X68834000Y-41910000D01*
X54827000Y-54610000D02*
X56896000Y-54610000D01*
X68397000Y-43726434D02*
X66911434Y-45212000D01*
X61722000Y-50012000D02*
X61976000Y-50266000D01*
X60962000Y-44762000D02*
X60904000Y-44704000D01*
X58669396Y-46365000D02*
X58420000Y-46614396D01*
X51816000Y-46228000D02*
X53594000Y-46228000D01*
X68397000Y-41617566D02*
X68541566Y-41617566D01*
X62018840Y-55110000D02*
X61152000Y-55976840D01*
X53594000Y-45466000D02*
X53594000Y-46228000D01*
X67983434Y-41204000D02*
X68397000Y-41617566D01*
X56642000Y-58420000D02*
X55880000Y-57658000D01*
X54864000Y-46990000D02*
X54827000Y-48260000D01*
X54065000Y-46228000D02*
X54827000Y-46990000D01*
X53538000Y-41204000D02*
X60762000Y-41204000D01*
X58420000Y-46614396D02*
X58420000Y-50546000D01*
X61152000Y-55976840D02*
X61152000Y-56230908D01*
X65848000Y-57310000D02*
X65848000Y-58640000D01*
X56896000Y-54610000D02*
X56896000Y-54102000D01*
X53086000Y-41656000D02*
X53538000Y-41204000D01*
X58674000Y-50800000D02*
X59827000Y-50800000D01*
X64934500Y-58674000D02*
X65024000Y-58584500D01*
X60254000Y-57128908D02*
X60254000Y-57150000D01*
X62648000Y-55110000D02*
X62018840Y-55110000D01*
X60904000Y-44704000D02*
X60904000Y-43998000D01*
X61152000Y-56230908D02*
X60254000Y-57128908D01*
X61976000Y-48966000D02*
X61976000Y-49474000D01*
X60904000Y-43998000D02*
X62230000Y-42672000D01*
X62230000Y-42672000D02*
X60762000Y-41204000D01*
X68397000Y-41617566D02*
X68397000Y-43726434D01*
%TO.N,+3.3V*%
X54838000Y-55891000D02*
X54827000Y-55880000D01*
X59827000Y-55880000D02*
X60232908Y-55880000D01*
X61898000Y-54532000D02*
X61976000Y-54610000D01*
X56192000Y-48710000D02*
X56192000Y-46668396D01*
X62230000Y-59182000D02*
X59182000Y-59182000D01*
X61898000Y-54532000D02*
X61898000Y-51894000D01*
X68072000Y-58347490D02*
X68072000Y-56134000D01*
X62566000Y-52660000D02*
X61976000Y-52070000D01*
X54838000Y-57658000D02*
X54838000Y-55891000D01*
X54055500Y-43038500D02*
X55118000Y-41976000D01*
X63345001Y-59309000D02*
X67110490Y-59309000D01*
X62738000Y-58674000D02*
X62230000Y-59182000D01*
X67110490Y-59309000D02*
X68072000Y-58347490D01*
X51933000Y-48885000D02*
X56017000Y-48885000D01*
X55118000Y-41976000D02*
X55052000Y-41976000D01*
X61976000Y-54610000D02*
X62648000Y-54610000D01*
X59749510Y-55880000D02*
X59827000Y-55880000D01*
X56192000Y-46668396D02*
X54055500Y-44531896D01*
X61152000Y-54960908D02*
X61152000Y-54926000D01*
X57150000Y-57150000D02*
X57150000Y-55880000D01*
X57150000Y-55880000D02*
X54827000Y-55880000D01*
X54055500Y-44531896D02*
X54055500Y-43038500D01*
X63020000Y-58674000D02*
X63020000Y-58983999D01*
X56017000Y-48885000D02*
X56192000Y-48710000D01*
X59182000Y-59182000D02*
X57150000Y-57150000D01*
X63348000Y-58346000D02*
X63020000Y-58674000D01*
X60232908Y-55880000D02*
X61152000Y-54960908D01*
X63020000Y-58674000D02*
X62738000Y-58674000D01*
X67900000Y-52660000D02*
X62566000Y-52660000D01*
X63348000Y-57310000D02*
X63348000Y-58346000D01*
X63020000Y-58983999D02*
X63345001Y-59309000D01*
X61898000Y-51894000D02*
X61976000Y-51816000D01*
X61546000Y-54532000D02*
X61898000Y-54532000D01*
X54827000Y-57367000D02*
X54864000Y-57404000D01*
X51816000Y-48768000D02*
X51933000Y-48885000D01*
X61152000Y-54926000D02*
X61546000Y-54532000D01*
X61976000Y-52070000D02*
X61976000Y-51816000D01*
X59827000Y-55880000D02*
X57150000Y-55880000D01*
X68072000Y-52832000D02*
X67900000Y-52660000D01*
%TO.N,Net-(J1-Pin_1)*%
X58801000Y-53340000D02*
X57150000Y-51689000D01*
X58674000Y-43688000D02*
X59690000Y-42672000D01*
X58674000Y-44704000D02*
X58674000Y-43688000D01*
X58674000Y-44704000D02*
X59944000Y-44704000D01*
X59827000Y-53340000D02*
X58801000Y-53340000D01*
X57150000Y-46228000D02*
X58674000Y-44704000D01*
X57150000Y-51689000D02*
X57150000Y-46228000D01*
X56993000Y-42926000D02*
X57912000Y-42926000D01*
X57912000Y-42926000D02*
X58674000Y-43688000D01*
%TO.N,Net-(U3-CPOUT)*%
X67040764Y-56110000D02*
X66548000Y-56110000D01*
X66802000Y-58646000D02*
X67298000Y-58150000D01*
X67298000Y-56367236D02*
X67040764Y-56110000D01*
X67298000Y-58150000D02*
X67298000Y-56367236D01*
%TO.N,Net-(U3-REGOUT)*%
X61898000Y-55867236D02*
X62155236Y-55610000D01*
X61898000Y-56466000D02*
X61898000Y-55867236D01*
X61214000Y-57150000D02*
X61898000Y-56466000D01*
X62155236Y-55610000D02*
X62648000Y-55610000D01*
%TO.N,Net-(J1-Pin_3)*%
X63246000Y-44196000D02*
X63246000Y-44958000D01*
X64770000Y-42672000D02*
X63246000Y-44196000D01*
%TO.N,Net-(Q1-B)*%
X56642000Y-46482000D02*
X56642000Y-52324000D01*
X55118000Y-43876000D02*
X55118000Y-44958000D01*
X58928000Y-54610000D02*
X59827000Y-54610000D01*
X56642000Y-52324000D02*
X58928000Y-54610000D01*
X55118000Y-44958000D02*
X56642000Y-46482000D01*
%TO.N,Net-(U2-VFB)*%
X58674000Y-45724000D02*
X57658000Y-46740000D01*
X57658000Y-46740000D02*
X57658000Y-50900999D01*
X59938000Y-45724000D02*
X59942000Y-45720000D01*
X57658000Y-50900999D02*
X58827001Y-52070000D01*
X58674000Y-45724000D02*
X59938000Y-45724000D01*
X58827001Y-52070000D02*
X59827000Y-52070000D01*
%TO.N,/SCL*%
X68072000Y-55114000D02*
X69327195Y-56369195D01*
X66548000Y-54610000D02*
X67568000Y-54610000D01*
X69327195Y-56369195D02*
X69327853Y-56394876D01*
X67568000Y-54610000D02*
X68072000Y-55114000D01*
%TO.N,/SDA*%
X69258224Y-53852000D02*
X69262768Y-53856544D01*
X67814000Y-54110000D02*
X68072000Y-53852000D01*
X68072000Y-53852000D02*
X69258224Y-53852000D01*
X66548000Y-54110000D02*
X67814000Y-54110000D01*
%TO.N,/MPU_INT*%
X61722000Y-58203000D02*
X62648000Y-57277000D01*
X62648000Y-57277000D02*
X62648000Y-56610000D01*
%TO.N,/HX_CLK*%
X54827000Y-49530000D02*
X53719000Y-49530000D01*
X53719000Y-49530000D02*
X51941000Y-51308000D01*
%TO.N,/HX_DATA*%
X53086000Y-52578000D02*
X51941000Y-53723000D01*
X53985701Y-50800000D02*
X53086000Y-51699701D01*
X53086000Y-51699701D02*
X53086000Y-52578000D01*
X54827000Y-50800000D02*
X53985701Y-50800000D01*
X51941000Y-53723000D02*
X51941000Y-53848000D01*
%TO.N,Net-(U2-INA-)*%
X63246000Y-45720000D02*
X63190000Y-45720000D01*
X64262000Y-44704000D02*
X63246000Y-45720000D01*
X63190000Y-45776000D02*
X60706000Y-48260000D01*
X63190000Y-45720000D02*
X63190000Y-45776000D01*
X60706000Y-48260000D02*
X59827000Y-48260000D01*
%TD*%
%TA.AperFunction,Conductor*%
%TO.N,GND*%
G36*
X56211807Y-52378647D02*
G01*
X56214391Y-52386906D01*
X56214980Y-52386715D01*
X56225456Y-52418956D01*
X56227745Y-52428492D01*
X56232279Y-52457120D01*
X56232282Y-52457130D01*
X56245441Y-52482955D01*
X56249194Y-52492015D01*
X56255235Y-52510607D01*
X56258151Y-52519581D01*
X56274549Y-52542151D01*
X56275187Y-52543028D01*
X56280312Y-52551392D01*
X56293472Y-52577220D01*
X56317446Y-52601194D01*
X57419135Y-53702883D01*
X58510154Y-54793901D01*
X58528187Y-54832258D01*
X58529353Y-54844697D01*
X58529354Y-54844701D01*
X58574207Y-54972882D01*
X58574207Y-54972883D01*
X58597414Y-55004327D01*
X58654850Y-55082150D01*
X58715926Y-55127226D01*
X58764116Y-55162792D01*
X58764117Y-55162792D01*
X58764118Y-55162793D01*
X58808003Y-55178149D01*
X58830460Y-55186007D01*
X58866128Y-55217882D01*
X58868810Y-55265643D01*
X58836935Y-55301311D01*
X58830460Y-55303993D01*
X58764116Y-55327207D01*
X58654850Y-55407849D01*
X58647532Y-55417766D01*
X58639156Y-55429113D01*
X58598186Y-55453802D01*
X58588870Y-55454500D01*
X57188409Y-55454500D01*
X57178633Y-55453731D01*
X57150000Y-55449196D01*
X57121366Y-55453731D01*
X57111591Y-55454500D01*
X56065130Y-55454500D01*
X56020936Y-55436194D01*
X56014846Y-55429118D01*
X55999150Y-55407850D01*
X55889882Y-55327207D01*
X55761701Y-55282354D01*
X55761696Y-55282353D01*
X55741699Y-55280478D01*
X55731266Y-55279500D01*
X55731262Y-55279500D01*
X55205597Y-55279500D01*
X55176552Y-55272341D01*
X55091763Y-55227840D01*
X55061138Y-55191093D01*
X55065467Y-55143454D01*
X55102214Y-55112829D01*
X55120808Y-55109999D01*
X55710218Y-55109999D01*
X55778246Y-55100088D01*
X55778253Y-55100086D01*
X55883187Y-55048787D01*
X55965787Y-54966187D01*
X56017086Y-54861252D01*
X56017088Y-54861246D01*
X56017270Y-54860000D01*
X53636730Y-54860000D01*
X53636911Y-54861246D01*
X53636913Y-54861252D01*
X53688212Y-54966187D01*
X53770812Y-55048787D01*
X53875750Y-55100087D01*
X53943781Y-55109999D01*
X54533190Y-55109999D01*
X54577384Y-55128305D01*
X54595690Y-55172499D01*
X54577384Y-55216693D01*
X54562236Y-55227840D01*
X54477449Y-55272341D01*
X54448403Y-55279500D01*
X53922734Y-55279500D01*
X53913124Y-55280401D01*
X53892303Y-55282353D01*
X53892298Y-55282354D01*
X53764117Y-55327207D01*
X53764116Y-55327207D01*
X53654850Y-55407850D01*
X53574207Y-55517116D01*
X53574207Y-55517117D01*
X53529354Y-55645298D01*
X53529353Y-55645303D01*
X53526500Y-55675737D01*
X53526500Y-56084262D01*
X53529353Y-56114696D01*
X53529354Y-56114701D01*
X53574207Y-56242882D01*
X53574207Y-56242883D01*
X53589692Y-56263864D01*
X53654850Y-56352150D01*
X53764118Y-56432793D01*
X53892301Y-56477646D01*
X53922734Y-56480500D01*
X54350000Y-56480500D01*
X54394194Y-56498806D01*
X54412500Y-56543000D01*
X54412500Y-57223570D01*
X54400288Y-57260683D01*
X54386148Y-57279841D01*
X54342290Y-57405181D01*
X54342289Y-57405183D01*
X54341898Y-57409357D01*
X54339500Y-57434934D01*
X54339500Y-57881066D01*
X54339514Y-57881211D01*
X54342289Y-57910816D01*
X54342289Y-57910817D01*
X54342290Y-57910819D01*
X54344576Y-57917352D01*
X54386148Y-58036158D01*
X54405332Y-58062151D01*
X54465001Y-58142999D01*
X54535045Y-58194694D01*
X54571841Y-58221851D01*
X54571842Y-58221851D01*
X54571843Y-58221852D01*
X54697181Y-58265710D01*
X54726934Y-58268500D01*
X54726937Y-58268500D01*
X55113063Y-58268500D01*
X55113066Y-58268500D01*
X55142819Y-58265710D01*
X55268157Y-58221852D01*
X55374999Y-58142999D01*
X55416447Y-58086838D01*
X55457417Y-58062151D01*
X55503846Y-58073665D01*
X55510928Y-58079759D01*
X55541975Y-58110807D01*
X55630000Y-58151853D01*
X55630000Y-57908000D01*
X56130000Y-57908000D01*
X56130000Y-58151853D01*
X56218026Y-58110806D01*
X56302806Y-58026026D01*
X56353480Y-57917357D01*
X56353481Y-57917352D01*
X56354713Y-57908000D01*
X56130000Y-57908000D01*
X55630000Y-57908000D01*
X55630000Y-57164145D01*
X56130000Y-57164145D01*
X56130000Y-57408000D01*
X56354713Y-57408000D01*
X56354713Y-57407999D01*
X56353481Y-57398647D01*
X56353480Y-57398642D01*
X56302806Y-57289973D01*
X56218025Y-57205192D01*
X56130000Y-57164145D01*
X55630000Y-57164145D01*
X55541975Y-57205192D01*
X55510927Y-57236240D01*
X55466732Y-57254545D01*
X55422538Y-57236239D01*
X55416446Y-57229159D01*
X55398757Y-57205192D01*
X55374999Y-57173001D01*
X55329401Y-57139348D01*
X55288886Y-57109446D01*
X55264198Y-57068474D01*
X55263500Y-57059159D01*
X55263500Y-56543000D01*
X55281806Y-56498806D01*
X55326000Y-56480500D01*
X55731262Y-56480500D01*
X55731266Y-56480500D01*
X55761699Y-56477646D01*
X55889882Y-56432793D01*
X55999150Y-56352150D01*
X56014843Y-56330886D01*
X56055814Y-56306198D01*
X56065130Y-56305500D01*
X56662000Y-56305500D01*
X56706194Y-56323806D01*
X56724500Y-56368000D01*
X56724500Y-57217395D01*
X56733456Y-57244956D01*
X56735745Y-57254492D01*
X56740279Y-57283120D01*
X56740282Y-57283130D01*
X56753441Y-57308955D01*
X56757194Y-57318015D01*
X56766151Y-57345581D01*
X56783187Y-57369028D01*
X56788312Y-57377392D01*
X56801471Y-57403219D01*
X58833472Y-59435220D01*
X58928778Y-59530527D01*
X58928777Y-59530527D01*
X58954603Y-59543685D01*
X58962968Y-59548811D01*
X58986412Y-59565845D01*
X58986414Y-59565845D01*
X58986419Y-59565849D01*
X58993222Y-59568059D01*
X59029596Y-59599124D01*
X59033351Y-59646812D01*
X59002285Y-59683187D01*
X58973909Y-59690000D01*
X53029000Y-59690000D01*
X52984806Y-59671694D01*
X52966500Y-59627500D01*
X52966499Y-58033136D01*
X52964650Y-58017194D01*
X52963585Y-58008009D01*
X52918206Y-57905235D01*
X52838765Y-57825794D01*
X52735991Y-57780415D01*
X52710865Y-57777500D01*
X52710864Y-57777500D01*
X52105816Y-57777500D01*
X52061622Y-57759194D01*
X52043322Y-57715845D01*
X52043049Y-57695635D01*
X52041338Y-57569048D01*
X52059045Y-57524612D01*
X52092345Y-57506770D01*
X52132198Y-57499321D01*
X52331019Y-57422298D01*
X52512302Y-57310052D01*
X52669872Y-57166407D01*
X52798366Y-56996255D01*
X52893405Y-56805389D01*
X52951756Y-56600310D01*
X52951757Y-56600302D01*
X52971429Y-56388003D01*
X52971429Y-56387996D01*
X52951757Y-56175697D01*
X52951755Y-56175686D01*
X52925742Y-56084262D01*
X52893405Y-55970611D01*
X52798366Y-55779745D01*
X52669872Y-55609593D01*
X52512302Y-55465948D01*
X52512303Y-55465948D01*
X52331022Y-55353703D01*
X52331021Y-55353702D01*
X52139480Y-55279500D01*
X52132198Y-55276679D01*
X52132197Y-55276678D01*
X52132195Y-55276678D01*
X52060368Y-55263251D01*
X52020290Y-55237136D01*
X52009360Y-55202664D01*
X52007100Y-55035445D01*
X52024806Y-54991012D01*
X52058105Y-54973171D01*
X52132198Y-54959321D01*
X52331019Y-54882298D01*
X52512302Y-54770052D01*
X52669872Y-54626407D01*
X52798366Y-54456255D01*
X52846295Y-54360000D01*
X53636730Y-54360000D01*
X54577000Y-54360000D01*
X54577000Y-54110000D01*
X55077000Y-54110000D01*
X55077000Y-54360000D01*
X56017269Y-54360000D01*
X56017088Y-54358753D01*
X56017086Y-54358747D01*
X55965787Y-54253812D01*
X55883187Y-54171212D01*
X55778249Y-54119912D01*
X55710218Y-54110000D01*
X55077000Y-54110000D01*
X54577000Y-54110000D01*
X53943782Y-54110000D01*
X53875753Y-54119911D01*
X53875746Y-54119913D01*
X53770812Y-54171212D01*
X53688212Y-54253812D01*
X53636913Y-54358747D01*
X53636911Y-54358753D01*
X53636730Y-54360000D01*
X52846295Y-54360000D01*
X52893405Y-54265389D01*
X52951756Y-54060310D01*
X52962858Y-53940500D01*
X52971429Y-53848003D01*
X52971429Y-53847996D01*
X52951757Y-53635697D01*
X52951755Y-53635686D01*
X52938756Y-53590000D01*
X53636730Y-53590000D01*
X53636911Y-53591246D01*
X53636913Y-53591252D01*
X53688212Y-53696187D01*
X53770812Y-53778787D01*
X53875750Y-53830087D01*
X53943781Y-53839999D01*
X54577000Y-53839999D01*
X54577000Y-53590000D01*
X55077000Y-53590000D01*
X55077000Y-53839999D01*
X55710218Y-53839999D01*
X55778246Y-53830088D01*
X55778253Y-53830086D01*
X55883187Y-53778787D01*
X55965787Y-53696187D01*
X56017086Y-53591252D01*
X56017088Y-53591246D01*
X56017270Y-53590000D01*
X55077000Y-53590000D01*
X54577000Y-53590000D01*
X53636730Y-53590000D01*
X52938756Y-53590000D01*
X52925742Y-53544262D01*
X52893405Y-53430611D01*
X52893403Y-53430606D01*
X52892362Y-53427918D01*
X52893761Y-53427375D01*
X52890767Y-53384246D01*
X52905831Y-53359915D01*
X53175747Y-53090000D01*
X53636730Y-53090000D01*
X54577000Y-53090000D01*
X54577000Y-52840000D01*
X55077000Y-52840000D01*
X55077000Y-53090000D01*
X56017269Y-53090000D01*
X56017088Y-53088753D01*
X56017086Y-53088747D01*
X55965787Y-52983812D01*
X55883187Y-52901212D01*
X55778249Y-52849912D01*
X55710218Y-52840000D01*
X55077000Y-52840000D01*
X54577000Y-52840000D01*
X53943782Y-52840000D01*
X53875753Y-52849911D01*
X53875746Y-52849913D01*
X53770812Y-52901212D01*
X53688212Y-52983812D01*
X53636913Y-53088747D01*
X53636911Y-53088753D01*
X53636730Y-53090000D01*
X53175747Y-53090000D01*
X53410554Y-52855194D01*
X53434528Y-52831220D01*
X53447694Y-52805377D01*
X53452801Y-52797043D01*
X53469850Y-52773580D01*
X53478810Y-52746000D01*
X53482555Y-52736960D01*
X53495719Y-52711126D01*
X53500253Y-52682489D01*
X53502539Y-52672967D01*
X53511500Y-52645393D01*
X53511500Y-52537852D01*
X53529806Y-52493658D01*
X53574000Y-52475352D01*
X53618194Y-52493658D01*
X53624279Y-52500727D01*
X53654850Y-52542150D01*
X53764118Y-52622793D01*
X53892301Y-52667646D01*
X53922734Y-52670500D01*
X53922738Y-52670500D01*
X55731262Y-52670500D01*
X55731266Y-52670500D01*
X55761699Y-52667646D01*
X55889882Y-52622793D01*
X55999150Y-52542150D01*
X56079793Y-52432882D01*
X56096504Y-52385122D01*
X56128379Y-52349455D01*
X56176139Y-52346772D01*
X56211807Y-52378647D01*
G37*
%TD.AperFunction*%
%TA.AperFunction,Conductor*%
G36*
X66854194Y-57078806D02*
G01*
X66872500Y-57123000D01*
X66872500Y-57947864D01*
X66854194Y-57992058D01*
X66829058Y-58017194D01*
X66784864Y-58035500D01*
X66608934Y-58035500D01*
X66601928Y-58036157D01*
X66579183Y-58038289D01*
X66579181Y-58038290D01*
X66453841Y-58082148D01*
X66347000Y-58161001D01*
X66305553Y-58217160D01*
X66264581Y-58241848D01*
X66218152Y-58230333D01*
X66211071Y-58224240D01*
X66180023Y-58193191D01*
X66092000Y-58152145D01*
X66092000Y-58821000D01*
X66073694Y-58865194D01*
X66029500Y-58883500D01*
X63792500Y-58883500D01*
X63748306Y-58865194D01*
X63730000Y-58821000D01*
X63730000Y-58557171D01*
X63733058Y-58537860D01*
X63740805Y-58514014D01*
X63744561Y-58504947D01*
X63756960Y-58480616D01*
X63757719Y-58479126D01*
X63762253Y-58450488D01*
X63764540Y-58440963D01*
X63773500Y-58413393D01*
X63773500Y-58278607D01*
X63773500Y-58180145D01*
X64230000Y-58180145D01*
X64230000Y-58424000D01*
X64454713Y-58424000D01*
X64454713Y-58423999D01*
X64453481Y-58414647D01*
X64453480Y-58414642D01*
X64444786Y-58395999D01*
X65367286Y-58395999D01*
X65367287Y-58396000D01*
X65592000Y-58396000D01*
X65592000Y-58152145D01*
X65503974Y-58193192D01*
X65503974Y-58193193D01*
X65419193Y-58277973D01*
X65368519Y-58386642D01*
X65368518Y-58386647D01*
X65367286Y-58395999D01*
X64444786Y-58395999D01*
X64402806Y-58305973D01*
X64318025Y-58221192D01*
X64230000Y-58180145D01*
X63773500Y-58180145D01*
X63773500Y-58098000D01*
X63791806Y-58053806D01*
X63836000Y-58035500D01*
X63958636Y-58035500D01*
X64031625Y-58024866D01*
X64070551Y-58005835D01*
X64118293Y-58002871D01*
X64125436Y-58005830D01*
X64164375Y-58024866D01*
X64237364Y-58035500D01*
X64458636Y-58035500D01*
X64531625Y-58024866D01*
X64570551Y-58005835D01*
X64618293Y-58002871D01*
X64625436Y-58005830D01*
X64664375Y-58024866D01*
X64737364Y-58035500D01*
X64958636Y-58035500D01*
X65031625Y-58024866D01*
X65070551Y-58005835D01*
X65118293Y-58002871D01*
X65125436Y-58005830D01*
X65164375Y-58024866D01*
X65237364Y-58035500D01*
X65458636Y-58035500D01*
X65531625Y-58024866D01*
X65644211Y-57969826D01*
X65666509Y-57947527D01*
X65675822Y-57943669D01*
X65708327Y-57916993D01*
X65716306Y-57897731D01*
X65720335Y-57893702D01*
X65732826Y-57881211D01*
X65787866Y-57768625D01*
X65798500Y-57695636D01*
X65798500Y-57460000D01*
X65998000Y-57460000D01*
X65998000Y-57925468D01*
X66030300Y-57919044D01*
X66121264Y-57858264D01*
X66182044Y-57767301D01*
X66182045Y-57767299D01*
X66197999Y-57687088D01*
X66198000Y-57687088D01*
X66198000Y-57460000D01*
X65998000Y-57460000D01*
X65798500Y-57460000D01*
X65798500Y-57222500D01*
X65816806Y-57178306D01*
X65861000Y-57160000D01*
X66198000Y-57160000D01*
X66198000Y-57123000D01*
X66216306Y-57078806D01*
X66260500Y-57060500D01*
X66810000Y-57060500D01*
X66854194Y-57078806D01*
G37*
%TD.AperFunction*%
%TA.AperFunction,Conductor*%
G36*
X61768857Y-54985450D02*
G01*
X61780419Y-54993850D01*
X61807990Y-55002807D01*
X61817049Y-55006560D01*
X61842874Y-55019719D01*
X61871507Y-55024253D01*
X61881032Y-55026540D01*
X61908607Y-55035500D01*
X61942512Y-55035500D01*
X62145530Y-55035500D01*
X62172980Y-55041851D01*
X62189375Y-55049866D01*
X62189379Y-55049866D01*
X62190736Y-55050286D01*
X62191456Y-55050883D01*
X62193736Y-55051998D01*
X62193465Y-55052550D01*
X62227555Y-55080825D01*
X62231996Y-55128454D01*
X62201457Y-55165273D01*
X62190736Y-55169714D01*
X62189371Y-55170135D01*
X62172980Y-55178149D01*
X62145530Y-55184500D01*
X62087842Y-55184500D01*
X62060273Y-55193457D01*
X62050738Y-55195746D01*
X62022113Y-55200279D01*
X62022105Y-55200282D01*
X61996285Y-55213438D01*
X61987227Y-55217190D01*
X61959658Y-55226148D01*
X61959657Y-55226148D01*
X61936197Y-55243192D01*
X61927840Y-55248313D01*
X61902014Y-55261473D01*
X61549470Y-55614017D01*
X61549470Y-55614018D01*
X61536310Y-55639845D01*
X61531187Y-55648206D01*
X61514151Y-55671654D01*
X61505193Y-55699223D01*
X61501441Y-55708281D01*
X61488280Y-55734111D01*
X61488280Y-55734113D01*
X61483745Y-55762743D01*
X61481456Y-55772276D01*
X61472500Y-55799841D01*
X61472500Y-56263864D01*
X61454194Y-56308058D01*
X61241058Y-56521194D01*
X61196864Y-56539500D01*
X61020934Y-56539500D01*
X61013284Y-56540217D01*
X60991183Y-56542289D01*
X60991181Y-56542290D01*
X60865841Y-56586148D01*
X60759000Y-56665001D01*
X60717553Y-56721160D01*
X60676581Y-56745848D01*
X60630152Y-56734333D01*
X60623071Y-56728240D01*
X60592023Y-56697191D01*
X60504000Y-56656145D01*
X60504000Y-57643853D01*
X60592026Y-57602806D01*
X60623071Y-57571760D01*
X60667264Y-57553453D01*
X60711459Y-57571758D01*
X60717553Y-57578839D01*
X60759001Y-57634999D01*
X60829579Y-57687088D01*
X60865841Y-57713851D01*
X60865842Y-57713851D01*
X60865843Y-57713852D01*
X60991181Y-57757710D01*
X61020934Y-57760500D01*
X61057180Y-57760500D01*
X61101374Y-57778806D01*
X61119680Y-57823000D01*
X61108617Y-57858504D01*
X61097181Y-57875071D01*
X61036859Y-58034129D01*
X61036858Y-58034135D01*
X61016355Y-58202996D01*
X61016355Y-58203003D01*
X61036858Y-58371864D01*
X61036859Y-58371870D01*
X61097182Y-58530931D01*
X61185234Y-58658496D01*
X61195274Y-58705266D01*
X61169302Y-58745436D01*
X61133798Y-58756500D01*
X59384136Y-58756500D01*
X59339942Y-58738194D01*
X58001748Y-57400000D01*
X59779287Y-57400000D01*
X59780518Y-57409352D01*
X59780519Y-57409357D01*
X59831193Y-57518026D01*
X59915973Y-57602806D01*
X60004000Y-57643853D01*
X60004000Y-57400000D01*
X59779287Y-57400000D01*
X58001748Y-57400000D01*
X57593806Y-56992058D01*
X57575500Y-56947864D01*
X57575500Y-56899999D01*
X59779286Y-56899999D01*
X59779287Y-56900000D01*
X60004000Y-56900000D01*
X60004000Y-56656145D01*
X59915974Y-56697192D01*
X59915974Y-56697193D01*
X59831193Y-56781973D01*
X59780519Y-56890642D01*
X59780518Y-56890647D01*
X59779286Y-56899999D01*
X57575500Y-56899999D01*
X57575500Y-56368000D01*
X57593806Y-56323806D01*
X57638000Y-56305500D01*
X58588870Y-56305500D01*
X58633064Y-56323806D01*
X58639153Y-56330881D01*
X58654850Y-56352150D01*
X58764118Y-56432793D01*
X58892301Y-56477646D01*
X58922734Y-56480500D01*
X58922738Y-56480500D01*
X60731262Y-56480500D01*
X60731266Y-56480500D01*
X60761699Y-56477646D01*
X60889882Y-56432793D01*
X60999150Y-56352150D01*
X61079793Y-56242882D01*
X61124646Y-56114699D01*
X61127500Y-56084266D01*
X61127500Y-55675734D01*
X61124646Y-55645301D01*
X61124270Y-55644226D01*
X61123285Y-55641410D01*
X61125966Y-55593650D01*
X61138083Y-55576572D01*
X61296890Y-55417766D01*
X61476553Y-55238103D01*
X61500528Y-55214128D01*
X61513688Y-55188300D01*
X61518806Y-55179945D01*
X61535849Y-55156489D01*
X61537271Y-55152111D01*
X61552517Y-55127228D01*
X61687927Y-54991818D01*
X61732120Y-54973513D01*
X61768857Y-54985450D01*
G37*
%TD.AperFunction*%
%TA.AperFunction,Conductor*%
G36*
X68438340Y-43685057D02*
G01*
X68445500Y-43714104D01*
X68445500Y-44582863D01*
X68448415Y-44607992D01*
X68449325Y-44610052D01*
X68493794Y-44710765D01*
X68573235Y-44790206D01*
X68676009Y-44835585D01*
X68701135Y-44838500D01*
X69587644Y-44838499D01*
X69631837Y-44856805D01*
X69650137Y-44900154D01*
X69651678Y-45014155D01*
X69633971Y-45058593D01*
X69590029Y-45077494D01*
X69589184Y-45077500D01*
X69489385Y-45077500D01*
X69279805Y-45116678D01*
X69080978Y-45193702D01*
X69080977Y-45193703D01*
X68899696Y-45305948D01*
X68742126Y-45449595D01*
X68742124Y-45449597D01*
X68613634Y-45619745D01*
X68613631Y-45619749D01*
X68518596Y-45810608D01*
X68460244Y-46015686D01*
X68460242Y-46015697D01*
X68440571Y-46227996D01*
X68440571Y-46228003D01*
X68460242Y-46440302D01*
X68460244Y-46440313D01*
X68482306Y-46517850D01*
X68513396Y-46627118D01*
X68518596Y-46645391D01*
X68613631Y-46836250D01*
X68613632Y-46836252D01*
X68613634Y-46836255D01*
X68742128Y-47006407D01*
X68899697Y-47150051D01*
X68899696Y-47150051D01*
X69080977Y-47262296D01*
X69080978Y-47262297D01*
X69080981Y-47262298D01*
X69279802Y-47339321D01*
X69489390Y-47378500D01*
X69489393Y-47378500D01*
X69621967Y-47378500D01*
X69666161Y-47396806D01*
X69684461Y-47440155D01*
X69686002Y-47554155D01*
X69668295Y-47598593D01*
X69624353Y-47617494D01*
X69623508Y-47617500D01*
X69489385Y-47617500D01*
X69279805Y-47656678D01*
X69279802Y-47656678D01*
X69279802Y-47656679D01*
X69272520Y-47659500D01*
X69080978Y-47733702D01*
X69080977Y-47733703D01*
X68899696Y-47845948D01*
X68742126Y-47989595D01*
X68742124Y-47989597D01*
X68613634Y-48159745D01*
X68613631Y-48159749D01*
X68518596Y-48350608D01*
X68460244Y-48555686D01*
X68460242Y-48555697D01*
X68440571Y-48767996D01*
X68440571Y-48768003D01*
X68460242Y-48980302D01*
X68460244Y-48980313D01*
X68482306Y-49057850D01*
X68513396Y-49167118D01*
X68518596Y-49185391D01*
X68613631Y-49376250D01*
X68613632Y-49376252D01*
X68613634Y-49376255D01*
X68742128Y-49546407D01*
X68899697Y-49690051D01*
X68899696Y-49690051D01*
X69080977Y-49802296D01*
X69080978Y-49802297D01*
X69080981Y-49802298D01*
X69279802Y-49879321D01*
X69489390Y-49918500D01*
X69489393Y-49918500D01*
X69656292Y-49918500D01*
X69700486Y-49936806D01*
X69718786Y-49980156D01*
X69720326Y-50094156D01*
X69702619Y-50138593D01*
X69658676Y-50157494D01*
X69657832Y-50157500D01*
X69489385Y-50157500D01*
X69279805Y-50196678D01*
X69080978Y-50273702D01*
X69080977Y-50273703D01*
X68899696Y-50385948D01*
X68742126Y-50529595D01*
X68742124Y-50529597D01*
X68613634Y-50699745D01*
X68613631Y-50699749D01*
X68518596Y-50890608D01*
X68460244Y-51095686D01*
X68460242Y-51095697D01*
X68440571Y-51307996D01*
X68440571Y-51308003D01*
X68460242Y-51520302D01*
X68460244Y-51520313D01*
X68482306Y-51597850D01*
X68515373Y-51714066D01*
X68518596Y-51725391D01*
X68613631Y-51916250D01*
X68613632Y-51916252D01*
X68613634Y-51916255D01*
X68742128Y-52086407D01*
X68899697Y-52230051D01*
X68899696Y-52230051D01*
X69080977Y-52342296D01*
X69080978Y-52342297D01*
X69105328Y-52351730D01*
X69279802Y-52419321D01*
X69489390Y-52458500D01*
X69489393Y-52458500D01*
X69690615Y-52458500D01*
X69734809Y-52476806D01*
X69753109Y-52520155D01*
X69754650Y-52634155D01*
X69736943Y-52678593D01*
X69693001Y-52697494D01*
X69692156Y-52697500D01*
X69489385Y-52697500D01*
X69279805Y-52736678D01*
X69279802Y-52736678D01*
X69279802Y-52736679D01*
X69272520Y-52739500D01*
X69080978Y-52813702D01*
X69080977Y-52813703D01*
X68899696Y-52925948D01*
X68797105Y-53019473D01*
X68752112Y-53035718D01*
X68708811Y-53015391D01*
X68692499Y-52973287D01*
X68692499Y-52644544D01*
X68692499Y-52644537D01*
X68689741Y-52615121D01*
X68664514Y-52543028D01*
X68646381Y-52491206D01*
X68640291Y-52482955D01*
X68608271Y-52439569D01*
X68568423Y-52385577D01*
X68483930Y-52323218D01*
X68462795Y-52307619D01*
X68367477Y-52274266D01*
X68338879Y-52264259D01*
X68338877Y-52264258D01*
X68338876Y-52264258D01*
X68317731Y-52262275D01*
X68309457Y-52261500D01*
X68309454Y-52261500D01*
X68070149Y-52261500D01*
X68041775Y-52254688D01*
X68033126Y-52250281D01*
X68033121Y-52250280D01*
X68004492Y-52245745D01*
X67994956Y-52243456D01*
X67967395Y-52234500D01*
X67967393Y-52234500D01*
X67933488Y-52234500D01*
X67189763Y-52234500D01*
X67145569Y-52216194D01*
X67127263Y-52172000D01*
X67139200Y-52135262D01*
X67141486Y-52132114D01*
X67141490Y-52132112D01*
X67143602Y-52125609D01*
X67152483Y-52108182D01*
X67156499Y-52102655D01*
X67156498Y-52102655D01*
X67156500Y-52102654D01*
X67156500Y-52037346D01*
X67156500Y-46974083D01*
X67156500Y-46957346D01*
X67156500Y-46957345D01*
X67152481Y-46951814D01*
X67143601Y-46934387D01*
X67141490Y-46927888D01*
X67141488Y-46927887D01*
X67141488Y-46927885D01*
X67135957Y-46923867D01*
X67122131Y-46910041D01*
X67118113Y-46904511D01*
X67118112Y-46904510D01*
X67118111Y-46904509D01*
X67118110Y-46904509D01*
X67111605Y-46902395D01*
X67094184Y-46893518D01*
X67088654Y-46889500D01*
X67071917Y-46889500D01*
X63024654Y-46889500D01*
X62959346Y-46889500D01*
X62959343Y-46889500D01*
X62953808Y-46893522D01*
X62936395Y-46902394D01*
X62929890Y-46904508D01*
X62929888Y-46904509D01*
X62925867Y-46910044D01*
X62912044Y-46923867D01*
X62906509Y-46927888D01*
X62906508Y-46927890D01*
X62904394Y-46934395D01*
X62895522Y-46951808D01*
X62891500Y-46957343D01*
X62891500Y-52102654D01*
X62895518Y-52108184D01*
X62904395Y-52125605D01*
X62906509Y-52132110D01*
X62908800Y-52135264D01*
X62919966Y-52181778D01*
X62894972Y-52222564D01*
X62858236Y-52234500D01*
X62768136Y-52234500D01*
X62723942Y-52216194D01*
X62508690Y-52000942D01*
X62490384Y-51956748D01*
X62502595Y-51919636D01*
X62539852Y-51869157D01*
X62583710Y-51743819D01*
X62586500Y-51714066D01*
X62586500Y-51327934D01*
X62583710Y-51298181D01*
X62539852Y-51172843D01*
X62532501Y-51162883D01*
X62514419Y-51138382D01*
X62460999Y-51066001D01*
X62404839Y-51024553D01*
X62380151Y-50983581D01*
X62391666Y-50937152D01*
X62397760Y-50930071D01*
X62428806Y-50899026D01*
X62469854Y-50811000D01*
X61482146Y-50811000D01*
X61523192Y-50899024D01*
X61554240Y-50930071D01*
X61572546Y-50974265D01*
X61554241Y-51018460D01*
X61547160Y-51024553D01*
X61491001Y-51066000D01*
X61412148Y-51172841D01*
X61368290Y-51298181D01*
X61368289Y-51298183D01*
X61365500Y-51327937D01*
X61365500Y-51714062D01*
X61368289Y-51743816D01*
X61368290Y-51743818D01*
X61412148Y-51869158D01*
X61460287Y-51934383D01*
X61472500Y-51971497D01*
X61472500Y-54059457D01*
X61454194Y-54103651D01*
X61419778Y-54121187D01*
X61412878Y-54122279D01*
X61412875Y-54122280D01*
X61387045Y-54135441D01*
X61377987Y-54139193D01*
X61350417Y-54148151D01*
X61326967Y-54165189D01*
X61318606Y-54170312D01*
X61292781Y-54183470D01*
X61292780Y-54183472D01*
X61197472Y-54278780D01*
X61197471Y-54278781D01*
X61188841Y-54287411D01*
X61188836Y-54287416D01*
X61144640Y-54305719D01*
X61100447Y-54287411D01*
X61085651Y-54263860D01*
X61079793Y-54247118D01*
X61079792Y-54247116D01*
X61023772Y-54171212D01*
X60999150Y-54137850D01*
X60889882Y-54057207D01*
X60823540Y-54033993D01*
X60787871Y-54002118D01*
X60785189Y-53954358D01*
X60817064Y-53918689D01*
X60823540Y-53916007D01*
X60824777Y-53915574D01*
X60889882Y-53892793D01*
X60999150Y-53812150D01*
X61079793Y-53702882D01*
X61124646Y-53574699D01*
X61127500Y-53544266D01*
X61127500Y-53135734D01*
X61124646Y-53105301D01*
X61079793Y-52977118D01*
X61076964Y-52973285D01*
X61023772Y-52901212D01*
X60999150Y-52867850D01*
X60889882Y-52787207D01*
X60823540Y-52763993D01*
X60787871Y-52732118D01*
X60785189Y-52684358D01*
X60817064Y-52648689D01*
X60823540Y-52646007D01*
X60827741Y-52644537D01*
X60889882Y-52622793D01*
X60999150Y-52542150D01*
X61079793Y-52432882D01*
X61124646Y-52304699D01*
X61127500Y-52274266D01*
X61127500Y-51865734D01*
X61124646Y-51835301D01*
X61079793Y-51707118D01*
X60999150Y-51597850D01*
X60889882Y-51517207D01*
X60877150Y-51512752D01*
X60761701Y-51472354D01*
X60761696Y-51472353D01*
X60741699Y-51470478D01*
X60731266Y-51469500D01*
X58922734Y-51469500D01*
X58913827Y-51470335D01*
X58892302Y-51472353D01*
X58884030Y-51475248D01*
X58836270Y-51472563D01*
X58819196Y-51460448D01*
X58696643Y-51337895D01*
X58678337Y-51293701D01*
X58696643Y-51249507D01*
X58740837Y-51231201D01*
X58768287Y-51237552D01*
X58875750Y-51290087D01*
X58943781Y-51299999D01*
X59577000Y-51299999D01*
X59577000Y-51050000D01*
X60077000Y-51050000D01*
X60077000Y-51299999D01*
X60710218Y-51299999D01*
X60778246Y-51290088D01*
X60778253Y-51290086D01*
X60883187Y-51238787D01*
X60965787Y-51156187D01*
X61017086Y-51051252D01*
X61017088Y-51051246D01*
X61017270Y-51050000D01*
X60077000Y-51050000D01*
X59577000Y-51050000D01*
X58636730Y-51050000D01*
X58636911Y-51051246D01*
X58636913Y-51051252D01*
X58689447Y-51158711D01*
X58692412Y-51206455D01*
X58660748Y-51242310D01*
X58613004Y-51245275D01*
X58589104Y-51230355D01*
X58101806Y-50743057D01*
X58083500Y-50698863D01*
X58083500Y-50550000D01*
X58636730Y-50550000D01*
X59577000Y-50550000D01*
X59577000Y-50300000D01*
X60077000Y-50300000D01*
X60077000Y-50550000D01*
X61017269Y-50550000D01*
X61017088Y-50548753D01*
X61017086Y-50548747D01*
X60965787Y-50443812D01*
X60883187Y-50361212D01*
X60780475Y-50311000D01*
X61482146Y-50311000D01*
X61726000Y-50311000D01*
X61726000Y-50086287D01*
X61725999Y-50086286D01*
X62226000Y-50086286D01*
X62226000Y-50311000D01*
X62469853Y-50311000D01*
X62428806Y-50222973D01*
X62344026Y-50138193D01*
X62235357Y-50087519D01*
X62235352Y-50087518D01*
X62226000Y-50086286D01*
X61725999Y-50086286D01*
X61716647Y-50087518D01*
X61716642Y-50087519D01*
X61607973Y-50138193D01*
X61523193Y-50222973D01*
X61482146Y-50311000D01*
X60780475Y-50311000D01*
X60778249Y-50309912D01*
X60710218Y-50300000D01*
X60077000Y-50300000D01*
X59577000Y-50300000D01*
X58943782Y-50300000D01*
X58875753Y-50309911D01*
X58875746Y-50309913D01*
X58770812Y-50361212D01*
X58688212Y-50443812D01*
X58636913Y-50548747D01*
X58636911Y-50548753D01*
X58636730Y-50550000D01*
X58083500Y-50550000D01*
X58083500Y-46942135D01*
X58101805Y-46897942D01*
X58552380Y-46447367D01*
X58572406Y-46439071D01*
X58584366Y-46415380D01*
X58686942Y-46312804D01*
X58731136Y-46294499D01*
X58804105Y-46294499D01*
X58848299Y-46312805D01*
X58866605Y-46356999D01*
X58848299Y-46401193D01*
X58824747Y-46415992D01*
X58764117Y-46437207D01*
X58665675Y-46509860D01*
X58651929Y-46513268D01*
X58646860Y-46528675D01*
X58574207Y-46627117D01*
X58529354Y-46755298D01*
X58529353Y-46755303D01*
X58526500Y-46785737D01*
X58526500Y-47194262D01*
X58529353Y-47224696D01*
X58529354Y-47224701D01*
X58574207Y-47352882D01*
X58574207Y-47352883D01*
X58606624Y-47396806D01*
X58654850Y-47462150D01*
X58717388Y-47508305D01*
X58764116Y-47542792D01*
X58764117Y-47542792D01*
X58764118Y-47542793D01*
X58796589Y-47554155D01*
X58830460Y-47566007D01*
X58866128Y-47597882D01*
X58868810Y-47645643D01*
X58836935Y-47681311D01*
X58830460Y-47683993D01*
X58764116Y-47707207D01*
X58654850Y-47787850D01*
X58574207Y-47897116D01*
X58574207Y-47897117D01*
X58529354Y-48025298D01*
X58529353Y-48025303D01*
X58526500Y-48055737D01*
X58526500Y-48464262D01*
X58529353Y-48494696D01*
X58529354Y-48494701D01*
X58574207Y-48622882D01*
X58574207Y-48622883D01*
X58614528Y-48677516D01*
X58654850Y-48732150D01*
X58728875Y-48786783D01*
X58764116Y-48812792D01*
X58764117Y-48812792D01*
X58764118Y-48812793D01*
X58807440Y-48827952D01*
X58830460Y-48836007D01*
X58866128Y-48867882D01*
X58868810Y-48915643D01*
X58836935Y-48951311D01*
X58830460Y-48953993D01*
X58764116Y-48977207D01*
X58654850Y-49057850D01*
X58574207Y-49167116D01*
X58574207Y-49167117D01*
X58529354Y-49295298D01*
X58529353Y-49295303D01*
X58526500Y-49325737D01*
X58526500Y-49734262D01*
X58529353Y-49764696D01*
X58529354Y-49764701D01*
X58574207Y-49892882D01*
X58574207Y-49892883D01*
X58597035Y-49923813D01*
X58654850Y-50002150D01*
X58764118Y-50082793D01*
X58892301Y-50127646D01*
X58922734Y-50130500D01*
X58922738Y-50130500D01*
X60731262Y-50130500D01*
X60731266Y-50130500D01*
X60761699Y-50127646D01*
X60889882Y-50082793D01*
X60999150Y-50002150D01*
X61079793Y-49892882D01*
X61124646Y-49764699D01*
X61127500Y-49734266D01*
X61127500Y-49470646D01*
X61145806Y-49426452D01*
X61261758Y-49310500D01*
X61378996Y-49193261D01*
X61423189Y-49174956D01*
X61467383Y-49193262D01*
X61479833Y-49211042D01*
X61523193Y-49304026D01*
X61607973Y-49388806D01*
X61716640Y-49439479D01*
X61716644Y-49439480D01*
X61726000Y-49440711D01*
X61726000Y-49216000D01*
X62226000Y-49216000D01*
X62226000Y-49440711D01*
X62235355Y-49439480D01*
X62235359Y-49439479D01*
X62344026Y-49388806D01*
X62428806Y-49304026D01*
X62469854Y-49216000D01*
X62226000Y-49216000D01*
X61726000Y-49216000D01*
X61726000Y-48872146D01*
X61744306Y-48827952D01*
X61837952Y-48734306D01*
X61882146Y-48716000D01*
X62469853Y-48716000D01*
X62428807Y-48627975D01*
X62397759Y-48596928D01*
X62379453Y-48552734D01*
X62397758Y-48508539D01*
X62404829Y-48502453D01*
X62460999Y-48460999D01*
X62539852Y-48354157D01*
X62583710Y-48228819D01*
X62586500Y-48199066D01*
X62586500Y-47812934D01*
X62583710Y-47783181D01*
X62539852Y-47657843D01*
X62538992Y-47656678D01*
X62514419Y-47623382D01*
X62460999Y-47551001D01*
X62403148Y-47508305D01*
X62354158Y-47472148D01*
X62354153Y-47472146D01*
X62256507Y-47437977D01*
X62220839Y-47406102D01*
X62218158Y-47358342D01*
X62232954Y-47334793D01*
X63218942Y-46348806D01*
X63263136Y-46330500D01*
X63383063Y-46330500D01*
X63383066Y-46330500D01*
X63412819Y-46327710D01*
X63538157Y-46283852D01*
X63644999Y-46204999D01*
X63723852Y-46098157D01*
X63767710Y-45972819D01*
X63770500Y-45943066D01*
X63770500Y-45823135D01*
X63788805Y-45778942D01*
X64224942Y-45342804D01*
X64269136Y-45324499D01*
X64449462Y-45324499D01*
X64474675Y-45322135D01*
X64478879Y-45321741D01*
X64602794Y-45278381D01*
X64708423Y-45200423D01*
X64721713Y-45182415D01*
X64762684Y-45157727D01*
X64809113Y-45169241D01*
X64822285Y-45182413D01*
X64831206Y-45194500D01*
X64835577Y-45200423D01*
X64941204Y-45278380D01*
X64941205Y-45278380D01*
X64941206Y-45278381D01*
X65065121Y-45321741D01*
X65094543Y-45324500D01*
X65469456Y-45324499D01*
X65469462Y-45324499D01*
X65494675Y-45322135D01*
X65498879Y-45321741D01*
X65622794Y-45278381D01*
X65728423Y-45200423D01*
X65806381Y-45094794D01*
X65849741Y-44970879D01*
X65852500Y-44941457D01*
X65852499Y-44757134D01*
X65870804Y-44712942D01*
X66535640Y-44048106D01*
X66579833Y-44029801D01*
X66612164Y-44038814D01*
X66647250Y-44060024D01*
X66805254Y-44109260D01*
X66873912Y-44115499D01*
X66873915Y-44115500D01*
X66873922Y-44115500D01*
X67746085Y-44115500D01*
X67746086Y-44115499D01*
X67814746Y-44109260D01*
X67972750Y-44060024D01*
X68114381Y-43974405D01*
X68231405Y-43857381D01*
X68317024Y-43715750D01*
X68323331Y-43695509D01*
X68353953Y-43658764D01*
X68401592Y-43654433D01*
X68438340Y-43685057D01*
G37*
%TD.AperFunction*%
%TA.AperFunction,Conductor*%
G36*
X69579891Y-41012806D02*
G01*
X69598191Y-41056155D01*
X69617353Y-42474155D01*
X69599646Y-42518593D01*
X69555704Y-42537494D01*
X69554859Y-42537500D01*
X68701136Y-42537500D01*
X68676007Y-42540415D01*
X68573233Y-42585795D01*
X68493794Y-42665234D01*
X68492174Y-42668904D01*
X68457577Y-42701938D01*
X68409754Y-42700832D01*
X68376720Y-42666235D01*
X68372500Y-42643658D01*
X68372500Y-41854915D01*
X68372499Y-41854912D01*
X68366260Y-41786259D01*
X68366260Y-41786254D01*
X68317024Y-41628250D01*
X68231405Y-41486619D01*
X68114381Y-41369595D01*
X67972750Y-41283976D01*
X67814750Y-41234741D01*
X67814747Y-41234740D01*
X67814746Y-41234740D01*
X67814744Y-41234739D01*
X67814740Y-41234739D01*
X67746087Y-41228500D01*
X67746078Y-41228500D01*
X66873922Y-41228500D01*
X66873912Y-41228500D01*
X66805259Y-41234739D01*
X66805249Y-41234741D01*
X66647249Y-41283976D01*
X66505618Y-41369595D01*
X66388595Y-41486618D01*
X66302976Y-41628249D01*
X66253741Y-41786249D01*
X66253739Y-41786259D01*
X66247500Y-41854912D01*
X66247500Y-43106864D01*
X66229194Y-43151058D01*
X65939194Y-43441058D01*
X65895000Y-43459364D01*
X65850806Y-43441058D01*
X65832500Y-43396864D01*
X65832500Y-41854915D01*
X65832499Y-41854912D01*
X65826260Y-41786259D01*
X65826260Y-41786254D01*
X65777024Y-41628250D01*
X65691405Y-41486619D01*
X65574381Y-41369595D01*
X65432750Y-41283976D01*
X65274750Y-41234741D01*
X65274747Y-41234740D01*
X65274746Y-41234740D01*
X65274744Y-41234739D01*
X65274740Y-41234739D01*
X65206087Y-41228500D01*
X65206078Y-41228500D01*
X64333922Y-41228500D01*
X64333912Y-41228500D01*
X64265259Y-41234739D01*
X64265249Y-41234741D01*
X64107249Y-41283976D01*
X63965618Y-41369595D01*
X63848595Y-41486618D01*
X63762976Y-41628249D01*
X63713741Y-41786249D01*
X63713739Y-41786259D01*
X63707500Y-41854912D01*
X63707500Y-43106863D01*
X63689194Y-43151057D01*
X63295481Y-43544770D01*
X63251287Y-43563076D01*
X63207093Y-43544770D01*
X63188787Y-43500576D01*
X63189322Y-43492418D01*
X63191999Y-43472081D01*
X63191999Y-42063552D01*
X63191998Y-42063552D01*
X62230000Y-43025553D01*
X61422709Y-43832842D01*
X61434629Y-43848377D01*
X61555991Y-43941500D01*
X61697332Y-44000045D01*
X61697335Y-44000046D01*
X61810923Y-44014999D01*
X61854572Y-44014999D01*
X61898766Y-44033304D01*
X61917073Y-44077498D01*
X61898768Y-44121692D01*
X61891687Y-44127786D01*
X61783577Y-44207576D01*
X61705619Y-44313204D01*
X61662259Y-44437121D01*
X61662258Y-44437123D01*
X61660676Y-44453999D01*
X61659692Y-44464503D01*
X61659500Y-44466546D01*
X61659500Y-44941462D01*
X61662258Y-44970878D01*
X61705619Y-45094794D01*
X61705619Y-45094795D01*
X61764657Y-45174788D01*
X61776172Y-45221217D01*
X61764657Y-45249016D01*
X61705475Y-45329206D01*
X61696148Y-45341843D01*
X61693481Y-45349465D01*
X61652290Y-45467181D01*
X61652289Y-45467183D01*
X61649500Y-45496937D01*
X61649500Y-45672864D01*
X61631194Y-45717058D01*
X61396558Y-45951694D01*
X61352364Y-45970000D01*
X61212000Y-45970000D01*
X61212000Y-46110363D01*
X61193694Y-46154557D01*
X60933327Y-46414923D01*
X60889133Y-46433229D01*
X60868491Y-46429722D01*
X60761701Y-46392354D01*
X60761696Y-46392353D01*
X60741699Y-46390478D01*
X60731266Y-46389500D01*
X60343848Y-46389500D01*
X60299654Y-46371194D01*
X60281348Y-46327000D01*
X60299654Y-46282806D01*
X60306734Y-46276713D01*
X60345123Y-46248380D01*
X60388423Y-46216423D01*
X60462598Y-46115919D01*
X60503569Y-46091232D01*
X60549998Y-46102747D01*
X60557078Y-46108840D01*
X60631885Y-46183647D01*
X60712000Y-46221005D01*
X60712000Y-45257000D01*
X60708817Y-45253817D01*
X60672306Y-45238694D01*
X60654000Y-45194500D01*
X60654000Y-44954000D01*
X61154000Y-44954000D01*
X61154000Y-45157000D01*
X61157182Y-45160182D01*
X61193694Y-45175306D01*
X61212000Y-45219500D01*
X61212000Y-45470000D01*
X61428610Y-45470000D01*
X61428610Y-45469999D01*
X61425577Y-45446961D01*
X61425575Y-45446955D01*
X61375648Y-45339886D01*
X61292114Y-45256352D01*
X61292115Y-45256352D01*
X61270961Y-45246488D01*
X61238645Y-45211219D01*
X61240732Y-45163429D01*
X61253182Y-45145650D01*
X61326806Y-45072026D01*
X61377480Y-44963357D01*
X61377481Y-44963352D01*
X61378713Y-44954000D01*
X61154000Y-44954000D01*
X60654000Y-44954000D01*
X60654000Y-44210145D01*
X61154000Y-44210145D01*
X61154000Y-44454000D01*
X61378713Y-44454000D01*
X61378713Y-44453999D01*
X61377481Y-44444647D01*
X61377480Y-44444642D01*
X61326806Y-44335973D01*
X61242025Y-44251192D01*
X61154000Y-44210145D01*
X60654000Y-44210145D01*
X60565975Y-44251192D01*
X60534927Y-44282240D01*
X60490732Y-44300545D01*
X60446538Y-44282239D01*
X60440446Y-44275159D01*
X60422078Y-44250272D01*
X60398999Y-44219001D01*
X60337593Y-44173681D01*
X60333069Y-44170342D01*
X60308381Y-44129370D01*
X60319896Y-44082941D01*
X60349452Y-44061907D01*
X60349303Y-44061575D01*
X60350982Y-44060819D01*
X60351593Y-44060384D01*
X60352750Y-44060024D01*
X60494381Y-43974405D01*
X60611405Y-43857381D01*
X60697024Y-43715750D01*
X60746260Y-43557746D01*
X60752499Y-43489086D01*
X60752500Y-43489085D01*
X60752500Y-42063552D01*
X61268000Y-42063552D01*
X61268000Y-43280446D01*
X61876447Y-42672000D01*
X61876447Y-42671999D01*
X61268000Y-42063552D01*
X60752500Y-42063552D01*
X60752500Y-41854915D01*
X60752499Y-41854912D01*
X60746260Y-41786259D01*
X60746260Y-41786254D01*
X60697024Y-41628250D01*
X60626238Y-41511155D01*
X61422708Y-41511155D01*
X62229999Y-42318446D01*
X63037289Y-41511156D01*
X63037289Y-41511155D01*
X63025373Y-41495625D01*
X62904008Y-41402499D01*
X62762667Y-41343954D01*
X62762664Y-41343953D01*
X62649076Y-41329000D01*
X61810930Y-41329000D01*
X61810916Y-41329001D01*
X61697336Y-41343953D01*
X61697332Y-41343954D01*
X61555993Y-41402498D01*
X61434623Y-41495628D01*
X61422708Y-41511155D01*
X60626238Y-41511155D01*
X60611405Y-41486619D01*
X60494381Y-41369595D01*
X60352750Y-41283976D01*
X60194750Y-41234741D01*
X60194747Y-41234740D01*
X60194746Y-41234740D01*
X60194744Y-41234739D01*
X60194740Y-41234739D01*
X60126087Y-41228500D01*
X60126078Y-41228500D01*
X59253922Y-41228500D01*
X59253912Y-41228500D01*
X59185259Y-41234739D01*
X59185249Y-41234741D01*
X59027249Y-41283976D01*
X58885618Y-41369595D01*
X58768595Y-41486618D01*
X58682976Y-41628249D01*
X58633741Y-41786249D01*
X58633739Y-41786259D01*
X58627500Y-41854912D01*
X58627500Y-42888864D01*
X58609194Y-42933058D01*
X58565000Y-42951364D01*
X58520806Y-42933058D01*
X58165219Y-42577471D01*
X58139392Y-42564312D01*
X58131031Y-42559189D01*
X58107581Y-42542151D01*
X58093267Y-42537500D01*
X58080015Y-42533194D01*
X58070955Y-42529441D01*
X58045130Y-42516282D01*
X58045120Y-42516279D01*
X58016492Y-42511745D01*
X58006956Y-42509456D01*
X57979395Y-42500500D01*
X57979393Y-42500500D01*
X57968630Y-42500500D01*
X57924436Y-42482194D01*
X57918346Y-42475118D01*
X57902650Y-42453850D01*
X57793382Y-42373207D01*
X57780173Y-42368585D01*
X57665201Y-42328354D01*
X57665196Y-42328353D01*
X57645199Y-42326478D01*
X57634766Y-42325500D01*
X56351234Y-42325500D01*
X56341624Y-42326401D01*
X56320803Y-42328353D01*
X56320798Y-42328354D01*
X56205340Y-42368755D01*
X56157580Y-42366072D01*
X56125705Y-42330404D01*
X56125705Y-42289121D01*
X56153146Y-42210699D01*
X56156000Y-42180266D01*
X56156000Y-41771734D01*
X56153146Y-41741301D01*
X56108293Y-41613118D01*
X56027650Y-41503850D01*
X55918382Y-41423207D01*
X55790201Y-41378354D01*
X55790196Y-41378353D01*
X55770199Y-41376478D01*
X55759766Y-41375500D01*
X54476234Y-41375500D01*
X54466624Y-41376401D01*
X54445803Y-41378353D01*
X54445798Y-41378354D01*
X54317617Y-41423207D01*
X54317616Y-41423207D01*
X54208350Y-41503850D01*
X54127707Y-41613116D01*
X54127707Y-41613117D01*
X54082854Y-41741298D01*
X54082853Y-41741303D01*
X54080000Y-41771737D01*
X54080000Y-42180262D01*
X54082853Y-42210696D01*
X54082854Y-42210701D01*
X54121388Y-42320825D01*
X54118705Y-42368585D01*
X54106589Y-42385661D01*
X53802280Y-42689972D01*
X53706970Y-42785281D01*
X53706970Y-42785282D01*
X53693810Y-42811109D01*
X53688687Y-42819470D01*
X53671651Y-42842918D01*
X53662693Y-42870487D01*
X53658941Y-42879545D01*
X53645780Y-42905375D01*
X53645780Y-42905377D01*
X53641245Y-42934007D01*
X53638956Y-42943540D01*
X53630000Y-42971105D01*
X53630000Y-44599291D01*
X53638956Y-44626852D01*
X53641245Y-44636388D01*
X53645779Y-44665016D01*
X53645782Y-44665026D01*
X53658941Y-44690851D01*
X53662694Y-44699911D01*
X53671651Y-44727477D01*
X53688687Y-44750924D01*
X53693812Y-44759288D01*
X53706971Y-44785115D01*
X55305162Y-46383306D01*
X55323468Y-46427500D01*
X55305162Y-46471694D01*
X55260968Y-46490000D01*
X55077000Y-46490000D01*
X55077000Y-47489999D01*
X55704000Y-47489999D01*
X55748194Y-47508305D01*
X55766500Y-47552499D01*
X55766500Y-47697500D01*
X55748194Y-47741694D01*
X55704000Y-47760000D01*
X55077000Y-47760000D01*
X55077000Y-48397000D01*
X55058694Y-48441194D01*
X55014500Y-48459500D01*
X52971584Y-48459500D01*
X52927390Y-48441194D01*
X52911471Y-48414105D01*
X52893405Y-48350611D01*
X52798366Y-48159745D01*
X52685283Y-48010000D01*
X53636730Y-48010000D01*
X54577000Y-48010000D01*
X54577000Y-47760000D01*
X53943782Y-47760000D01*
X53875753Y-47769911D01*
X53875746Y-47769913D01*
X53770812Y-47821212D01*
X53688212Y-47903812D01*
X53636913Y-48008747D01*
X53636911Y-48008753D01*
X53636730Y-48010000D01*
X52685283Y-48010000D01*
X52669872Y-47989593D01*
X52512302Y-47845948D01*
X52512303Y-47845948D01*
X52331022Y-47733703D01*
X52331021Y-47733702D01*
X52195781Y-47681311D01*
X52132198Y-47656679D01*
X52132195Y-47656678D01*
X52132194Y-47656678D01*
X51957136Y-47623954D01*
X51917058Y-47597839D01*
X51906126Y-47563364D01*
X51903000Y-47332001D01*
X51920706Y-47287566D01*
X51959367Y-47268960D01*
X52021834Y-47262808D01*
X52097021Y-47240000D01*
X53636730Y-47240000D01*
X53636911Y-47241246D01*
X53636913Y-47241252D01*
X53688212Y-47346187D01*
X53770812Y-47428787D01*
X53875750Y-47480087D01*
X53943781Y-47489999D01*
X54577000Y-47489999D01*
X54577000Y-47240000D01*
X53636730Y-47240000D01*
X52097021Y-47240000D01*
X52219763Y-47202766D01*
X52402166Y-47105271D01*
X52402172Y-47105267D01*
X52562054Y-46974054D01*
X52693267Y-46814172D01*
X52693271Y-46814166D01*
X52732913Y-46740000D01*
X53636730Y-46740000D01*
X54577000Y-46740000D01*
X54577000Y-46490000D01*
X53943782Y-46490000D01*
X53875753Y-46499911D01*
X53875746Y-46499913D01*
X53770812Y-46551212D01*
X53688212Y-46633812D01*
X53636913Y-46738747D01*
X53636911Y-46738753D01*
X53636730Y-46740000D01*
X52732913Y-46740000D01*
X52790766Y-46631763D01*
X52837411Y-46478000D01*
X52249686Y-46478000D01*
X52275493Y-46437844D01*
X52316000Y-46299889D01*
X52316000Y-46156111D01*
X52275493Y-46018156D01*
X52249686Y-45978000D01*
X52837410Y-45978000D01*
X52837410Y-45977999D01*
X52790766Y-45824236D01*
X52693271Y-45641833D01*
X52693267Y-45641827D01*
X52562054Y-45481945D01*
X52402172Y-45350732D01*
X52402166Y-45350728D01*
X52219763Y-45253233D01*
X52021835Y-45193192D01*
X51929511Y-45184098D01*
X51887324Y-45161548D01*
X51873145Y-45122746D01*
X51870149Y-44901050D01*
X51887856Y-44856614D01*
X51921159Y-44838771D01*
X51922609Y-44838500D01*
X51922610Y-44838500D01*
X52132198Y-44799321D01*
X52331019Y-44722298D01*
X52512302Y-44610052D01*
X52669872Y-44466407D01*
X52798366Y-44296255D01*
X52893405Y-44105389D01*
X52951756Y-43900310D01*
X52958008Y-43832842D01*
X52971429Y-43688003D01*
X52971429Y-43687996D01*
X52951757Y-43475697D01*
X52951755Y-43475686D01*
X52931315Y-43403850D01*
X52893405Y-43270611D01*
X52798366Y-43079745D01*
X52669872Y-42909593D01*
X52512302Y-42765948D01*
X52512303Y-42765948D01*
X52331022Y-42653703D01*
X52331021Y-42653702D01*
X52214703Y-42608641D01*
X52132198Y-42576679D01*
X52132195Y-42576678D01*
X52132194Y-42576678D01*
X51922614Y-42537500D01*
X51922610Y-42537500D01*
X51899870Y-42537500D01*
X51855676Y-42519194D01*
X51837376Y-42475845D01*
X51836157Y-42385661D01*
X51818214Y-41057844D01*
X51835921Y-41013407D01*
X51879863Y-40994506D01*
X51880708Y-40994500D01*
X69535697Y-40994500D01*
X69579891Y-41012806D01*
G37*
%TD.AperFunction*%
%TA.AperFunction,Conductor*%
G36*
X59458828Y-46167806D02*
G01*
X59464920Y-46174885D01*
X59495577Y-46216423D01*
X59547253Y-46254561D01*
X59577266Y-46276713D01*
X59601954Y-46317685D01*
X59590439Y-46364114D01*
X59549467Y-46388802D01*
X59540152Y-46389500D01*
X59029348Y-46389500D01*
X58985154Y-46371194D01*
X58966848Y-46327000D01*
X58985154Y-46282806D01*
X59008706Y-46268007D01*
X59064794Y-46248381D01*
X59170423Y-46170423D01*
X59170425Y-46170419D01*
X59173040Y-46167806D01*
X59217234Y-46149500D01*
X59414634Y-46149500D01*
X59458828Y-46167806D01*
G37*
%TD.AperFunction*%
%TD*%
M02*
