%TF.GenerationSoftware,KiCad,Pcbnew,7.0.10*%
%TF.CreationDate,2024-01-21T02:22:15+01:00*%
%TF.ProjectId,powermeter,706f7765-726d-4657-9465-722e6b696361,rev?*%
%TF.SameCoordinates,Original*%
%TF.FileFunction,Paste,Top*%
%TF.FilePolarity,Positive*%
%FSLAX46Y46*%
G04 Gerber Fmt 4.6, Leading zero omitted, Abs format (unit mm)*
G04 Created by KiCad (PCBNEW 7.0.10) date 2024-01-21 02:22:15*
%MOMM*%
%LPD*%
G01*
G04 APERTURE LIST*
G04 Aperture macros list*
%AMRoundRect*
0 Rectangle with rounded corners*
0 $1 Rounding radius*
0 $2 $3 $4 $5 $6 $7 $8 $9 X,Y pos of 4 corners*
0 Add a 4 corners polygon primitive as box body*
4,1,4,$2,$3,$4,$5,$6,$7,$8,$9,$2,$3,0*
0 Add four circle primitives for the rounded corners*
1,1,$1+$1,$2,$3*
1,1,$1+$1,$4,$5*
1,1,$1+$1,$6,$7*
1,1,$1+$1,$8,$9*
0 Add four rect primitives between the rounded corners*
20,1,$1+$1,$2,$3,$4,$5,0*
20,1,$1+$1,$4,$5,$6,$7,0*
20,1,$1+$1,$6,$7,$8,$9,0*
20,1,$1+$1,$8,$9,$2,$3,0*%
G04 Aperture macros list end*
%ADD10RoundRect,0.135000X-0.185000X0.135000X-0.185000X-0.135000X0.185000X-0.135000X0.185000X0.135000X0*%
%ADD11RoundRect,0.087500X-0.087500X0.225000X-0.087500X-0.225000X0.087500X-0.225000X0.087500X0.225000X0*%
%ADD12RoundRect,0.087500X-0.225000X0.087500X-0.225000X-0.087500X0.225000X-0.087500X0.225000X0.087500X0*%
%ADD13RoundRect,0.140000X-0.170000X0.140000X-0.170000X-0.140000X0.170000X-0.140000X0.170000X0.140000X0*%
%ADD14RoundRect,0.140000X-0.140000X-0.170000X0.140000X-0.170000X0.140000X0.170000X-0.140000X0.170000X0*%
%ADD15RoundRect,0.135000X-0.135000X-0.185000X0.135000X-0.185000X0.135000X0.185000X-0.135000X0.185000X0*%
%ADD16RoundRect,0.150000X-0.587500X-0.150000X0.587500X-0.150000X0.587500X0.150000X-0.587500X0.150000X0*%
%ADD17RoundRect,0.135000X0.185000X-0.135000X0.185000X0.135000X-0.185000X0.135000X-0.185000X-0.135000X0*%
%ADD18RoundRect,0.150000X0.850000X0.150000X-0.850000X0.150000X-0.850000X-0.150000X0.850000X-0.150000X0*%
G04 APERTURE END LIST*
D10*
%TO.C,R4*%
X66802000Y-54098000D03*
X66802000Y-55118000D03*
%TD*%
D11*
%TO.C,U3*%
X65278000Y-54610000D03*
X64778000Y-54610000D03*
X64278000Y-54610000D03*
X63778000Y-54610000D03*
D12*
X63615500Y-55272500D03*
X63615500Y-55772500D03*
X63615500Y-56272500D03*
D11*
X63778000Y-56935000D03*
X64278000Y-56935000D03*
X64778000Y-56935000D03*
X65278000Y-56935000D03*
D12*
X65440500Y-56272500D03*
X65440500Y-55772500D03*
X65440500Y-55272500D03*
%TD*%
D13*
%TO.C,C6*%
X62357000Y-55245000D03*
X62357000Y-56205000D03*
%TD*%
D14*
%TO.C,C5*%
X61468000Y-57658000D03*
X62428000Y-57658000D03*
%TD*%
D10*
%TO.C,R2*%
X58674000Y-44704000D03*
X58674000Y-45724000D03*
%TD*%
D15*
%TO.C,R3*%
X59942000Y-45720000D03*
X60962000Y-45720000D03*
%TD*%
D16*
%TO.C,Q1*%
X55118000Y-42672000D03*
X55118000Y-44572000D03*
X56993000Y-43622000D03*
%TD*%
D14*
%TO.C,C4*%
X59944000Y-44704000D03*
X60904000Y-44704000D03*
%TD*%
D15*
%TO.C,R1*%
X62230000Y-44704000D03*
X63250000Y-44704000D03*
%TD*%
D14*
%TO.C,C3*%
X54920000Y-57658000D03*
X55880000Y-57658000D03*
%TD*%
D13*
%TO.C,C2*%
X61976000Y-49784000D03*
X61976000Y-50744000D03*
%TD*%
D17*
%TO.C,R5*%
X66802000Y-57154000D03*
X66802000Y-56134000D03*
%TD*%
D18*
%TO.C,U2*%
X59827000Y-56134000D03*
X59827000Y-54864000D03*
X59827000Y-53594000D03*
X59827000Y-52324000D03*
X59827000Y-51054000D03*
X59827000Y-49784000D03*
X59827000Y-48514000D03*
X59827000Y-47244000D03*
X54827000Y-47244000D03*
X54827000Y-48514000D03*
X54827000Y-49784000D03*
X54827000Y-51054000D03*
X54827000Y-52324000D03*
X54827000Y-53594000D03*
X54827000Y-54864000D03*
X54827000Y-56134000D03*
%TD*%
D15*
%TO.C,R6*%
X64262000Y-44704000D03*
X65282000Y-44704000D03*
%TD*%
D14*
%TO.C,C1*%
X62230000Y-45720000D03*
X63190000Y-45720000D03*
%TD*%
M02*
