M48
; DRILL file {KiCad 7.0.10} date dim. 21 janv. 2024 16:59:30
; FORMAT={-:-/ absolute / inch / decimal}
; #@! TF.CreationDate,2024-01-21T16:59:30+01:00
; #@! TF.GenerationSoftware,Kicad,Pcbnew,7.0.10
; #@! TF.FileFunction,Plated,1,2,PTH
FMAT,2
INCH
; #@! TA.AperFunction,Plated,PTH,ViaDrill
T1C0.0157
; #@! TA.AperFunction,Plated,PTH,ComponentDrill
T2C0.0394
%
G90
G05
T1
X2.09Y-1.64
X2.155Y-2.315
X2.1585Y-2.21
X2.16Y-1.86
X2.24Y-2.16
X2.24Y-2.27
X2.27Y-1.65
X2.375Y-2.27
X2.42Y-2.13
X2.44Y-2.02
X2.4866Y-2.1216
X2.495Y-1.845
X2.595Y-2.31
X2.62Y-1.78
X2.71Y-1.65
T2
X2.04Y-1.724
X2.04Y-1.824
X2.04Y-1.924
X2.04Y-2.024
X2.04Y-2.124
X2.04Y-2.224
X2.04Y-2.324
X2.74Y-1.724
X2.74Y-1.824
X2.74Y-2.124
X2.74Y-2.224
X2.74Y-2.324
M30
