%TF.GenerationSoftware,KiCad,Pcbnew,7.0.10*%
%TF.CreationDate,2024-01-21T16:50:34+01:00*%
%TF.ProjectId,powermeter,706f7765-726d-4657-9465-722e6b696361,rev?*%
%TF.SameCoordinates,Original*%
%TF.FileFunction,Legend,Top*%
%TF.FilePolarity,Positive*%
%FSLAX46Y46*%
G04 Gerber Fmt 4.6, Leading zero omitted, Abs format (unit mm)*
G04 Created by KiCad (PCBNEW 7.0.10) date 2024-01-21 16:50:34*
%MOMM*%
%LPD*%
G01*
G04 APERTURE LIST*
G04 Aperture macros list*
%AMRoundRect*
0 Rectangle with rounded corners*
0 $1 Rounding radius*
0 $2 $3 $4 $5 $6 $7 $8 $9 X,Y pos of 4 corners*
0 Add a 4 corners polygon primitive as box body*
4,1,4,$2,$3,$4,$5,$6,$7,$8,$9,$2,$3,0*
0 Add four circle primitives for the rounded corners*
1,1,$1+$1,$2,$3*
1,1,$1+$1,$4,$5*
1,1,$1+$1,$6,$7*
1,1,$1+$1,$8,$9*
0 Add four rect primitives between the rounded corners*
20,1,$1+$1,$2,$3,$4,$5,0*
20,1,$1+$1,$4,$5,$6,$7,0*
20,1,$1+$1,$6,$7,$8,$9,0*
20,1,$1+$1,$8,$9,$2,$3,0*%
G04 Aperture macros list end*
%ADD10C,0.120000*%
%ADD11C,0.150000*%
%ADD12RoundRect,0.154000X-0.204000X0.154000X-0.204000X-0.154000X0.204000X-0.154000X0.204000X0.154000X0*%
%ADD13RoundRect,0.154000X-0.154000X-0.204000X0.154000X-0.204000X0.154000X0.204000X-0.154000X0.204000X0*%
%ADD14RoundRect,0.159000X-0.159000X-0.189000X0.159000X-0.189000X0.159000X0.189000X-0.159000X0.189000X0*%
%ADD15RoundRect,0.159000X0.159000X0.189000X-0.159000X0.189000X-0.159000X-0.189000X0.159000X-0.189000X0*%
%ADD16RoundRect,0.169000X-0.606500X-0.169000X0.606500X-0.169000X0.606500X0.169000X-0.606500X0.169000X0*%
%ADD17RoundRect,0.038000X0.850000X0.850000X-0.850000X0.850000X-0.850000X-0.850000X0.850000X-0.850000X0*%
%ADD18O,1.776000X1.776000*%
%ADD19RoundRect,0.159000X0.189000X-0.159000X0.189000X0.159000X-0.189000X0.159000X-0.189000X-0.159000X0*%
%ADD20RoundRect,0.400000X0.400000X-0.781000X0.400000X0.781000X-0.400000X0.781000X-0.400000X-0.781000X0*%
%ADD21RoundRect,0.159000X-0.189000X0.159000X-0.189000X-0.159000X0.189000X-0.159000X0.189000X0.159000X0*%
%ADD22RoundRect,0.154000X0.204000X-0.154000X0.204000X0.154000X-0.204000X0.154000X-0.204000X-0.154000X0*%
%ADD23RoundRect,0.169000X0.869000X0.169000X-0.869000X0.169000X-0.869000X-0.169000X0.869000X-0.169000X0*%
%ADD24RoundRect,0.094000X-0.094000X0.369000X-0.094000X-0.369000X0.094000X-0.369000X0.094000X0.369000X0*%
%ADD25RoundRect,0.094000X-0.369000X-0.094000X0.369000X-0.094000X0.369000X0.094000X-0.369000X0.094000X0*%
%ADD26RoundRect,0.038000X-0.850000X-0.850000X0.850000X-0.850000X0.850000X0.850000X-0.850000X0.850000X0*%
G04 APERTURE END LIST*
D10*
%TO.C,R2*%
X59054000Y-45060359D02*
X59054000Y-45367641D01*
X58294000Y-45060359D02*
X58294000Y-45367641D01*
%TO.C,R3*%
X60298359Y-45340000D02*
X60605641Y-45340000D01*
X60298359Y-46100000D02*
X60605641Y-46100000D01*
%TO.C,C8*%
X63392164Y-58314000D02*
X63607836Y-58314000D01*
X63392164Y-59034000D02*
X63607836Y-59034000D01*
%TO.C,C5*%
X66429836Y-59006000D02*
X66214164Y-59006000D01*
X66429836Y-58286000D02*
X66214164Y-58286000D01*
%TO.C,Q1*%
X56055500Y-41366000D02*
X54380500Y-41366000D01*
X56055500Y-41366000D02*
X56705500Y-41366000D01*
X56055500Y-44486000D02*
X55405500Y-44486000D01*
X56055500Y-44486000D02*
X56705500Y-44486000D01*
%TO.C,C4*%
X60316164Y-44344000D02*
X60531836Y-44344000D01*
X60316164Y-45064000D02*
X60531836Y-45064000D01*
%TO.C,R4*%
X68452000Y-53188359D02*
X68452000Y-53495641D01*
X67692000Y-53188359D02*
X67692000Y-53495641D01*
%TO.C,R1*%
X62586359Y-44324000D02*
X62893641Y-44324000D01*
X62586359Y-45084000D02*
X62893641Y-45084000D01*
%TO.C,C7*%
X61616000Y-51148836D02*
X61616000Y-50933164D01*
X62336000Y-51148836D02*
X62336000Y-50933164D01*
%TO.C,C3*%
X55292164Y-57298000D02*
X55507836Y-57298000D01*
X55292164Y-58018000D02*
X55507836Y-58018000D01*
%TO.C,C2*%
X62336000Y-48378164D02*
X62336000Y-48593836D01*
X61616000Y-48378164D02*
X61616000Y-48593836D01*
%TO.C,R5*%
X67692000Y-55777641D02*
X67692000Y-55470359D01*
X68452000Y-55777641D02*
X68452000Y-55470359D01*
%TO.C,U2*%
X57327000Y-56495000D02*
X60827000Y-56495000D01*
X57327000Y-56495000D02*
X55377000Y-56495000D01*
X57327000Y-46375000D02*
X59277000Y-46375000D01*
X57327000Y-46375000D02*
X55377000Y-46375000D01*
%TO.C,R6*%
X64618359Y-44324000D02*
X64925641Y-44324000D01*
X64618359Y-45084000D02*
X64925641Y-45084000D01*
%TO.C,C6*%
X60841836Y-57510000D02*
X60626164Y-57510000D01*
X60841836Y-56790000D02*
X60626164Y-56790000D01*
D11*
%TO.C,U3*%
X66748000Y-53210000D02*
X66748000Y-53735000D01*
X62448000Y-53210000D02*
X62973000Y-53210000D01*
X62448000Y-53210000D02*
X62448000Y-53735000D01*
X66748000Y-57510000D02*
X66748000Y-56985000D01*
X66748000Y-57510000D02*
X66223000Y-57510000D01*
X62448000Y-57510000D02*
X62448000Y-56985000D01*
X62448000Y-57510000D02*
X62973000Y-57510000D01*
D10*
%TO.C,C1*%
X62602164Y-45360000D02*
X62817836Y-45360000D01*
X62602164Y-46080000D02*
X62817836Y-46080000D01*
%TD*%
%LPC*%
D12*
%TO.C,R2*%
X58674000Y-44704000D03*
X58674000Y-45724000D03*
%TD*%
D13*
%TO.C,R3*%
X59942000Y-45720000D03*
X60962000Y-45720000D03*
%TD*%
D14*
%TO.C,C8*%
X63020000Y-58674000D03*
X63980000Y-58674000D03*
%TD*%
D15*
%TO.C,C5*%
X66802000Y-58646000D03*
X65842000Y-58646000D03*
%TD*%
D16*
%TO.C,Q1*%
X55118000Y-41976000D03*
X55118000Y-43876000D03*
X56993000Y-42926000D03*
%TD*%
D14*
%TO.C,C4*%
X59944000Y-44704000D03*
X60904000Y-44704000D03*
%TD*%
D12*
%TO.C,R4*%
X68072000Y-52832000D03*
X68072000Y-53852000D03*
%TD*%
D17*
%TO.C,J3*%
X51816000Y-58928000D03*
D18*
X51816000Y-56388000D03*
X51816000Y-53848000D03*
X51816000Y-51308000D03*
X51816000Y-48768000D03*
X51816000Y-46228000D03*
X51816000Y-43688000D03*
%TD*%
D13*
%TO.C,R1*%
X62230000Y-44704000D03*
X63250000Y-44704000D03*
%TD*%
D19*
%TO.C,C7*%
X61976000Y-51521000D03*
X61976000Y-50561000D03*
%TD*%
D20*
%TO.C,J1*%
X59690000Y-42672000D03*
X62230000Y-42672000D03*
X64770000Y-42672000D03*
X67310000Y-42672000D03*
%TD*%
D14*
%TO.C,C3*%
X54920000Y-57658000D03*
X55880000Y-57658000D03*
%TD*%
D21*
%TO.C,C2*%
X61976000Y-48006000D03*
X61976000Y-48966000D03*
%TD*%
D22*
%TO.C,R5*%
X68072000Y-56134000D03*
X68072000Y-55114000D03*
%TD*%
D23*
%TO.C,U2*%
X59827000Y-55880000D03*
X59827000Y-54610000D03*
X59827000Y-53340000D03*
X59827000Y-52070000D03*
X59827000Y-50800000D03*
X59827000Y-49530000D03*
X59827000Y-48260000D03*
X59827000Y-46990000D03*
X54827000Y-46990000D03*
X54827000Y-48260000D03*
X54827000Y-49530000D03*
X54827000Y-50800000D03*
X54827000Y-52070000D03*
X54827000Y-53340000D03*
X54827000Y-54610000D03*
X54827000Y-55880000D03*
%TD*%
D13*
%TO.C,R6*%
X64262000Y-44704000D03*
X65282000Y-44704000D03*
%TD*%
D15*
%TO.C,C6*%
X61214000Y-57150000D03*
X60254000Y-57150000D03*
%TD*%
D24*
%TO.C,U3*%
X65848000Y-53410000D03*
X65348000Y-53410000D03*
X64848000Y-53410000D03*
X64348000Y-53410000D03*
X63848000Y-53410000D03*
X63348000Y-53410000D03*
D25*
X62648000Y-54110000D03*
X62648000Y-54610000D03*
X62648000Y-55110000D03*
X62648000Y-55610000D03*
X62648000Y-56110000D03*
X62648000Y-56610000D03*
D24*
X63348000Y-57310000D03*
X63848000Y-57310000D03*
X64348000Y-57310000D03*
X64848000Y-57310000D03*
X65348000Y-57310000D03*
X65848000Y-57310000D03*
D25*
X66548000Y-56610000D03*
X66548000Y-56110000D03*
X66548000Y-55610000D03*
X66548000Y-55110000D03*
X66548000Y-54610000D03*
X66548000Y-54110000D03*
%TD*%
D14*
%TO.C,C1*%
X62230000Y-45720000D03*
X63190000Y-45720000D03*
%TD*%
D26*
%TO.C,J2*%
X69596000Y-43688000D03*
D18*
X69596000Y-46228000D03*
X69596000Y-48768000D03*
X69596000Y-51308000D03*
X69596000Y-53848000D03*
X69596000Y-56388000D03*
X69596000Y-58928000D03*
%TD*%
%LPD*%
M02*
