%TF.GenerationSoftware,KiCad,Pcbnew,7.0.10*%
%TF.CreationDate,2024-01-21T16:50:34+01:00*%
%TF.ProjectId,powermeter,706f7765-726d-4657-9465-722e6b696361,rev?*%
%TF.SameCoordinates,Original*%
%TF.FileFunction,Soldermask,Top*%
%TF.FilePolarity,Negative*%
%FSLAX46Y46*%
G04 Gerber Fmt 4.6, Leading zero omitted, Abs format (unit mm)*
G04 Created by KiCad (PCBNEW 7.0.10) date 2024-01-21 16:50:34*
%MOMM*%
%LPD*%
G01*
G04 APERTURE LIST*
G04 APERTURE END LIST*
G36*
X52680542Y-58042893D02*
G01*
X52692870Y-58051130D01*
X52701107Y-58063458D01*
X52704000Y-58078000D01*
X52704000Y-59778000D01*
X52701107Y-59792542D01*
X52692870Y-59804870D01*
X52680542Y-59813107D01*
X52666000Y-59816000D01*
X50966000Y-59816000D01*
X50951458Y-59813107D01*
X50939130Y-59804870D01*
X50930893Y-59792542D01*
X50928000Y-59778000D01*
X50928000Y-58078000D01*
X50930893Y-58063458D01*
X50939130Y-58051130D01*
X50951458Y-58042893D01*
X50966000Y-58040000D01*
X52666000Y-58040000D01*
X52680542Y-58042893D01*
G37*
G36*
X69870407Y-58083462D02*
G01*
X70040000Y-58158969D01*
X70190188Y-58268087D01*
X70314407Y-58406047D01*
X70407228Y-58566818D01*
X70464595Y-58743374D01*
X70484000Y-58928000D01*
X70464595Y-59112626D01*
X70407228Y-59289182D01*
X70314407Y-59449953D01*
X70190188Y-59587913D01*
X70040000Y-59697031D01*
X69870407Y-59772538D01*
X69688821Y-59811135D01*
X69503179Y-59811135D01*
X69321593Y-59772538D01*
X69152000Y-59697031D01*
X69001812Y-59587913D01*
X68877593Y-59449953D01*
X68784772Y-59289182D01*
X68727405Y-59112626D01*
X68708000Y-58928000D01*
X68727405Y-58743374D01*
X68784772Y-58566818D01*
X68877593Y-58406047D01*
X69001812Y-58268087D01*
X69152000Y-58158969D01*
X69321593Y-58083462D01*
X69503179Y-58044865D01*
X69688821Y-58044865D01*
X69870407Y-58083462D01*
G37*
G36*
X63228118Y-58339549D02*
G01*
X63285865Y-58378135D01*
X63324451Y-58435882D01*
X63338000Y-58504000D01*
X63338000Y-58844000D01*
X63324451Y-58912118D01*
X63285865Y-58969865D01*
X63228118Y-59008451D01*
X63160000Y-59022000D01*
X62880000Y-59022000D01*
X62811882Y-59008451D01*
X62754135Y-58969865D01*
X62715549Y-58912118D01*
X62702000Y-58844000D01*
X62702000Y-58504000D01*
X62715549Y-58435882D01*
X62754135Y-58378135D01*
X62811882Y-58339549D01*
X62880000Y-58326000D01*
X63160000Y-58326000D01*
X63228118Y-58339549D01*
G37*
G36*
X64188118Y-58339549D02*
G01*
X64245865Y-58378135D01*
X64284451Y-58435882D01*
X64298000Y-58504000D01*
X64298000Y-58844000D01*
X64284451Y-58912118D01*
X64245865Y-58969865D01*
X64188118Y-59008451D01*
X64120000Y-59022000D01*
X63840000Y-59022000D01*
X63771882Y-59008451D01*
X63714135Y-58969865D01*
X63675549Y-58912118D01*
X63662000Y-58844000D01*
X63662000Y-58504000D01*
X63675549Y-58435882D01*
X63714135Y-58378135D01*
X63771882Y-58339549D01*
X63840000Y-58326000D01*
X64120000Y-58326000D01*
X64188118Y-58339549D01*
G37*
G36*
X66050118Y-58311549D02*
G01*
X66107865Y-58350135D01*
X66146451Y-58407882D01*
X66160000Y-58476000D01*
X66160000Y-58816000D01*
X66146451Y-58884118D01*
X66107865Y-58941865D01*
X66050118Y-58980451D01*
X65982000Y-58994000D01*
X65702000Y-58994000D01*
X65633882Y-58980451D01*
X65576135Y-58941865D01*
X65537549Y-58884118D01*
X65524000Y-58816000D01*
X65524000Y-58476000D01*
X65537549Y-58407882D01*
X65576135Y-58350135D01*
X65633882Y-58311549D01*
X65702000Y-58298000D01*
X65982000Y-58298000D01*
X66050118Y-58311549D01*
G37*
G36*
X67010118Y-58311549D02*
G01*
X67067865Y-58350135D01*
X67106451Y-58407882D01*
X67120000Y-58476000D01*
X67120000Y-58816000D01*
X67106451Y-58884118D01*
X67067865Y-58941865D01*
X67010118Y-58980451D01*
X66942000Y-58994000D01*
X66662000Y-58994000D01*
X66593882Y-58980451D01*
X66536135Y-58941865D01*
X66497549Y-58884118D01*
X66484000Y-58816000D01*
X66484000Y-58476000D01*
X66497549Y-58407882D01*
X66536135Y-58350135D01*
X66593882Y-58311549D01*
X66662000Y-58298000D01*
X66942000Y-58298000D01*
X67010118Y-58311549D01*
G37*
G36*
X55128118Y-57323549D02*
G01*
X55185865Y-57362135D01*
X55224451Y-57419882D01*
X55238000Y-57488000D01*
X55238000Y-57828000D01*
X55224451Y-57896118D01*
X55185865Y-57953865D01*
X55128118Y-57992451D01*
X55060000Y-58006000D01*
X54780000Y-58006000D01*
X54711882Y-57992451D01*
X54654135Y-57953865D01*
X54615549Y-57896118D01*
X54602000Y-57828000D01*
X54602000Y-57488000D01*
X54615549Y-57419882D01*
X54654135Y-57362135D01*
X54711882Y-57323549D01*
X54780000Y-57310000D01*
X55060000Y-57310000D01*
X55128118Y-57323549D01*
G37*
G36*
X56088118Y-57323549D02*
G01*
X56145865Y-57362135D01*
X56184451Y-57419882D01*
X56198000Y-57488000D01*
X56198000Y-57828000D01*
X56184451Y-57896118D01*
X56145865Y-57953865D01*
X56088118Y-57992451D01*
X56020000Y-58006000D01*
X55740000Y-58006000D01*
X55671882Y-57992451D01*
X55614135Y-57953865D01*
X55575549Y-57896118D01*
X55562000Y-57828000D01*
X55562000Y-57488000D01*
X55575549Y-57419882D01*
X55614135Y-57362135D01*
X55671882Y-57323549D01*
X55740000Y-57310000D01*
X56020000Y-57310000D01*
X56088118Y-57323549D01*
G37*
G36*
X63466243Y-56855602D02*
G01*
X63502903Y-56880097D01*
X63527398Y-56916757D01*
X63536000Y-56960000D01*
X63536000Y-57660000D01*
X63527398Y-57703243D01*
X63502903Y-57739903D01*
X63466243Y-57764398D01*
X63423000Y-57773000D01*
X63273000Y-57773000D01*
X63229757Y-57764398D01*
X63193097Y-57739903D01*
X63168602Y-57703243D01*
X63160000Y-57660000D01*
X63160000Y-56960000D01*
X63168602Y-56916757D01*
X63193097Y-56880097D01*
X63229757Y-56855602D01*
X63273000Y-56847000D01*
X63423000Y-56847000D01*
X63466243Y-56855602D01*
G37*
G36*
X63966243Y-56855602D02*
G01*
X64002903Y-56880097D01*
X64027398Y-56916757D01*
X64036000Y-56960000D01*
X64036000Y-57660000D01*
X64027398Y-57703243D01*
X64002903Y-57739903D01*
X63966243Y-57764398D01*
X63923000Y-57773000D01*
X63773000Y-57773000D01*
X63729757Y-57764398D01*
X63693097Y-57739903D01*
X63668602Y-57703243D01*
X63660000Y-57660000D01*
X63660000Y-56960000D01*
X63668602Y-56916757D01*
X63693097Y-56880097D01*
X63729757Y-56855602D01*
X63773000Y-56847000D01*
X63923000Y-56847000D01*
X63966243Y-56855602D01*
G37*
G36*
X64466243Y-56855602D02*
G01*
X64502903Y-56880097D01*
X64527398Y-56916757D01*
X64536000Y-56960000D01*
X64536000Y-57660000D01*
X64527398Y-57703243D01*
X64502903Y-57739903D01*
X64466243Y-57764398D01*
X64423000Y-57773000D01*
X64273000Y-57773000D01*
X64229757Y-57764398D01*
X64193097Y-57739903D01*
X64168602Y-57703243D01*
X64160000Y-57660000D01*
X64160000Y-56960000D01*
X64168602Y-56916757D01*
X64193097Y-56880097D01*
X64229757Y-56855602D01*
X64273000Y-56847000D01*
X64423000Y-56847000D01*
X64466243Y-56855602D01*
G37*
G36*
X64966243Y-56855602D02*
G01*
X65002903Y-56880097D01*
X65027398Y-56916757D01*
X65036000Y-56960000D01*
X65036000Y-57660000D01*
X65027398Y-57703243D01*
X65002903Y-57739903D01*
X64966243Y-57764398D01*
X64923000Y-57773000D01*
X64773000Y-57773000D01*
X64729757Y-57764398D01*
X64693097Y-57739903D01*
X64668602Y-57703243D01*
X64660000Y-57660000D01*
X64660000Y-56960000D01*
X64668602Y-56916757D01*
X64693097Y-56880097D01*
X64729757Y-56855602D01*
X64773000Y-56847000D01*
X64923000Y-56847000D01*
X64966243Y-56855602D01*
G37*
G36*
X65466243Y-56855602D02*
G01*
X65502903Y-56880097D01*
X65527398Y-56916757D01*
X65536000Y-56960000D01*
X65536000Y-57660000D01*
X65527398Y-57703243D01*
X65502903Y-57739903D01*
X65466243Y-57764398D01*
X65423000Y-57773000D01*
X65273000Y-57773000D01*
X65229757Y-57764398D01*
X65193097Y-57739903D01*
X65168602Y-57703243D01*
X65160000Y-57660000D01*
X65160000Y-56960000D01*
X65168602Y-56916757D01*
X65193097Y-56880097D01*
X65229757Y-56855602D01*
X65273000Y-56847000D01*
X65423000Y-56847000D01*
X65466243Y-56855602D01*
G37*
G36*
X65966243Y-56855602D02*
G01*
X66002903Y-56880097D01*
X66027398Y-56916757D01*
X66036000Y-56960000D01*
X66036000Y-57660000D01*
X66027398Y-57703243D01*
X66002903Y-57739903D01*
X65966243Y-57764398D01*
X65923000Y-57773000D01*
X65773000Y-57773000D01*
X65729757Y-57764398D01*
X65693097Y-57739903D01*
X65668602Y-57703243D01*
X65660000Y-57660000D01*
X65660000Y-56960000D01*
X65668602Y-56916757D01*
X65693097Y-56880097D01*
X65729757Y-56855602D01*
X65773000Y-56847000D01*
X65923000Y-56847000D01*
X65966243Y-56855602D01*
G37*
G36*
X60462118Y-56815549D02*
G01*
X60519865Y-56854135D01*
X60558451Y-56911882D01*
X60572000Y-56980000D01*
X60572000Y-57320000D01*
X60558451Y-57388118D01*
X60519865Y-57445865D01*
X60462118Y-57484451D01*
X60394000Y-57498000D01*
X60114000Y-57498000D01*
X60045882Y-57484451D01*
X59988135Y-57445865D01*
X59949549Y-57388118D01*
X59936000Y-57320000D01*
X59936000Y-56980000D01*
X59949549Y-56911882D01*
X59988135Y-56854135D01*
X60045882Y-56815549D01*
X60114000Y-56802000D01*
X60394000Y-56802000D01*
X60462118Y-56815549D01*
G37*
G36*
X61422118Y-56815549D02*
G01*
X61479865Y-56854135D01*
X61518451Y-56911882D01*
X61532000Y-56980000D01*
X61532000Y-57320000D01*
X61518451Y-57388118D01*
X61479865Y-57445865D01*
X61422118Y-57484451D01*
X61354000Y-57498000D01*
X61074000Y-57498000D01*
X61005882Y-57484451D01*
X60948135Y-57445865D01*
X60909549Y-57388118D01*
X60896000Y-57320000D01*
X60896000Y-56980000D01*
X60909549Y-56911882D01*
X60948135Y-56854135D01*
X61005882Y-56815549D01*
X61074000Y-56802000D01*
X61354000Y-56802000D01*
X61422118Y-56815549D01*
G37*
G36*
X52090407Y-55543462D02*
G01*
X52260000Y-55618969D01*
X52410188Y-55728087D01*
X52534407Y-55866047D01*
X52627228Y-56026818D01*
X52684595Y-56203374D01*
X52704000Y-56388000D01*
X52684595Y-56572626D01*
X52627228Y-56749182D01*
X52534407Y-56909953D01*
X52410188Y-57047913D01*
X52260000Y-57157031D01*
X52090407Y-57232538D01*
X51908821Y-57271135D01*
X51723179Y-57271135D01*
X51541593Y-57232538D01*
X51372000Y-57157031D01*
X51221812Y-57047913D01*
X51097593Y-56909953D01*
X51004772Y-56749182D01*
X50947405Y-56572626D01*
X50928000Y-56388000D01*
X50947405Y-56203374D01*
X51004772Y-56026818D01*
X51097593Y-55866047D01*
X51221812Y-55728087D01*
X51372000Y-55618969D01*
X51541593Y-55543462D01*
X51723179Y-55504865D01*
X51908821Y-55504865D01*
X52090407Y-55543462D01*
G37*
G36*
X69870407Y-55543462D02*
G01*
X70040000Y-55618969D01*
X70190188Y-55728087D01*
X70314407Y-55866047D01*
X70407228Y-56026818D01*
X70464595Y-56203374D01*
X70484000Y-56388000D01*
X70464595Y-56572626D01*
X70407228Y-56749182D01*
X70314407Y-56909953D01*
X70190188Y-57047913D01*
X70040000Y-57157031D01*
X69870407Y-57232538D01*
X69688821Y-57271135D01*
X69503179Y-57271135D01*
X69321593Y-57232538D01*
X69152000Y-57157031D01*
X69001812Y-57047913D01*
X68877593Y-56909953D01*
X68784772Y-56749182D01*
X68727405Y-56572626D01*
X68708000Y-56388000D01*
X68727405Y-56203374D01*
X68784772Y-56026818D01*
X68877593Y-55866047D01*
X69001812Y-55728087D01*
X69152000Y-55618969D01*
X69321593Y-55543462D01*
X69503179Y-55504865D01*
X69688821Y-55504865D01*
X69870407Y-55543462D01*
G37*
G36*
X63041243Y-56430602D02*
G01*
X63077903Y-56455097D01*
X63102398Y-56491757D01*
X63111000Y-56535000D01*
X63111000Y-56685000D01*
X63102398Y-56728243D01*
X63077903Y-56764903D01*
X63041243Y-56789398D01*
X62998000Y-56798000D01*
X62298000Y-56798000D01*
X62254757Y-56789398D01*
X62218097Y-56764903D01*
X62193602Y-56728243D01*
X62185000Y-56685000D01*
X62185000Y-56535000D01*
X62193602Y-56491757D01*
X62218097Y-56455097D01*
X62254757Y-56430602D01*
X62298000Y-56422000D01*
X62998000Y-56422000D01*
X63041243Y-56430602D01*
G37*
G36*
X66941243Y-56430602D02*
G01*
X66977903Y-56455097D01*
X67002398Y-56491757D01*
X67011000Y-56535000D01*
X67011000Y-56685000D01*
X67002398Y-56728243D01*
X66977903Y-56764903D01*
X66941243Y-56789398D01*
X66898000Y-56798000D01*
X66198000Y-56798000D01*
X66154757Y-56789398D01*
X66118097Y-56764903D01*
X66093602Y-56728243D01*
X66085000Y-56685000D01*
X66085000Y-56535000D01*
X66093602Y-56491757D01*
X66118097Y-56455097D01*
X66154757Y-56430602D01*
X66198000Y-56422000D01*
X66898000Y-56422000D01*
X66941243Y-56430602D01*
G37*
G36*
X68323204Y-55839169D02*
G01*
X68379329Y-55876671D01*
X68416831Y-55932796D01*
X68430000Y-55999000D01*
X68430000Y-56269000D01*
X68416831Y-56335204D01*
X68379329Y-56391329D01*
X68323204Y-56428831D01*
X68257000Y-56442000D01*
X67887000Y-56442000D01*
X67820796Y-56428831D01*
X67764671Y-56391329D01*
X67727169Y-56335204D01*
X67714000Y-56269000D01*
X67714000Y-55999000D01*
X67727169Y-55932796D01*
X67764671Y-55876671D01*
X67820796Y-55839169D01*
X67887000Y-55826000D01*
X68257000Y-55826000D01*
X68323204Y-55839169D01*
G37*
G36*
X63041243Y-55930602D02*
G01*
X63077903Y-55955097D01*
X63102398Y-55991757D01*
X63111000Y-56035000D01*
X63111000Y-56185000D01*
X63102398Y-56228243D01*
X63077903Y-56264903D01*
X63041243Y-56289398D01*
X62998000Y-56298000D01*
X62298000Y-56298000D01*
X62254757Y-56289398D01*
X62218097Y-56264903D01*
X62193602Y-56228243D01*
X62185000Y-56185000D01*
X62185000Y-56035000D01*
X62193602Y-55991757D01*
X62218097Y-55955097D01*
X62254757Y-55930602D01*
X62298000Y-55922000D01*
X62998000Y-55922000D01*
X63041243Y-55930602D01*
G37*
G36*
X66941243Y-55930602D02*
G01*
X66977903Y-55955097D01*
X67002398Y-55991757D01*
X67011000Y-56035000D01*
X67011000Y-56185000D01*
X67002398Y-56228243D01*
X66977903Y-56264903D01*
X66941243Y-56289398D01*
X66898000Y-56298000D01*
X66198000Y-56298000D01*
X66154757Y-56289398D01*
X66118097Y-56264903D01*
X66093602Y-56228243D01*
X66085000Y-56185000D01*
X66085000Y-56035000D01*
X66093602Y-55991757D01*
X66118097Y-55955097D01*
X66154757Y-55930602D01*
X66198000Y-55922000D01*
X66898000Y-55922000D01*
X66941243Y-55930602D01*
G37*
G36*
X55748944Y-55556311D02*
G01*
X55809936Y-55597064D01*
X55850689Y-55658056D01*
X55865000Y-55730000D01*
X55865000Y-56030000D01*
X55850689Y-56101944D01*
X55809936Y-56162936D01*
X55748944Y-56203689D01*
X55677000Y-56218000D01*
X53977000Y-56218000D01*
X53905056Y-56203689D01*
X53844064Y-56162936D01*
X53803311Y-56101944D01*
X53789000Y-56030000D01*
X53789000Y-55730000D01*
X53803311Y-55658056D01*
X53844064Y-55597064D01*
X53905056Y-55556311D01*
X53977000Y-55542000D01*
X55677000Y-55542000D01*
X55748944Y-55556311D01*
G37*
G36*
X60748944Y-55556311D02*
G01*
X60809936Y-55597064D01*
X60850689Y-55658056D01*
X60865000Y-55730000D01*
X60865000Y-56030000D01*
X60850689Y-56101944D01*
X60809936Y-56162936D01*
X60748944Y-56203689D01*
X60677000Y-56218000D01*
X58977000Y-56218000D01*
X58905056Y-56203689D01*
X58844064Y-56162936D01*
X58803311Y-56101944D01*
X58789000Y-56030000D01*
X58789000Y-55730000D01*
X58803311Y-55658056D01*
X58844064Y-55597064D01*
X58905056Y-55556311D01*
X58977000Y-55542000D01*
X60677000Y-55542000D01*
X60748944Y-55556311D01*
G37*
G36*
X63041243Y-55430602D02*
G01*
X63077903Y-55455097D01*
X63102398Y-55491757D01*
X63111000Y-55535000D01*
X63111000Y-55685000D01*
X63102398Y-55728243D01*
X63077903Y-55764903D01*
X63041243Y-55789398D01*
X62998000Y-55798000D01*
X62298000Y-55798000D01*
X62254757Y-55789398D01*
X62218097Y-55764903D01*
X62193602Y-55728243D01*
X62185000Y-55685000D01*
X62185000Y-55535000D01*
X62193602Y-55491757D01*
X62218097Y-55455097D01*
X62254757Y-55430602D01*
X62298000Y-55422000D01*
X62998000Y-55422000D01*
X63041243Y-55430602D01*
G37*
G36*
X66941243Y-55430602D02*
G01*
X66977903Y-55455097D01*
X67002398Y-55491757D01*
X67011000Y-55535000D01*
X67011000Y-55685000D01*
X67002398Y-55728243D01*
X66977903Y-55764903D01*
X66941243Y-55789398D01*
X66898000Y-55798000D01*
X66198000Y-55798000D01*
X66154757Y-55789398D01*
X66118097Y-55764903D01*
X66093602Y-55728243D01*
X66085000Y-55685000D01*
X66085000Y-55535000D01*
X66093602Y-55491757D01*
X66118097Y-55455097D01*
X66154757Y-55430602D01*
X66198000Y-55422000D01*
X66898000Y-55422000D01*
X66941243Y-55430602D01*
G37*
G36*
X68323204Y-54819169D02*
G01*
X68379329Y-54856671D01*
X68416831Y-54912796D01*
X68430000Y-54979000D01*
X68430000Y-55249000D01*
X68416831Y-55315204D01*
X68379329Y-55371329D01*
X68323204Y-55408831D01*
X68257000Y-55422000D01*
X67887000Y-55422000D01*
X67820796Y-55408831D01*
X67764671Y-55371329D01*
X67727169Y-55315204D01*
X67714000Y-55249000D01*
X67714000Y-54979000D01*
X67727169Y-54912796D01*
X67764671Y-54856671D01*
X67820796Y-54819169D01*
X67887000Y-54806000D01*
X68257000Y-54806000D01*
X68323204Y-54819169D01*
G37*
G36*
X63041243Y-54930602D02*
G01*
X63077903Y-54955097D01*
X63102398Y-54991757D01*
X63111000Y-55035000D01*
X63111000Y-55185000D01*
X63102398Y-55228243D01*
X63077903Y-55264903D01*
X63041243Y-55289398D01*
X62998000Y-55298000D01*
X62298000Y-55298000D01*
X62254757Y-55289398D01*
X62218097Y-55264903D01*
X62193602Y-55228243D01*
X62185000Y-55185000D01*
X62185000Y-55035000D01*
X62193602Y-54991757D01*
X62218097Y-54955097D01*
X62254757Y-54930602D01*
X62298000Y-54922000D01*
X62998000Y-54922000D01*
X63041243Y-54930602D01*
G37*
G36*
X66941243Y-54930602D02*
G01*
X66977903Y-54955097D01*
X67002398Y-54991757D01*
X67011000Y-55035000D01*
X67011000Y-55185000D01*
X67002398Y-55228243D01*
X66977903Y-55264903D01*
X66941243Y-55289398D01*
X66898000Y-55298000D01*
X66198000Y-55298000D01*
X66154757Y-55289398D01*
X66118097Y-55264903D01*
X66093602Y-55228243D01*
X66085000Y-55185000D01*
X66085000Y-55035000D01*
X66093602Y-54991757D01*
X66118097Y-54955097D01*
X66154757Y-54930602D01*
X66198000Y-54922000D01*
X66898000Y-54922000D01*
X66941243Y-54930602D01*
G37*
G36*
X55748944Y-54286311D02*
G01*
X55809936Y-54327064D01*
X55850689Y-54388056D01*
X55865000Y-54460000D01*
X55865000Y-54760000D01*
X55850689Y-54831944D01*
X55809936Y-54892936D01*
X55748944Y-54933689D01*
X55677000Y-54948000D01*
X53977000Y-54948000D01*
X53905056Y-54933689D01*
X53844064Y-54892936D01*
X53803311Y-54831944D01*
X53789000Y-54760000D01*
X53789000Y-54460000D01*
X53803311Y-54388056D01*
X53844064Y-54327064D01*
X53905056Y-54286311D01*
X53977000Y-54272000D01*
X55677000Y-54272000D01*
X55748944Y-54286311D01*
G37*
G36*
X60748944Y-54286311D02*
G01*
X60809936Y-54327064D01*
X60850689Y-54388056D01*
X60865000Y-54460000D01*
X60865000Y-54760000D01*
X60850689Y-54831944D01*
X60809936Y-54892936D01*
X60748944Y-54933689D01*
X60677000Y-54948000D01*
X58977000Y-54948000D01*
X58905056Y-54933689D01*
X58844064Y-54892936D01*
X58803311Y-54831944D01*
X58789000Y-54760000D01*
X58789000Y-54460000D01*
X58803311Y-54388056D01*
X58844064Y-54327064D01*
X58905056Y-54286311D01*
X58977000Y-54272000D01*
X60677000Y-54272000D01*
X60748944Y-54286311D01*
G37*
G36*
X63041243Y-54430602D02*
G01*
X63077903Y-54455097D01*
X63102398Y-54491757D01*
X63111000Y-54535000D01*
X63111000Y-54685000D01*
X63102398Y-54728243D01*
X63077903Y-54764903D01*
X63041243Y-54789398D01*
X62998000Y-54798000D01*
X62298000Y-54798000D01*
X62254757Y-54789398D01*
X62218097Y-54764903D01*
X62193602Y-54728243D01*
X62185000Y-54685000D01*
X62185000Y-54535000D01*
X62193602Y-54491757D01*
X62218097Y-54455097D01*
X62254757Y-54430602D01*
X62298000Y-54422000D01*
X62998000Y-54422000D01*
X63041243Y-54430602D01*
G37*
G36*
X66941243Y-54430602D02*
G01*
X66977903Y-54455097D01*
X67002398Y-54491757D01*
X67011000Y-54535000D01*
X67011000Y-54685000D01*
X67002398Y-54728243D01*
X66977903Y-54764903D01*
X66941243Y-54789398D01*
X66898000Y-54798000D01*
X66198000Y-54798000D01*
X66154757Y-54789398D01*
X66118097Y-54764903D01*
X66093602Y-54728243D01*
X66085000Y-54685000D01*
X66085000Y-54535000D01*
X66093602Y-54491757D01*
X66118097Y-54455097D01*
X66154757Y-54430602D01*
X66198000Y-54422000D01*
X66898000Y-54422000D01*
X66941243Y-54430602D01*
G37*
G36*
X52090407Y-53003462D02*
G01*
X52260000Y-53078969D01*
X52410188Y-53188087D01*
X52534407Y-53326047D01*
X52627228Y-53486818D01*
X52684595Y-53663374D01*
X52704000Y-53848000D01*
X52684595Y-54032626D01*
X52627228Y-54209182D01*
X52534407Y-54369953D01*
X52410188Y-54507913D01*
X52260000Y-54617031D01*
X52090407Y-54692538D01*
X51908821Y-54731135D01*
X51723179Y-54731135D01*
X51541593Y-54692538D01*
X51372000Y-54617031D01*
X51221812Y-54507913D01*
X51097593Y-54369953D01*
X51004772Y-54209182D01*
X50947405Y-54032626D01*
X50928000Y-53848000D01*
X50947405Y-53663374D01*
X51004772Y-53486818D01*
X51097593Y-53326047D01*
X51221812Y-53188087D01*
X51372000Y-53078969D01*
X51541593Y-53003462D01*
X51723179Y-52964865D01*
X51908821Y-52964865D01*
X52090407Y-53003462D01*
G37*
G36*
X69870407Y-53003462D02*
G01*
X70040000Y-53078969D01*
X70190188Y-53188087D01*
X70314407Y-53326047D01*
X70407228Y-53486818D01*
X70464595Y-53663374D01*
X70484000Y-53848000D01*
X70464595Y-54032626D01*
X70407228Y-54209182D01*
X70314407Y-54369953D01*
X70190188Y-54507913D01*
X70040000Y-54617031D01*
X69870407Y-54692538D01*
X69688821Y-54731135D01*
X69503179Y-54731135D01*
X69321593Y-54692538D01*
X69152000Y-54617031D01*
X69001812Y-54507913D01*
X68877593Y-54369953D01*
X68784772Y-54209182D01*
X68727405Y-54032626D01*
X68708000Y-53848000D01*
X68727405Y-53663374D01*
X68784772Y-53486818D01*
X68877593Y-53326047D01*
X69001812Y-53188087D01*
X69152000Y-53078969D01*
X69321593Y-53003462D01*
X69503179Y-52964865D01*
X69688821Y-52964865D01*
X69870407Y-53003462D01*
G37*
G36*
X63041243Y-53930602D02*
G01*
X63077903Y-53955097D01*
X63102398Y-53991757D01*
X63111000Y-54035000D01*
X63111000Y-54185000D01*
X63102398Y-54228243D01*
X63077903Y-54264903D01*
X63041243Y-54289398D01*
X62998000Y-54298000D01*
X62298000Y-54298000D01*
X62254757Y-54289398D01*
X62218097Y-54264903D01*
X62193602Y-54228243D01*
X62185000Y-54185000D01*
X62185000Y-54035000D01*
X62193602Y-53991757D01*
X62218097Y-53955097D01*
X62254757Y-53930602D01*
X62298000Y-53922000D01*
X62998000Y-53922000D01*
X63041243Y-53930602D01*
G37*
G36*
X66941243Y-53930602D02*
G01*
X66977903Y-53955097D01*
X67002398Y-53991757D01*
X67011000Y-54035000D01*
X67011000Y-54185000D01*
X67002398Y-54228243D01*
X66977903Y-54264903D01*
X66941243Y-54289398D01*
X66898000Y-54298000D01*
X66198000Y-54298000D01*
X66154757Y-54289398D01*
X66118097Y-54264903D01*
X66093602Y-54228243D01*
X66085000Y-54185000D01*
X66085000Y-54035000D01*
X66093602Y-53991757D01*
X66118097Y-53955097D01*
X66154757Y-53930602D01*
X66198000Y-53922000D01*
X66898000Y-53922000D01*
X66941243Y-53930602D01*
G37*
G36*
X68323204Y-53557169D02*
G01*
X68379329Y-53594671D01*
X68416831Y-53650796D01*
X68430000Y-53717000D01*
X68430000Y-53987000D01*
X68416831Y-54053204D01*
X68379329Y-54109329D01*
X68323204Y-54146831D01*
X68257000Y-54160000D01*
X67887000Y-54160000D01*
X67820796Y-54146831D01*
X67764671Y-54109329D01*
X67727169Y-54053204D01*
X67714000Y-53987000D01*
X67714000Y-53717000D01*
X67727169Y-53650796D01*
X67764671Y-53594671D01*
X67820796Y-53557169D01*
X67887000Y-53544000D01*
X68257000Y-53544000D01*
X68323204Y-53557169D01*
G37*
G36*
X63466243Y-52955602D02*
G01*
X63502903Y-52980097D01*
X63527398Y-53016757D01*
X63536000Y-53060000D01*
X63536000Y-53760000D01*
X63527398Y-53803243D01*
X63502903Y-53839903D01*
X63466243Y-53864398D01*
X63423000Y-53873000D01*
X63273000Y-53873000D01*
X63229757Y-53864398D01*
X63193097Y-53839903D01*
X63168602Y-53803243D01*
X63160000Y-53760000D01*
X63160000Y-53060000D01*
X63168602Y-53016757D01*
X63193097Y-52980097D01*
X63229757Y-52955602D01*
X63273000Y-52947000D01*
X63423000Y-52947000D01*
X63466243Y-52955602D01*
G37*
G36*
X63966243Y-52955602D02*
G01*
X64002903Y-52980097D01*
X64027398Y-53016757D01*
X64036000Y-53060000D01*
X64036000Y-53760000D01*
X64027398Y-53803243D01*
X64002903Y-53839903D01*
X63966243Y-53864398D01*
X63923000Y-53873000D01*
X63773000Y-53873000D01*
X63729757Y-53864398D01*
X63693097Y-53839903D01*
X63668602Y-53803243D01*
X63660000Y-53760000D01*
X63660000Y-53060000D01*
X63668602Y-53016757D01*
X63693097Y-52980097D01*
X63729757Y-52955602D01*
X63773000Y-52947000D01*
X63923000Y-52947000D01*
X63966243Y-52955602D01*
G37*
G36*
X64466243Y-52955602D02*
G01*
X64502903Y-52980097D01*
X64527398Y-53016757D01*
X64536000Y-53060000D01*
X64536000Y-53760000D01*
X64527398Y-53803243D01*
X64502903Y-53839903D01*
X64466243Y-53864398D01*
X64423000Y-53873000D01*
X64273000Y-53873000D01*
X64229757Y-53864398D01*
X64193097Y-53839903D01*
X64168602Y-53803243D01*
X64160000Y-53760000D01*
X64160000Y-53060000D01*
X64168602Y-53016757D01*
X64193097Y-52980097D01*
X64229757Y-52955602D01*
X64273000Y-52947000D01*
X64423000Y-52947000D01*
X64466243Y-52955602D01*
G37*
G36*
X64966243Y-52955602D02*
G01*
X65002903Y-52980097D01*
X65027398Y-53016757D01*
X65036000Y-53060000D01*
X65036000Y-53760000D01*
X65027398Y-53803243D01*
X65002903Y-53839903D01*
X64966243Y-53864398D01*
X64923000Y-53873000D01*
X64773000Y-53873000D01*
X64729757Y-53864398D01*
X64693097Y-53839903D01*
X64668602Y-53803243D01*
X64660000Y-53760000D01*
X64660000Y-53060000D01*
X64668602Y-53016757D01*
X64693097Y-52980097D01*
X64729757Y-52955602D01*
X64773000Y-52947000D01*
X64923000Y-52947000D01*
X64966243Y-52955602D01*
G37*
G36*
X65466243Y-52955602D02*
G01*
X65502903Y-52980097D01*
X65527398Y-53016757D01*
X65536000Y-53060000D01*
X65536000Y-53760000D01*
X65527398Y-53803243D01*
X65502903Y-53839903D01*
X65466243Y-53864398D01*
X65423000Y-53873000D01*
X65273000Y-53873000D01*
X65229757Y-53864398D01*
X65193097Y-53839903D01*
X65168602Y-53803243D01*
X65160000Y-53760000D01*
X65160000Y-53060000D01*
X65168602Y-53016757D01*
X65193097Y-52980097D01*
X65229757Y-52955602D01*
X65273000Y-52947000D01*
X65423000Y-52947000D01*
X65466243Y-52955602D01*
G37*
G36*
X65966243Y-52955602D02*
G01*
X66002903Y-52980097D01*
X66027398Y-53016757D01*
X66036000Y-53060000D01*
X66036000Y-53760000D01*
X66027398Y-53803243D01*
X66002903Y-53839903D01*
X65966243Y-53864398D01*
X65923000Y-53873000D01*
X65773000Y-53873000D01*
X65729757Y-53864398D01*
X65693097Y-53839903D01*
X65668602Y-53803243D01*
X65660000Y-53760000D01*
X65660000Y-53060000D01*
X65668602Y-53016757D01*
X65693097Y-52980097D01*
X65729757Y-52955602D01*
X65773000Y-52947000D01*
X65923000Y-52947000D01*
X65966243Y-52955602D01*
G37*
G36*
X55748944Y-53016311D02*
G01*
X55809936Y-53057064D01*
X55850689Y-53118056D01*
X55865000Y-53190000D01*
X55865000Y-53490000D01*
X55850689Y-53561944D01*
X55809936Y-53622936D01*
X55748944Y-53663689D01*
X55677000Y-53678000D01*
X53977000Y-53678000D01*
X53905056Y-53663689D01*
X53844064Y-53622936D01*
X53803311Y-53561944D01*
X53789000Y-53490000D01*
X53789000Y-53190000D01*
X53803311Y-53118056D01*
X53844064Y-53057064D01*
X53905056Y-53016311D01*
X53977000Y-53002000D01*
X55677000Y-53002000D01*
X55748944Y-53016311D01*
G37*
G36*
X60748944Y-53016311D02*
G01*
X60809936Y-53057064D01*
X60850689Y-53118056D01*
X60865000Y-53190000D01*
X60865000Y-53490000D01*
X60850689Y-53561944D01*
X60809936Y-53622936D01*
X60748944Y-53663689D01*
X60677000Y-53678000D01*
X58977000Y-53678000D01*
X58905056Y-53663689D01*
X58844064Y-53622936D01*
X58803311Y-53561944D01*
X58789000Y-53490000D01*
X58789000Y-53190000D01*
X58803311Y-53118056D01*
X58844064Y-53057064D01*
X58905056Y-53016311D01*
X58977000Y-53002000D01*
X60677000Y-53002000D01*
X60748944Y-53016311D01*
G37*
G36*
X68323204Y-52537169D02*
G01*
X68379329Y-52574671D01*
X68416831Y-52630796D01*
X68430000Y-52697000D01*
X68430000Y-52967000D01*
X68416831Y-53033204D01*
X68379329Y-53089329D01*
X68323204Y-53126831D01*
X68257000Y-53140000D01*
X67887000Y-53140000D01*
X67820796Y-53126831D01*
X67764671Y-53089329D01*
X67727169Y-53033204D01*
X67714000Y-52967000D01*
X67714000Y-52697000D01*
X67727169Y-52630796D01*
X67764671Y-52574671D01*
X67820796Y-52537169D01*
X67887000Y-52524000D01*
X68257000Y-52524000D01*
X68323204Y-52537169D01*
G37*
G36*
X55748944Y-51746311D02*
G01*
X55809936Y-51787064D01*
X55850689Y-51848056D01*
X55865000Y-51920000D01*
X55865000Y-52220000D01*
X55850689Y-52291944D01*
X55809936Y-52352936D01*
X55748944Y-52393689D01*
X55677000Y-52408000D01*
X53977000Y-52408000D01*
X53905056Y-52393689D01*
X53844064Y-52352936D01*
X53803311Y-52291944D01*
X53789000Y-52220000D01*
X53789000Y-51920000D01*
X53803311Y-51848056D01*
X53844064Y-51787064D01*
X53905056Y-51746311D01*
X53977000Y-51732000D01*
X55677000Y-51732000D01*
X55748944Y-51746311D01*
G37*
G36*
X60748944Y-51746311D02*
G01*
X60809936Y-51787064D01*
X60850689Y-51848056D01*
X60865000Y-51920000D01*
X60865000Y-52220000D01*
X60850689Y-52291944D01*
X60809936Y-52352936D01*
X60748944Y-52393689D01*
X60677000Y-52408000D01*
X58977000Y-52408000D01*
X58905056Y-52393689D01*
X58844064Y-52352936D01*
X58803311Y-52291944D01*
X58789000Y-52220000D01*
X58789000Y-51920000D01*
X58803311Y-51848056D01*
X58844064Y-51787064D01*
X58905056Y-51746311D01*
X58977000Y-51732000D01*
X60677000Y-51732000D01*
X60748944Y-51746311D01*
G37*
G36*
X52090407Y-50463462D02*
G01*
X52260000Y-50538969D01*
X52410188Y-50648087D01*
X52534407Y-50786047D01*
X52627228Y-50946818D01*
X52684595Y-51123374D01*
X52704000Y-51308000D01*
X52684595Y-51492626D01*
X52627228Y-51669182D01*
X52534407Y-51829953D01*
X52410188Y-51967913D01*
X52260000Y-52077031D01*
X52090407Y-52152538D01*
X51908821Y-52191135D01*
X51723179Y-52191135D01*
X51541593Y-52152538D01*
X51372000Y-52077031D01*
X51221812Y-51967913D01*
X51097593Y-51829953D01*
X51004772Y-51669182D01*
X50947405Y-51492626D01*
X50928000Y-51308000D01*
X50947405Y-51123374D01*
X51004772Y-50946818D01*
X51097593Y-50786047D01*
X51221812Y-50648087D01*
X51372000Y-50538969D01*
X51541593Y-50463462D01*
X51723179Y-50424865D01*
X51908821Y-50424865D01*
X52090407Y-50463462D01*
G37*
G36*
X69870407Y-50463462D02*
G01*
X70040000Y-50538969D01*
X70190188Y-50648087D01*
X70314407Y-50786047D01*
X70407228Y-50946818D01*
X70464595Y-51123374D01*
X70484000Y-51308000D01*
X70464595Y-51492626D01*
X70407228Y-51669182D01*
X70314407Y-51829953D01*
X70190188Y-51967913D01*
X70040000Y-52077031D01*
X69870407Y-52152538D01*
X69688821Y-52191135D01*
X69503179Y-52191135D01*
X69321593Y-52152538D01*
X69152000Y-52077031D01*
X69001812Y-51967913D01*
X68877593Y-51829953D01*
X68784772Y-51669182D01*
X68727405Y-51492626D01*
X68708000Y-51308000D01*
X68727405Y-51123374D01*
X68784772Y-50946818D01*
X68877593Y-50786047D01*
X69001812Y-50648087D01*
X69152000Y-50538969D01*
X69321593Y-50463462D01*
X69503179Y-50424865D01*
X69688821Y-50424865D01*
X69870407Y-50463462D01*
G37*
G36*
X62214118Y-51216549D02*
G01*
X62271865Y-51255135D01*
X62310451Y-51312882D01*
X62324000Y-51381000D01*
X62324000Y-51661000D01*
X62310451Y-51729118D01*
X62271865Y-51786865D01*
X62214118Y-51825451D01*
X62146000Y-51839000D01*
X61806000Y-51839000D01*
X61737882Y-51825451D01*
X61680135Y-51786865D01*
X61641549Y-51729118D01*
X61628000Y-51661000D01*
X61628000Y-51381000D01*
X61641549Y-51312882D01*
X61680135Y-51255135D01*
X61737882Y-51216549D01*
X61806000Y-51203000D01*
X62146000Y-51203000D01*
X62214118Y-51216549D01*
G37*
G36*
X55748944Y-50476311D02*
G01*
X55809936Y-50517064D01*
X55850689Y-50578056D01*
X55865000Y-50650000D01*
X55865000Y-50950000D01*
X55850689Y-51021944D01*
X55809936Y-51082936D01*
X55748944Y-51123689D01*
X55677000Y-51138000D01*
X53977000Y-51138000D01*
X53905056Y-51123689D01*
X53844064Y-51082936D01*
X53803311Y-51021944D01*
X53789000Y-50950000D01*
X53789000Y-50650000D01*
X53803311Y-50578056D01*
X53844064Y-50517064D01*
X53905056Y-50476311D01*
X53977000Y-50462000D01*
X55677000Y-50462000D01*
X55748944Y-50476311D01*
G37*
G36*
X60748944Y-50476311D02*
G01*
X60809936Y-50517064D01*
X60850689Y-50578056D01*
X60865000Y-50650000D01*
X60865000Y-50950000D01*
X60850689Y-51021944D01*
X60809936Y-51082936D01*
X60748944Y-51123689D01*
X60677000Y-51138000D01*
X58977000Y-51138000D01*
X58905056Y-51123689D01*
X58844064Y-51082936D01*
X58803311Y-51021944D01*
X58789000Y-50950000D01*
X58789000Y-50650000D01*
X58803311Y-50578056D01*
X58844064Y-50517064D01*
X58905056Y-50476311D01*
X58977000Y-50462000D01*
X60677000Y-50462000D01*
X60748944Y-50476311D01*
G37*
G36*
X62214118Y-50256549D02*
G01*
X62271865Y-50295135D01*
X62310451Y-50352882D01*
X62324000Y-50421000D01*
X62324000Y-50701000D01*
X62310451Y-50769118D01*
X62271865Y-50826865D01*
X62214118Y-50865451D01*
X62146000Y-50879000D01*
X61806000Y-50879000D01*
X61737882Y-50865451D01*
X61680135Y-50826865D01*
X61641549Y-50769118D01*
X61628000Y-50701000D01*
X61628000Y-50421000D01*
X61641549Y-50352882D01*
X61680135Y-50295135D01*
X61737882Y-50256549D01*
X61806000Y-50243000D01*
X62146000Y-50243000D01*
X62214118Y-50256549D01*
G37*
G36*
X55748944Y-49206311D02*
G01*
X55809936Y-49247064D01*
X55850689Y-49308056D01*
X55865000Y-49380000D01*
X55865000Y-49680000D01*
X55850689Y-49751944D01*
X55809936Y-49812936D01*
X55748944Y-49853689D01*
X55677000Y-49868000D01*
X53977000Y-49868000D01*
X53905056Y-49853689D01*
X53844064Y-49812936D01*
X53803311Y-49751944D01*
X53789000Y-49680000D01*
X53789000Y-49380000D01*
X53803311Y-49308056D01*
X53844064Y-49247064D01*
X53905056Y-49206311D01*
X53977000Y-49192000D01*
X55677000Y-49192000D01*
X55748944Y-49206311D01*
G37*
G36*
X60748944Y-49206311D02*
G01*
X60809936Y-49247064D01*
X60850689Y-49308056D01*
X60865000Y-49380000D01*
X60865000Y-49680000D01*
X60850689Y-49751944D01*
X60809936Y-49812936D01*
X60748944Y-49853689D01*
X60677000Y-49868000D01*
X58977000Y-49868000D01*
X58905056Y-49853689D01*
X58844064Y-49812936D01*
X58803311Y-49751944D01*
X58789000Y-49680000D01*
X58789000Y-49380000D01*
X58803311Y-49308056D01*
X58844064Y-49247064D01*
X58905056Y-49206311D01*
X58977000Y-49192000D01*
X60677000Y-49192000D01*
X60748944Y-49206311D01*
G37*
G36*
X52090407Y-47923462D02*
G01*
X52260000Y-47998969D01*
X52410188Y-48108087D01*
X52534407Y-48246047D01*
X52627228Y-48406818D01*
X52684595Y-48583374D01*
X52704000Y-48768000D01*
X52684595Y-48952626D01*
X52627228Y-49129182D01*
X52534407Y-49289953D01*
X52410188Y-49427913D01*
X52260000Y-49537031D01*
X52090407Y-49612538D01*
X51908821Y-49651135D01*
X51723179Y-49651135D01*
X51541593Y-49612538D01*
X51372000Y-49537031D01*
X51221812Y-49427913D01*
X51097593Y-49289953D01*
X51004772Y-49129182D01*
X50947405Y-48952626D01*
X50928000Y-48768000D01*
X50947405Y-48583374D01*
X51004772Y-48406818D01*
X51097593Y-48246047D01*
X51221812Y-48108087D01*
X51372000Y-47998969D01*
X51541593Y-47923462D01*
X51723179Y-47884865D01*
X51908821Y-47884865D01*
X52090407Y-47923462D01*
G37*
G36*
X69870407Y-47923462D02*
G01*
X70040000Y-47998969D01*
X70190188Y-48108087D01*
X70314407Y-48246047D01*
X70407228Y-48406818D01*
X70464595Y-48583374D01*
X70484000Y-48768000D01*
X70464595Y-48952626D01*
X70407228Y-49129182D01*
X70314407Y-49289953D01*
X70190188Y-49427913D01*
X70040000Y-49537031D01*
X69870407Y-49612538D01*
X69688821Y-49651135D01*
X69503179Y-49651135D01*
X69321593Y-49612538D01*
X69152000Y-49537031D01*
X69001812Y-49427913D01*
X68877593Y-49289953D01*
X68784772Y-49129182D01*
X68727405Y-48952626D01*
X68708000Y-48768000D01*
X68727405Y-48583374D01*
X68784772Y-48406818D01*
X68877593Y-48246047D01*
X69001812Y-48108087D01*
X69152000Y-47998969D01*
X69321593Y-47923462D01*
X69503179Y-47884865D01*
X69688821Y-47884865D01*
X69870407Y-47923462D01*
G37*
G36*
X62214118Y-48661549D02*
G01*
X62271865Y-48700135D01*
X62310451Y-48757882D01*
X62324000Y-48826000D01*
X62324000Y-49106000D01*
X62310451Y-49174118D01*
X62271865Y-49231865D01*
X62214118Y-49270451D01*
X62146000Y-49284000D01*
X61806000Y-49284000D01*
X61737882Y-49270451D01*
X61680135Y-49231865D01*
X61641549Y-49174118D01*
X61628000Y-49106000D01*
X61628000Y-48826000D01*
X61641549Y-48757882D01*
X61680135Y-48700135D01*
X61737882Y-48661549D01*
X61806000Y-48648000D01*
X62146000Y-48648000D01*
X62214118Y-48661549D01*
G37*
G36*
X55748944Y-47936311D02*
G01*
X55809936Y-47977064D01*
X55850689Y-48038056D01*
X55865000Y-48110000D01*
X55865000Y-48410000D01*
X55850689Y-48481944D01*
X55809936Y-48542936D01*
X55748944Y-48583689D01*
X55677000Y-48598000D01*
X53977000Y-48598000D01*
X53905056Y-48583689D01*
X53844064Y-48542936D01*
X53803311Y-48481944D01*
X53789000Y-48410000D01*
X53789000Y-48110000D01*
X53803311Y-48038056D01*
X53844064Y-47977064D01*
X53905056Y-47936311D01*
X53977000Y-47922000D01*
X55677000Y-47922000D01*
X55748944Y-47936311D01*
G37*
G36*
X60748944Y-47936311D02*
G01*
X60809936Y-47977064D01*
X60850689Y-48038056D01*
X60865000Y-48110000D01*
X60865000Y-48410000D01*
X60850689Y-48481944D01*
X60809936Y-48542936D01*
X60748944Y-48583689D01*
X60677000Y-48598000D01*
X58977000Y-48598000D01*
X58905056Y-48583689D01*
X58844064Y-48542936D01*
X58803311Y-48481944D01*
X58789000Y-48410000D01*
X58789000Y-48110000D01*
X58803311Y-48038056D01*
X58844064Y-47977064D01*
X58905056Y-47936311D01*
X58977000Y-47922000D01*
X60677000Y-47922000D01*
X60748944Y-47936311D01*
G37*
G36*
X62214118Y-47701549D02*
G01*
X62271865Y-47740135D01*
X62310451Y-47797882D01*
X62324000Y-47866000D01*
X62324000Y-48146000D01*
X62310451Y-48214118D01*
X62271865Y-48271865D01*
X62214118Y-48310451D01*
X62146000Y-48324000D01*
X61806000Y-48324000D01*
X61737882Y-48310451D01*
X61680135Y-48271865D01*
X61641549Y-48214118D01*
X61628000Y-48146000D01*
X61628000Y-47866000D01*
X61641549Y-47797882D01*
X61680135Y-47740135D01*
X61737882Y-47701549D01*
X61806000Y-47688000D01*
X62146000Y-47688000D01*
X62214118Y-47701549D01*
G37*
G36*
X55748944Y-46666311D02*
G01*
X55809936Y-46707064D01*
X55850689Y-46768056D01*
X55865000Y-46840000D01*
X55865000Y-47140000D01*
X55850689Y-47211944D01*
X55809936Y-47272936D01*
X55748944Y-47313689D01*
X55677000Y-47328000D01*
X53977000Y-47328000D01*
X53905056Y-47313689D01*
X53844064Y-47272936D01*
X53803311Y-47211944D01*
X53789000Y-47140000D01*
X53789000Y-46840000D01*
X53803311Y-46768056D01*
X53844064Y-46707064D01*
X53905056Y-46666311D01*
X53977000Y-46652000D01*
X55677000Y-46652000D01*
X55748944Y-46666311D01*
G37*
G36*
X60748944Y-46666311D02*
G01*
X60809936Y-46707064D01*
X60850689Y-46768056D01*
X60865000Y-46840000D01*
X60865000Y-47140000D01*
X60850689Y-47211944D01*
X60809936Y-47272936D01*
X60748944Y-47313689D01*
X60677000Y-47328000D01*
X58977000Y-47328000D01*
X58905056Y-47313689D01*
X58844064Y-47272936D01*
X58803311Y-47211944D01*
X58789000Y-47140000D01*
X58789000Y-46840000D01*
X58803311Y-46768056D01*
X58844064Y-46707064D01*
X58905056Y-46666311D01*
X58977000Y-46652000D01*
X60677000Y-46652000D01*
X60748944Y-46666311D01*
G37*
G36*
X52090407Y-45383462D02*
G01*
X52260000Y-45458969D01*
X52410188Y-45568087D01*
X52534407Y-45706047D01*
X52627228Y-45866818D01*
X52684595Y-46043374D01*
X52704000Y-46228000D01*
X52684595Y-46412626D01*
X52627228Y-46589182D01*
X52534407Y-46749953D01*
X52410188Y-46887913D01*
X52260000Y-46997031D01*
X52090407Y-47072538D01*
X51908821Y-47111135D01*
X51723179Y-47111135D01*
X51541593Y-47072538D01*
X51372000Y-46997031D01*
X51221812Y-46887913D01*
X51097593Y-46749953D01*
X51004772Y-46589182D01*
X50947405Y-46412626D01*
X50928000Y-46228000D01*
X50947405Y-46043374D01*
X51004772Y-45866818D01*
X51097593Y-45706047D01*
X51221812Y-45568087D01*
X51372000Y-45458969D01*
X51541593Y-45383462D01*
X51723179Y-45344865D01*
X51908821Y-45344865D01*
X52090407Y-45383462D01*
G37*
G36*
X69870407Y-45383462D02*
G01*
X70040000Y-45458969D01*
X70190188Y-45568087D01*
X70314407Y-45706047D01*
X70407228Y-45866818D01*
X70464595Y-46043374D01*
X70484000Y-46228000D01*
X70464595Y-46412626D01*
X70407228Y-46589182D01*
X70314407Y-46749953D01*
X70190188Y-46887913D01*
X70040000Y-46997031D01*
X69870407Y-47072538D01*
X69688821Y-47111135D01*
X69503179Y-47111135D01*
X69321593Y-47072538D01*
X69152000Y-46997031D01*
X69001812Y-46887913D01*
X68877593Y-46749953D01*
X68784772Y-46589182D01*
X68727405Y-46412626D01*
X68708000Y-46228000D01*
X68727405Y-46043374D01*
X68784772Y-45866818D01*
X68877593Y-45706047D01*
X69001812Y-45568087D01*
X69152000Y-45458969D01*
X69321593Y-45383462D01*
X69503179Y-45344865D01*
X69688821Y-45344865D01*
X69870407Y-45383462D01*
G37*
G36*
X60143204Y-45375169D02*
G01*
X60199329Y-45412671D01*
X60236831Y-45468796D01*
X60250000Y-45535000D01*
X60250000Y-45905000D01*
X60236831Y-45971204D01*
X60199329Y-46027329D01*
X60143204Y-46064831D01*
X60077000Y-46078000D01*
X59807000Y-46078000D01*
X59740796Y-46064831D01*
X59684671Y-46027329D01*
X59647169Y-45971204D01*
X59634000Y-45905000D01*
X59634000Y-45535000D01*
X59647169Y-45468796D01*
X59684671Y-45412671D01*
X59740796Y-45375169D01*
X59807000Y-45362000D01*
X60077000Y-45362000D01*
X60143204Y-45375169D01*
G37*
G36*
X61163204Y-45375169D02*
G01*
X61219329Y-45412671D01*
X61256831Y-45468796D01*
X61270000Y-45535000D01*
X61270000Y-45905000D01*
X61256831Y-45971204D01*
X61219329Y-46027329D01*
X61163204Y-46064831D01*
X61097000Y-46078000D01*
X60827000Y-46078000D01*
X60760796Y-46064831D01*
X60704671Y-46027329D01*
X60667169Y-45971204D01*
X60654000Y-45905000D01*
X60654000Y-45535000D01*
X60667169Y-45468796D01*
X60704671Y-45412671D01*
X60760796Y-45375169D01*
X60827000Y-45362000D01*
X61097000Y-45362000D01*
X61163204Y-45375169D01*
G37*
G36*
X62438118Y-45385549D02*
G01*
X62495865Y-45424135D01*
X62534451Y-45481882D01*
X62548000Y-45550000D01*
X62548000Y-45890000D01*
X62534451Y-45958118D01*
X62495865Y-46015865D01*
X62438118Y-46054451D01*
X62370000Y-46068000D01*
X62090000Y-46068000D01*
X62021882Y-46054451D01*
X61964135Y-46015865D01*
X61925549Y-45958118D01*
X61912000Y-45890000D01*
X61912000Y-45550000D01*
X61925549Y-45481882D01*
X61964135Y-45424135D01*
X62021882Y-45385549D01*
X62090000Y-45372000D01*
X62370000Y-45372000D01*
X62438118Y-45385549D01*
G37*
G36*
X63398118Y-45385549D02*
G01*
X63455865Y-45424135D01*
X63494451Y-45481882D01*
X63508000Y-45550000D01*
X63508000Y-45890000D01*
X63494451Y-45958118D01*
X63455865Y-46015865D01*
X63398118Y-46054451D01*
X63330000Y-46068000D01*
X63050000Y-46068000D01*
X62981882Y-46054451D01*
X62924135Y-46015865D01*
X62885549Y-45958118D01*
X62872000Y-45890000D01*
X62872000Y-45550000D01*
X62885549Y-45481882D01*
X62924135Y-45424135D01*
X62981882Y-45385549D01*
X63050000Y-45372000D01*
X63330000Y-45372000D01*
X63398118Y-45385549D01*
G37*
G36*
X58925204Y-45429169D02*
G01*
X58981329Y-45466671D01*
X59018831Y-45522796D01*
X59032000Y-45589000D01*
X59032000Y-45859000D01*
X59018831Y-45925204D01*
X58981329Y-45981329D01*
X58925204Y-46018831D01*
X58859000Y-46032000D01*
X58489000Y-46032000D01*
X58422796Y-46018831D01*
X58366671Y-45981329D01*
X58329169Y-45925204D01*
X58316000Y-45859000D01*
X58316000Y-45589000D01*
X58329169Y-45522796D01*
X58366671Y-45466671D01*
X58422796Y-45429169D01*
X58489000Y-45416000D01*
X58859000Y-45416000D01*
X58925204Y-45429169D01*
G37*
G36*
X62431204Y-44359169D02*
G01*
X62487329Y-44396671D01*
X62524831Y-44452796D01*
X62538000Y-44519000D01*
X62538000Y-44889000D01*
X62524831Y-44955204D01*
X62487329Y-45011329D01*
X62431204Y-45048831D01*
X62365000Y-45062000D01*
X62095000Y-45062000D01*
X62028796Y-45048831D01*
X61972671Y-45011329D01*
X61935169Y-44955204D01*
X61922000Y-44889000D01*
X61922000Y-44519000D01*
X61935169Y-44452796D01*
X61972671Y-44396671D01*
X62028796Y-44359169D01*
X62095000Y-44346000D01*
X62365000Y-44346000D01*
X62431204Y-44359169D01*
G37*
G36*
X63451204Y-44359169D02*
G01*
X63507329Y-44396671D01*
X63544831Y-44452796D01*
X63558000Y-44519000D01*
X63558000Y-44889000D01*
X63544831Y-44955204D01*
X63507329Y-45011329D01*
X63451204Y-45048831D01*
X63385000Y-45062000D01*
X63115000Y-45062000D01*
X63048796Y-45048831D01*
X62992671Y-45011329D01*
X62955169Y-44955204D01*
X62942000Y-44889000D01*
X62942000Y-44519000D01*
X62955169Y-44452796D01*
X62992671Y-44396671D01*
X63048796Y-44359169D01*
X63115000Y-44346000D01*
X63385000Y-44346000D01*
X63451204Y-44359169D01*
G37*
G36*
X64463204Y-44359169D02*
G01*
X64519329Y-44396671D01*
X64556831Y-44452796D01*
X64570000Y-44519000D01*
X64570000Y-44889000D01*
X64556831Y-44955204D01*
X64519329Y-45011329D01*
X64463204Y-45048831D01*
X64397000Y-45062000D01*
X64127000Y-45062000D01*
X64060796Y-45048831D01*
X64004671Y-45011329D01*
X63967169Y-44955204D01*
X63954000Y-44889000D01*
X63954000Y-44519000D01*
X63967169Y-44452796D01*
X64004671Y-44396671D01*
X64060796Y-44359169D01*
X64127000Y-44346000D01*
X64397000Y-44346000D01*
X64463204Y-44359169D01*
G37*
G36*
X65483204Y-44359169D02*
G01*
X65539329Y-44396671D01*
X65576831Y-44452796D01*
X65590000Y-44519000D01*
X65590000Y-44889000D01*
X65576831Y-44955204D01*
X65539329Y-45011329D01*
X65483204Y-45048831D01*
X65417000Y-45062000D01*
X65147000Y-45062000D01*
X65080796Y-45048831D01*
X65024671Y-45011329D01*
X64987169Y-44955204D01*
X64974000Y-44889000D01*
X64974000Y-44519000D01*
X64987169Y-44452796D01*
X65024671Y-44396671D01*
X65080796Y-44359169D01*
X65147000Y-44346000D01*
X65417000Y-44346000D01*
X65483204Y-44359169D01*
G37*
G36*
X60152118Y-44369549D02*
G01*
X60209865Y-44408135D01*
X60248451Y-44465882D01*
X60262000Y-44534000D01*
X60262000Y-44874000D01*
X60248451Y-44942118D01*
X60209865Y-44999865D01*
X60152118Y-45038451D01*
X60084000Y-45052000D01*
X59804000Y-45052000D01*
X59735882Y-45038451D01*
X59678135Y-44999865D01*
X59639549Y-44942118D01*
X59626000Y-44874000D01*
X59626000Y-44534000D01*
X59639549Y-44465882D01*
X59678135Y-44408135D01*
X59735882Y-44369549D01*
X59804000Y-44356000D01*
X60084000Y-44356000D01*
X60152118Y-44369549D01*
G37*
G36*
X61112118Y-44369549D02*
G01*
X61169865Y-44408135D01*
X61208451Y-44465882D01*
X61222000Y-44534000D01*
X61222000Y-44874000D01*
X61208451Y-44942118D01*
X61169865Y-44999865D01*
X61112118Y-45038451D01*
X61044000Y-45052000D01*
X60764000Y-45052000D01*
X60695882Y-45038451D01*
X60638135Y-44999865D01*
X60599549Y-44942118D01*
X60586000Y-44874000D01*
X60586000Y-44534000D01*
X60599549Y-44465882D01*
X60638135Y-44408135D01*
X60695882Y-44369549D01*
X60764000Y-44356000D01*
X61044000Y-44356000D01*
X61112118Y-44369549D01*
G37*
G36*
X58925204Y-44409169D02*
G01*
X58981329Y-44446671D01*
X59018831Y-44502796D01*
X59032000Y-44569000D01*
X59032000Y-44839000D01*
X59018831Y-44905204D01*
X58981329Y-44961329D01*
X58925204Y-44998831D01*
X58859000Y-45012000D01*
X58489000Y-45012000D01*
X58422796Y-44998831D01*
X58366671Y-44961329D01*
X58329169Y-44905204D01*
X58316000Y-44839000D01*
X58316000Y-44569000D01*
X58329169Y-44502796D01*
X58366671Y-44446671D01*
X58422796Y-44409169D01*
X58489000Y-44396000D01*
X58859000Y-44396000D01*
X58925204Y-44409169D01*
G37*
G36*
X70460542Y-42802893D02*
G01*
X70472870Y-42811130D01*
X70481107Y-42823458D01*
X70484000Y-42838000D01*
X70484000Y-44538000D01*
X70481107Y-44552542D01*
X70472870Y-44564870D01*
X70460542Y-44573107D01*
X70446000Y-44576000D01*
X68746000Y-44576000D01*
X68731458Y-44573107D01*
X68719130Y-44564870D01*
X68710893Y-44552542D01*
X68708000Y-44538000D01*
X68708000Y-42838000D01*
X68710893Y-42823458D01*
X68719130Y-42811130D01*
X68731458Y-42802893D01*
X68746000Y-42800000D01*
X70446000Y-42800000D01*
X70460542Y-42802893D01*
G37*
G36*
X52090407Y-42843462D02*
G01*
X52260000Y-42918969D01*
X52410188Y-43028087D01*
X52534407Y-43166047D01*
X52627228Y-43326818D01*
X52684595Y-43503374D01*
X52704000Y-43688000D01*
X52684595Y-43872626D01*
X52627228Y-44049182D01*
X52534407Y-44209953D01*
X52410188Y-44347913D01*
X52260000Y-44457031D01*
X52090407Y-44532538D01*
X51908821Y-44571135D01*
X51723179Y-44571135D01*
X51541593Y-44532538D01*
X51372000Y-44457031D01*
X51221812Y-44347913D01*
X51097593Y-44209953D01*
X51004772Y-44049182D01*
X50947405Y-43872626D01*
X50928000Y-43688000D01*
X50947405Y-43503374D01*
X51004772Y-43326818D01*
X51097593Y-43166047D01*
X51221812Y-43028087D01*
X51372000Y-42918969D01*
X51541593Y-42843462D01*
X51723179Y-42804865D01*
X51908821Y-42804865D01*
X52090407Y-42843462D01*
G37*
G36*
X55777444Y-43552311D02*
G01*
X55838436Y-43593064D01*
X55879189Y-43654056D01*
X55893500Y-43726000D01*
X55893500Y-44026000D01*
X55879189Y-44097944D01*
X55838436Y-44158936D01*
X55777444Y-44199689D01*
X55705500Y-44214000D01*
X54530500Y-44214000D01*
X54458556Y-44199689D01*
X54397564Y-44158936D01*
X54356811Y-44097944D01*
X54342500Y-44026000D01*
X54342500Y-43726000D01*
X54356811Y-43654056D01*
X54397564Y-43593064D01*
X54458556Y-43552311D01*
X54530500Y-43538000D01*
X55705500Y-43538000D01*
X55777444Y-43552311D01*
G37*
G36*
X60074400Y-41491538D02*
G01*
X60147445Y-41498387D01*
X60172090Y-41507010D01*
X60200478Y-41511507D01*
X60234545Y-41528865D01*
X60266520Y-41540054D01*
X60288852Y-41556536D01*
X60317282Y-41571022D01*
X60342082Y-41595822D01*
X60366877Y-41614122D01*
X60385176Y-41638916D01*
X60409978Y-41663718D01*
X60424464Y-41692148D01*
X60440945Y-41714479D01*
X60452132Y-41746449D01*
X60469493Y-41780522D01*
X60473989Y-41808914D01*
X60482612Y-41833555D01*
X60489459Y-41906586D01*
X60490000Y-41910000D01*
X60490000Y-43434000D01*
X60489458Y-43437416D01*
X60482612Y-43510445D01*
X60473989Y-43535084D01*
X60469493Y-43563478D01*
X60452131Y-43597551D01*
X60440945Y-43629520D01*
X60424465Y-43651847D01*
X60409978Y-43680282D01*
X60385173Y-43705086D01*
X60366877Y-43729877D01*
X60342086Y-43748173D01*
X60317282Y-43772978D01*
X60288847Y-43787465D01*
X60266520Y-43803945D01*
X60234552Y-43815131D01*
X60200478Y-43832493D01*
X60172083Y-43836990D01*
X60147444Y-43845612D01*
X60074414Y-43852459D01*
X60071000Y-43853000D01*
X59309000Y-43853000D01*
X59305585Y-43852459D01*
X59232554Y-43845612D01*
X59207913Y-43836989D01*
X59179522Y-43832493D01*
X59145450Y-43815132D01*
X59113479Y-43803945D01*
X59091148Y-43787464D01*
X59062718Y-43772978D01*
X59037916Y-43748176D01*
X59013122Y-43729877D01*
X58994822Y-43705082D01*
X58970022Y-43680282D01*
X58955536Y-43651852D01*
X58939054Y-43629520D01*
X58927865Y-43597546D01*
X58910507Y-43563478D01*
X58906010Y-43535088D01*
X58897387Y-43510444D01*
X58890538Y-43437399D01*
X58890000Y-43434000D01*
X58890000Y-41910000D01*
X58890538Y-41906600D01*
X58897387Y-41833554D01*
X58906011Y-41808908D01*
X58910507Y-41780522D01*
X58927864Y-41746456D01*
X58939054Y-41714479D01*
X58955537Y-41692144D01*
X58970022Y-41663718D01*
X58994819Y-41638920D01*
X59013122Y-41614122D01*
X59037920Y-41595819D01*
X59062718Y-41571022D01*
X59091144Y-41556537D01*
X59113479Y-41540054D01*
X59145455Y-41528864D01*
X59179522Y-41511507D01*
X59207909Y-41507010D01*
X59232555Y-41498387D01*
X59305602Y-41491538D01*
X59309000Y-41491000D01*
X60071000Y-41491000D01*
X60074400Y-41491538D01*
G37*
G36*
X62614400Y-41491538D02*
G01*
X62687445Y-41498387D01*
X62712090Y-41507010D01*
X62740478Y-41511507D01*
X62774545Y-41528865D01*
X62806520Y-41540054D01*
X62828852Y-41556536D01*
X62857282Y-41571022D01*
X62882082Y-41595822D01*
X62906877Y-41614122D01*
X62925176Y-41638916D01*
X62949978Y-41663718D01*
X62964464Y-41692148D01*
X62980945Y-41714479D01*
X62992132Y-41746449D01*
X63009493Y-41780522D01*
X63013989Y-41808914D01*
X63022612Y-41833555D01*
X63029459Y-41906586D01*
X63030000Y-41910000D01*
X63030000Y-43434000D01*
X63029458Y-43437416D01*
X63022612Y-43510445D01*
X63013989Y-43535084D01*
X63009493Y-43563478D01*
X62992131Y-43597551D01*
X62980945Y-43629520D01*
X62964465Y-43651847D01*
X62949978Y-43680282D01*
X62925173Y-43705086D01*
X62906877Y-43729877D01*
X62882086Y-43748173D01*
X62857282Y-43772978D01*
X62828847Y-43787465D01*
X62806520Y-43803945D01*
X62774552Y-43815131D01*
X62740478Y-43832493D01*
X62712083Y-43836990D01*
X62687444Y-43845612D01*
X62614414Y-43852459D01*
X62611000Y-43853000D01*
X61849000Y-43853000D01*
X61845585Y-43852459D01*
X61772554Y-43845612D01*
X61747913Y-43836989D01*
X61719522Y-43832493D01*
X61685450Y-43815132D01*
X61653479Y-43803945D01*
X61631148Y-43787464D01*
X61602718Y-43772978D01*
X61577916Y-43748176D01*
X61553122Y-43729877D01*
X61534822Y-43705082D01*
X61510022Y-43680282D01*
X61495536Y-43651852D01*
X61479054Y-43629520D01*
X61467865Y-43597546D01*
X61450507Y-43563478D01*
X61446010Y-43535088D01*
X61437387Y-43510444D01*
X61430538Y-43437399D01*
X61430000Y-43434000D01*
X61430000Y-41910000D01*
X61430538Y-41906600D01*
X61437387Y-41833554D01*
X61446011Y-41808908D01*
X61450507Y-41780522D01*
X61467864Y-41746456D01*
X61479054Y-41714479D01*
X61495537Y-41692144D01*
X61510022Y-41663718D01*
X61534819Y-41638920D01*
X61553122Y-41614122D01*
X61577920Y-41595819D01*
X61602718Y-41571022D01*
X61631144Y-41556537D01*
X61653479Y-41540054D01*
X61685455Y-41528864D01*
X61719522Y-41511507D01*
X61747909Y-41507010D01*
X61772555Y-41498387D01*
X61845602Y-41491538D01*
X61849000Y-41491000D01*
X62611000Y-41491000D01*
X62614400Y-41491538D01*
G37*
G36*
X65154400Y-41491538D02*
G01*
X65227445Y-41498387D01*
X65252090Y-41507010D01*
X65280478Y-41511507D01*
X65314545Y-41528865D01*
X65346520Y-41540054D01*
X65368852Y-41556536D01*
X65397282Y-41571022D01*
X65422082Y-41595822D01*
X65446877Y-41614122D01*
X65465176Y-41638916D01*
X65489978Y-41663718D01*
X65504464Y-41692148D01*
X65520945Y-41714479D01*
X65532132Y-41746449D01*
X65549493Y-41780522D01*
X65553989Y-41808914D01*
X65562612Y-41833555D01*
X65569459Y-41906586D01*
X65570000Y-41910000D01*
X65570000Y-43434000D01*
X65569458Y-43437416D01*
X65562612Y-43510445D01*
X65553989Y-43535084D01*
X65549493Y-43563478D01*
X65532131Y-43597551D01*
X65520945Y-43629520D01*
X65504465Y-43651847D01*
X65489978Y-43680282D01*
X65465173Y-43705086D01*
X65446877Y-43729877D01*
X65422086Y-43748173D01*
X65397282Y-43772978D01*
X65368847Y-43787465D01*
X65346520Y-43803945D01*
X65314552Y-43815131D01*
X65280478Y-43832493D01*
X65252083Y-43836990D01*
X65227444Y-43845612D01*
X65154414Y-43852459D01*
X65151000Y-43853000D01*
X64389000Y-43853000D01*
X64385585Y-43852459D01*
X64312554Y-43845612D01*
X64287913Y-43836989D01*
X64259522Y-43832493D01*
X64225450Y-43815132D01*
X64193479Y-43803945D01*
X64171148Y-43787464D01*
X64142718Y-43772978D01*
X64117916Y-43748176D01*
X64093122Y-43729877D01*
X64074822Y-43705082D01*
X64050022Y-43680282D01*
X64035536Y-43651852D01*
X64019054Y-43629520D01*
X64007865Y-43597546D01*
X63990507Y-43563478D01*
X63986010Y-43535088D01*
X63977387Y-43510444D01*
X63970538Y-43437399D01*
X63970000Y-43434000D01*
X63970000Y-41910000D01*
X63970538Y-41906600D01*
X63977387Y-41833554D01*
X63986011Y-41808908D01*
X63990507Y-41780522D01*
X64007864Y-41746456D01*
X64019054Y-41714479D01*
X64035537Y-41692144D01*
X64050022Y-41663718D01*
X64074819Y-41638920D01*
X64093122Y-41614122D01*
X64117920Y-41595819D01*
X64142718Y-41571022D01*
X64171144Y-41556537D01*
X64193479Y-41540054D01*
X64225455Y-41528864D01*
X64259522Y-41511507D01*
X64287909Y-41507010D01*
X64312555Y-41498387D01*
X64385602Y-41491538D01*
X64389000Y-41491000D01*
X65151000Y-41491000D01*
X65154400Y-41491538D01*
G37*
G36*
X67694400Y-41491538D02*
G01*
X67767445Y-41498387D01*
X67792090Y-41507010D01*
X67820478Y-41511507D01*
X67854545Y-41528865D01*
X67886520Y-41540054D01*
X67908852Y-41556536D01*
X67937282Y-41571022D01*
X67962082Y-41595822D01*
X67986877Y-41614122D01*
X68005176Y-41638916D01*
X68029978Y-41663718D01*
X68044464Y-41692148D01*
X68060945Y-41714479D01*
X68072132Y-41746449D01*
X68089493Y-41780522D01*
X68093989Y-41808914D01*
X68102612Y-41833555D01*
X68109459Y-41906586D01*
X68110000Y-41910000D01*
X68110000Y-43434000D01*
X68109458Y-43437416D01*
X68102612Y-43510445D01*
X68093989Y-43535084D01*
X68089493Y-43563478D01*
X68072131Y-43597551D01*
X68060945Y-43629520D01*
X68044465Y-43651847D01*
X68029978Y-43680282D01*
X68005173Y-43705086D01*
X67986877Y-43729877D01*
X67962086Y-43748173D01*
X67937282Y-43772978D01*
X67908847Y-43787465D01*
X67886520Y-43803945D01*
X67854552Y-43815131D01*
X67820478Y-43832493D01*
X67792083Y-43836990D01*
X67767444Y-43845612D01*
X67694414Y-43852459D01*
X67691000Y-43853000D01*
X66929000Y-43853000D01*
X66925585Y-43852459D01*
X66852554Y-43845612D01*
X66827913Y-43836989D01*
X66799522Y-43832493D01*
X66765450Y-43815132D01*
X66733479Y-43803945D01*
X66711148Y-43787464D01*
X66682718Y-43772978D01*
X66657916Y-43748176D01*
X66633122Y-43729877D01*
X66614822Y-43705082D01*
X66590022Y-43680282D01*
X66575536Y-43651852D01*
X66559054Y-43629520D01*
X66547865Y-43597546D01*
X66530507Y-43563478D01*
X66526010Y-43535088D01*
X66517387Y-43510444D01*
X66510538Y-43437399D01*
X66510000Y-43434000D01*
X66510000Y-41910000D01*
X66510538Y-41906600D01*
X66517387Y-41833554D01*
X66526011Y-41808908D01*
X66530507Y-41780522D01*
X66547864Y-41746456D01*
X66559054Y-41714479D01*
X66575537Y-41692144D01*
X66590022Y-41663718D01*
X66614819Y-41638920D01*
X66633122Y-41614122D01*
X66657920Y-41595819D01*
X66682718Y-41571022D01*
X66711144Y-41556537D01*
X66733479Y-41540054D01*
X66765455Y-41528864D01*
X66799522Y-41511507D01*
X66827909Y-41507010D01*
X66852555Y-41498387D01*
X66925602Y-41491538D01*
X66929000Y-41491000D01*
X67691000Y-41491000D01*
X67694400Y-41491538D01*
G37*
G36*
X57652444Y-42602311D02*
G01*
X57713436Y-42643064D01*
X57754189Y-42704056D01*
X57768500Y-42776000D01*
X57768500Y-43076000D01*
X57754189Y-43147944D01*
X57713436Y-43208936D01*
X57652444Y-43249689D01*
X57580500Y-43264000D01*
X56405500Y-43264000D01*
X56333556Y-43249689D01*
X56272564Y-43208936D01*
X56231811Y-43147944D01*
X56217500Y-43076000D01*
X56217500Y-42776000D01*
X56231811Y-42704056D01*
X56272564Y-42643064D01*
X56333556Y-42602311D01*
X56405500Y-42588000D01*
X57580500Y-42588000D01*
X57652444Y-42602311D01*
G37*
G36*
X55777444Y-41652311D02*
G01*
X55838436Y-41693064D01*
X55879189Y-41754056D01*
X55893500Y-41826000D01*
X55893500Y-42126000D01*
X55879189Y-42197944D01*
X55838436Y-42258936D01*
X55777444Y-42299689D01*
X55705500Y-42314000D01*
X54530500Y-42314000D01*
X54458556Y-42299689D01*
X54397564Y-42258936D01*
X54356811Y-42197944D01*
X54342500Y-42126000D01*
X54342500Y-41826000D01*
X54356811Y-41754056D01*
X54397564Y-41693064D01*
X54458556Y-41652311D01*
X54530500Y-41638000D01*
X55705500Y-41638000D01*
X55777444Y-41652311D01*
G37*
M02*
