%TF.GenerationSoftware,KiCad,Pcbnew,7.0.9*%
%TF.CreationDate,2023-12-20T22:05:47+01:00*%
%TF.ProjectId,powermeter,706f7765-726d-4657-9465-722e6b696361,rev?*%
%TF.SameCoordinates,Original*%
%TF.FileFunction,Copper,L1,Top*%
%TF.FilePolarity,Positive*%
%FSLAX46Y46*%
G04 Gerber Fmt 4.6, Leading zero omitted, Abs format (unit mm)*
G04 Created by KiCad (PCBNEW 7.0.9) date 2023-12-20 22:05:47*
%MOMM*%
%LPD*%
G01*
G04 APERTURE LIST*
G04 Aperture macros list*
%AMRoundRect*
0 Rectangle with rounded corners*
0 $1 Rounding radius*
0 $2 $3 $4 $5 $6 $7 $8 $9 X,Y pos of 4 corners*
0 Add a 4 corners polygon primitive as box body*
4,1,4,$2,$3,$4,$5,$6,$7,$8,$9,$2,$3,0*
0 Add four circle primitives for the rounded corners*
1,1,$1+$1,$2,$3*
1,1,$1+$1,$4,$5*
1,1,$1+$1,$6,$7*
1,1,$1+$1,$8,$9*
0 Add four rect primitives between the rounded corners*
20,1,$1+$1,$2,$3,$4,$5,0*
20,1,$1+$1,$4,$5,$6,$7,0*
20,1,$1+$1,$6,$7,$8,$9,0*
20,1,$1+$1,$8,$9,$2,$3,0*%
G04 Aperture macros list end*
%TA.AperFunction,SMDPad,CuDef*%
%ADD10RoundRect,0.135000X-0.135000X-0.185000X0.135000X-0.185000X0.135000X0.185000X-0.135000X0.185000X0*%
%TD*%
%TA.AperFunction,SMDPad,CuDef*%
%ADD11RoundRect,0.140000X0.170000X-0.140000X0.170000X0.140000X-0.170000X0.140000X-0.170000X-0.140000X0*%
%TD*%
%TA.AperFunction,SMDPad,CuDef*%
%ADD12RoundRect,0.135000X-0.185000X0.135000X-0.185000X-0.135000X0.185000X-0.135000X0.185000X0.135000X0*%
%TD*%
%TA.AperFunction,SMDPad,CuDef*%
%ADD13RoundRect,0.140000X-0.140000X-0.170000X0.140000X-0.170000X0.140000X0.170000X-0.140000X0.170000X0*%
%TD*%
%TA.AperFunction,SMDPad,CuDef*%
%ADD14RoundRect,0.140000X0.140000X0.170000X-0.140000X0.170000X-0.140000X-0.170000X0.140000X-0.170000X0*%
%TD*%
%TA.AperFunction,SMDPad,CuDef*%
%ADD15RoundRect,0.150000X-0.587500X-0.150000X0.587500X-0.150000X0.587500X0.150000X-0.587500X0.150000X0*%
%TD*%
%TA.AperFunction,ComponentPad*%
%ADD16R,1.700000X1.700000*%
%TD*%
%TA.AperFunction,ComponentPad*%
%ADD17O,1.700000X1.700000*%
%TD*%
%TA.AperFunction,SMDPad,CuDef*%
%ADD18RoundRect,0.381000X0.381000X-0.762000X0.381000X0.762000X-0.381000X0.762000X-0.381000X-0.762000X0*%
%TD*%
%TA.AperFunction,SMDPad,CuDef*%
%ADD19RoundRect,0.140000X-0.170000X0.140000X-0.170000X-0.140000X0.170000X-0.140000X0.170000X0.140000X0*%
%TD*%
%TA.AperFunction,SMDPad,CuDef*%
%ADD20RoundRect,0.135000X0.185000X-0.135000X0.185000X0.135000X-0.185000X0.135000X-0.185000X-0.135000X0*%
%TD*%
%TA.AperFunction,SMDPad,CuDef*%
%ADD21RoundRect,0.150000X0.850000X0.150000X-0.850000X0.150000X-0.850000X-0.150000X0.850000X-0.150000X0*%
%TD*%
%TA.AperFunction,SMDPad,CuDef*%
%ADD22RoundRect,0.075000X-0.075000X0.350000X-0.075000X-0.350000X0.075000X-0.350000X0.075000X0.350000X0*%
%TD*%
%TA.AperFunction,SMDPad,CuDef*%
%ADD23RoundRect,0.075000X-0.350000X-0.075000X0.350000X-0.075000X0.350000X0.075000X-0.350000X0.075000X0*%
%TD*%
%TA.AperFunction,ViaPad*%
%ADD24C,0.800000*%
%TD*%
%TA.AperFunction,Conductor*%
%ADD25C,0.250000*%
%TD*%
G04 APERTURE END LIST*
D10*
%TO.P,R6,1*%
%TO.N,Net-(U2-INA-)*%
X64262000Y-44704000D03*
%TO.P,R6,2*%
%TO.N,Net-(J1-Pin_4)*%
X65282000Y-44704000D03*
%TD*%
D11*
%TO.P,C7,1*%
%TO.N,+3.3V*%
X61976000Y-51521000D03*
%TO.P,C7,2*%
%TO.N,GND*%
X61976000Y-50561000D03*
%TD*%
D12*
%TO.P,R2,1*%
%TO.N,Net-(J1-Pin_1)*%
X58674000Y-44704000D03*
%TO.P,R2,2*%
%TO.N,Net-(U2-VFB)*%
X58674000Y-45724000D03*
%TD*%
D10*
%TO.P,R3,1*%
%TO.N,Net-(U2-VFB)*%
X59942000Y-45720000D03*
%TO.P,R3,2*%
%TO.N,GND*%
X60962000Y-45720000D03*
%TD*%
D13*
%TO.P,C8,1*%
%TO.N,+3.3V*%
X63020000Y-58674000D03*
%TO.P,C8,2*%
%TO.N,GND*%
X63980000Y-58674000D03*
%TD*%
D14*
%TO.P,C5,1*%
%TO.N,Net-(U3-CPOUT)*%
X66802000Y-58646000D03*
%TO.P,C5,2*%
%TO.N,GND*%
X65842000Y-58646000D03*
%TD*%
D15*
%TO.P,Q1,1,E*%
%TO.N,+3.3V*%
X55118000Y-41976000D03*
%TO.P,Q1,2,B*%
%TO.N,Net-(Q1-B)*%
X55118000Y-43876000D03*
%TO.P,Q1,3,C*%
%TO.N,Net-(J1-Pin_1)*%
X56993000Y-42926000D03*
%TD*%
D13*
%TO.P,C4,1*%
%TO.N,Net-(J1-Pin_1)*%
X59944000Y-44704000D03*
%TO.P,C4,2*%
%TO.N,GND*%
X60904000Y-44704000D03*
%TD*%
D12*
%TO.P,R4,1*%
%TO.N,+3.3V*%
X68072000Y-52832000D03*
%TO.P,R4,2*%
%TO.N,/SDA*%
X68072000Y-53852000D03*
%TD*%
D16*
%TO.P,J3,1,Pin_1*%
%TO.N,Net-(J3-Pin_1)*%
X51816000Y-58928000D03*
D17*
%TO.P,J3,2,Pin_2*%
%TO.N,Net-(J3-Pin_2)*%
X51816000Y-56388000D03*
%TO.P,J3,3,Pin_3*%
%TO.N,/HX_DATA*%
X51816000Y-53848000D03*
%TO.P,J3,4,Pin_4*%
%TO.N,/HX_CLK*%
X51816000Y-51308000D03*
%TO.P,J3,5,Pin_5*%
%TO.N,+3.3V*%
X51816000Y-48768000D03*
%TO.P,J3,6,Pin_6*%
%TO.N,GND*%
X51816000Y-46228000D03*
%TO.P,J3,7,Pin_7*%
X51816000Y-43688000D03*
%TD*%
D10*
%TO.P,R1,1*%
%TO.N,Net-(U2-INA+)*%
X62230000Y-44704000D03*
%TO.P,R1,2*%
%TO.N,Net-(J1-Pin_3)*%
X63250000Y-44704000D03*
%TD*%
D18*
%TO.P,J1,1,Pin_1*%
%TO.N,Net-(J1-Pin_1)*%
X59690000Y-42672000D03*
%TO.P,J1,2,Pin_2*%
%TO.N,GND*%
X62230000Y-42672000D03*
%TO.P,J1,3,Pin_3*%
%TO.N,Net-(J1-Pin_3)*%
X64770000Y-42672000D03*
%TO.P,J1,4,Pin_4*%
%TO.N,Net-(J1-Pin_4)*%
X67310000Y-42672000D03*
%TD*%
D13*
%TO.P,C3,1*%
%TO.N,+3.3V*%
X54864000Y-57404000D03*
%TO.P,C3,2*%
%TO.N,GND*%
X55824000Y-57404000D03*
%TD*%
D19*
%TO.P,C2,1*%
%TO.N,Net-(U2-VBG)*%
X61976000Y-48006000D03*
%TO.P,C2,2*%
%TO.N,GND*%
X61976000Y-48966000D03*
%TD*%
D20*
%TO.P,R5,1*%
%TO.N,+3.3V*%
X68072000Y-56134000D03*
%TO.P,R5,2*%
%TO.N,/SCL*%
X68072000Y-55114000D03*
%TD*%
D21*
%TO.P,U2,1,VSUP*%
%TO.N,+3.3V*%
X59827000Y-55880000D03*
%TO.P,U2,2,BASE*%
%TO.N,Net-(Q1-B)*%
X59827000Y-54610000D03*
%TO.P,U2,3,AVDD*%
%TO.N,Net-(J1-Pin_1)*%
X59827000Y-53340000D03*
%TO.P,U2,4,VFB*%
%TO.N,Net-(U2-VFB)*%
X59827000Y-52070000D03*
%TO.P,U2,5,AGND*%
%TO.N,GND*%
X59827000Y-50800000D03*
%TO.P,U2,6,VBG*%
%TO.N,Net-(U2-VBG)*%
X59827000Y-49530000D03*
%TO.P,U2,7,INA-*%
%TO.N,Net-(U2-INA-)*%
X59827000Y-48260000D03*
%TO.P,U2,8,INA+*%
%TO.N,Net-(U2-INA+)*%
X59827000Y-46990000D03*
%TO.P,U2,9,INB-*%
%TO.N,GND*%
X54827000Y-46990000D03*
%TO.P,U2,10,INB+*%
X54827000Y-48260000D03*
%TO.P,U2,11,PD_SCK*%
%TO.N,/HX_CLK*%
X54827000Y-49530000D03*
%TO.P,U2,12,DOUT*%
%TO.N,/HX_DATA*%
X54827000Y-50800000D03*
%TO.P,U2,13,XO*%
%TO.N,unconnected-(U2-XO-Pad13)*%
X54827000Y-52070000D03*
%TO.P,U2,14,XI*%
%TO.N,GND*%
X54827000Y-53340000D03*
%TO.P,U2,15,RATE*%
X54827000Y-54610000D03*
%TO.P,U2,16,DVDD*%
%TO.N,+3.3V*%
X54827000Y-55880000D03*
%TD*%
D14*
%TO.P,C6,1*%
%TO.N,Net-(U3-REGOUT)*%
X60452000Y-57404000D03*
%TO.P,C6,2*%
%TO.N,GND*%
X59492000Y-57404000D03*
%TD*%
D22*
%TO.P,U3,1,CLKIN*%
%TO.N,unconnected-(U3-CLKIN-Pad1)*%
X65848000Y-53410000D03*
%TO.P,U3,2,NC*%
%TO.N,unconnected-(U3-NC-Pad2)*%
X65348000Y-53410000D03*
%TO.P,U3,3,NC*%
%TO.N,unconnected-(U3-NC-Pad3)*%
X64848000Y-53410000D03*
%TO.P,U3,4,NC*%
%TO.N,unconnected-(U3-NC-Pad4)*%
X64348000Y-53410000D03*
%TO.P,U3,5,NC*%
%TO.N,unconnected-(U3-NC-Pad5)*%
X63848000Y-53410000D03*
%TO.P,U3,6,AUX_DA*%
%TO.N,unconnected-(U3-AUX_DA-Pad6)*%
X63348000Y-53410000D03*
D23*
%TO.P,U3,7,AUX_CL*%
%TO.N,unconnected-(U3-AUX_CL-Pad7)*%
X62648000Y-54110000D03*
%TO.P,U3,8,VLOGIC*%
%TO.N,+3.3V*%
X62648000Y-54610000D03*
%TO.P,U3,9,AD0*%
%TO.N,unconnected-(U3-AD0-Pad9)*%
X62648000Y-55110000D03*
%TO.P,U3,10,REGOUT*%
%TO.N,Net-(U3-REGOUT)*%
X62648000Y-55610000D03*
%TO.P,U3,11,FSYNC*%
%TO.N,unconnected-(U3-FSYNC-Pad11)*%
X62648000Y-56110000D03*
%TO.P,U3,12,INT*%
%TO.N,/MPU_INT*%
X62648000Y-56610000D03*
D22*
%TO.P,U3,13,VDD*%
%TO.N,+3.3V*%
X63348000Y-57310000D03*
%TO.P,U3,14,NC*%
%TO.N,unconnected-(U3-NC-Pad14)*%
X63848000Y-57310000D03*
%TO.P,U3,15,NC*%
%TO.N,unconnected-(U3-NC-Pad15)*%
X64348000Y-57310000D03*
%TO.P,U3,16,NC*%
%TO.N,unconnected-(U3-NC-Pad16)*%
X64848000Y-57310000D03*
%TO.P,U3,17,NC*%
%TO.N,unconnected-(U3-NC-Pad17)*%
X65348000Y-57310000D03*
%TO.P,U3,18,GND*%
%TO.N,GND*%
X65848000Y-57310000D03*
D23*
%TO.P,U3,19,RESV*%
%TO.N,unconnected-(U3-RESV-Pad19)*%
X66548000Y-56610000D03*
%TO.P,U3,20,CPOUT*%
%TO.N,Net-(U3-CPOUT)*%
X66548000Y-56110000D03*
%TO.P,U3,21,RESV*%
%TO.N,unconnected-(U3-RESV-Pad21)*%
X66548000Y-55610000D03*
%TO.P,U3,22,RESV*%
%TO.N,unconnected-(U3-RESV-Pad22)*%
X66548000Y-55110000D03*
%TO.P,U3,23,SCL*%
%TO.N,/SCL*%
X66548000Y-54610000D03*
%TO.P,U3,24,SDA*%
%TO.N,/SDA*%
X66548000Y-54110000D03*
%TD*%
D13*
%TO.P,C1,1*%
%TO.N,Net-(U2-INA+)*%
X62230000Y-45720000D03*
%TO.P,C1,2*%
%TO.N,Net-(U2-INA-)*%
X63190000Y-45720000D03*
%TD*%
D16*
%TO.P,J2,1,Pin_1*%
%TO.N,Net-(J2-Pin_1)*%
X69596000Y-43688000D03*
D17*
%TO.P,J2,2,Pin_2*%
%TO.N,Net-(J2-Pin_2)*%
X69596000Y-46228000D03*
%TO.P,J2,3,Pin_3*%
%TO.N,Net-(J2-Pin_3)*%
X69596000Y-48768000D03*
%TO.P,J2,4,Pin_4*%
%TO.N,Net-(J2-Pin_4)*%
X69596000Y-51308000D03*
%TO.P,J2,5,Pin_5*%
%TO.N,/SDA*%
X69596000Y-53848000D03*
%TO.P,J2,6,Pin_6*%
%TO.N,/SCL*%
X69596000Y-56388000D03*
%TO.P,J2,7,Pin_7*%
%TO.N,/MPU_INT*%
X69596000Y-58928000D03*
%TD*%
D24*
%TO.N,GND*%
X66548000Y-45212000D03*
X65024000Y-58584500D03*
X56896000Y-54610000D03*
X57658000Y-57404000D03*
X54827000Y-48260000D03*
X61722000Y-49728000D03*
%TO.N,+3.3V*%
X54827000Y-55880000D03*
%TO.N,/MPU_INT*%
X62230000Y-57912000D03*
%TD*%
D25*
%TO.N,GND*%
X60762000Y-41204000D02*
X67983434Y-41204000D01*
X67983434Y-41204000D02*
X68397000Y-41617566D01*
X68397000Y-41617566D02*
X68397000Y-43726434D01*
X68397000Y-43726434D02*
X66911434Y-45212000D01*
X66911434Y-45212000D02*
X66548000Y-45212000D01*
%TO.N,Net-(J1-Pin_4)*%
X65282000Y-44704000D02*
X65282000Y-44700000D01*
X65282000Y-44700000D02*
X67310000Y-42672000D01*
%TO.N,Net-(U2-INA-)*%
X63190000Y-45720000D02*
X63190000Y-45776000D01*
X63190000Y-45776000D02*
X60706000Y-48260000D01*
X60706000Y-48260000D02*
X59827000Y-48260000D01*
X64262000Y-44704000D02*
X63246000Y-45720000D01*
X63246000Y-45720000D02*
X63190000Y-45720000D01*
%TO.N,Net-(U2-INA+)*%
X62230000Y-45720000D02*
X60960000Y-46990000D01*
X60960000Y-46990000D02*
X59827000Y-46990000D01*
X62230000Y-44704000D02*
X62230000Y-45720000D01*
%TO.N,Net-(U2-VBG)*%
X61976000Y-48006000D02*
X61964510Y-48006000D01*
X61964510Y-48006000D02*
X60440510Y-49530000D01*
X60440510Y-49530000D02*
X59827000Y-49530000D01*
%TO.N,GND*%
X61976000Y-48966000D02*
X61976000Y-49474000D01*
X61976000Y-49474000D02*
X61722000Y-49728000D01*
X61722000Y-49728000D02*
X61722000Y-50012000D01*
X61722000Y-50012000D02*
X61976000Y-50266000D01*
%TO.N,+3.3V*%
X61898000Y-54532000D02*
X61898000Y-51894000D01*
X61898000Y-51894000D02*
X61976000Y-51816000D01*
X62566000Y-52660000D02*
X61976000Y-52070000D01*
X61976000Y-52070000D02*
X61976000Y-51816000D01*
%TO.N,GND*%
X61722000Y-49728000D02*
X60650000Y-50800000D01*
X60650000Y-50800000D02*
X59827000Y-50800000D01*
X63980000Y-58674000D02*
X64934500Y-58674000D01*
X65848000Y-58640000D02*
X65842000Y-58646000D01*
X54827000Y-46990000D02*
X54827000Y-48260000D01*
X60962000Y-45720000D02*
X60962000Y-44762000D01*
X60762000Y-41204000D02*
X54171604Y-41204000D01*
X65842000Y-58646000D02*
X65085500Y-58646000D01*
X65085500Y-58646000D02*
X65024000Y-58584500D01*
X60317000Y-46365000D02*
X58669396Y-46365000D01*
X58420000Y-50546000D02*
X58674000Y-50800000D01*
X51941000Y-43434604D02*
X51941000Y-43688000D01*
X56134000Y-53340000D02*
X54827000Y-53340000D01*
X56896000Y-54102000D02*
X56134000Y-53340000D01*
X60962000Y-45720000D02*
X60317000Y-46365000D01*
X54827000Y-54610000D02*
X56896000Y-54610000D01*
X60962000Y-44762000D02*
X60904000Y-44704000D01*
X58669396Y-46365000D02*
X58420000Y-46614396D01*
X54171604Y-41204000D02*
X51941000Y-43434604D01*
X59492000Y-57404000D02*
X57658000Y-57404000D01*
X58420000Y-46614396D02*
X58420000Y-50546000D01*
X65848000Y-57310000D02*
X65848000Y-58640000D01*
X56896000Y-54610000D02*
X56896000Y-54102000D01*
X58674000Y-50800000D02*
X59827000Y-50800000D01*
X64934500Y-58674000D02*
X65024000Y-58584500D01*
X55824000Y-57404000D02*
X57658000Y-57404000D01*
X60904000Y-44704000D02*
X60904000Y-43998000D01*
X60904000Y-43998000D02*
X62230000Y-42672000D01*
X62230000Y-42672000D02*
X60762000Y-41204000D01*
%TO.N,+3.3V*%
X61898000Y-54532000D02*
X61976000Y-54610000D01*
X59827000Y-55880000D02*
X60550000Y-55880000D01*
X55052000Y-41976000D02*
X53086000Y-43942000D01*
X53086000Y-47623000D02*
X51941000Y-48768000D01*
X68072000Y-58347490D02*
X68072000Y-56134000D01*
X63345001Y-59309000D02*
X67110490Y-59309000D01*
X67110490Y-59309000D02*
X68072000Y-58347490D01*
X55118000Y-41976000D02*
X55052000Y-41976000D01*
X61976000Y-54610000D02*
X62648000Y-54610000D01*
X55824001Y-58674000D02*
X63020000Y-58674000D01*
X54864000Y-57713999D02*
X55824001Y-58674000D01*
X57150000Y-55880000D02*
X54827000Y-55880000D01*
X60550000Y-55880000D02*
X61898000Y-54532000D01*
X54827000Y-55880000D02*
X54827000Y-57367000D01*
X63020000Y-58674000D02*
X63020000Y-58983999D01*
X63348000Y-58346000D02*
X63020000Y-58674000D01*
X67900000Y-52660000D02*
X62566000Y-52660000D01*
X63348000Y-57310000D02*
X63348000Y-58346000D01*
X63020000Y-58983999D02*
X63345001Y-59309000D01*
X53086000Y-43942000D02*
X53086000Y-47623000D01*
X54827000Y-57367000D02*
X54864000Y-57404000D01*
X54864000Y-57404000D02*
X54864000Y-57713999D01*
X59827000Y-55880000D02*
X57150000Y-55880000D01*
X68072000Y-52832000D02*
X67900000Y-52660000D01*
%TO.N,Net-(J1-Pin_1)*%
X56896000Y-46482000D02*
X58674000Y-44704000D01*
X59436000Y-42926000D02*
X59690000Y-42672000D01*
X58674000Y-43688000D02*
X59690000Y-42672000D01*
X58674000Y-44704000D02*
X58674000Y-43688000D01*
X58674000Y-44704000D02*
X59944000Y-44704000D01*
X58674000Y-53340000D02*
X56896000Y-51562000D01*
X59827000Y-53340000D02*
X58674000Y-53340000D01*
X56896000Y-51562000D02*
X56896000Y-46482000D01*
X56993000Y-42926000D02*
X57912000Y-42926000D01*
X57912000Y-42926000D02*
X58674000Y-43688000D01*
%TO.N,Net-(U3-CPOUT)*%
X67040764Y-56110000D02*
X66548000Y-56110000D01*
X66802000Y-58646000D02*
X67298000Y-58150000D01*
X67298000Y-56367236D02*
X67040764Y-56110000D01*
X67298000Y-58150000D02*
X67298000Y-56367236D01*
%TO.N,Net-(U3-REGOUT)*%
X61936001Y-55610000D02*
X62648000Y-55610000D01*
X60452000Y-57094001D02*
X61936001Y-55610000D01*
X60452000Y-57404000D02*
X60452000Y-57094001D01*
%TO.N,Net-(J1-Pin_3)*%
X63246000Y-44196000D02*
X63246000Y-44958000D01*
X64770000Y-42672000D02*
X63246000Y-44196000D01*
%TO.N,Net-(Q1-B)*%
X58674000Y-54610000D02*
X59827000Y-54610000D01*
X56388000Y-46228000D02*
X56388000Y-52324000D01*
X55118000Y-44958000D02*
X56388000Y-46228000D01*
X56388000Y-52324000D02*
X58674000Y-54610000D01*
X55118000Y-43876000D02*
X55118000Y-44958000D01*
%TO.N,Net-(U2-VFB)*%
X57404000Y-50646999D02*
X58827001Y-52070000D01*
X58674000Y-45724000D02*
X57404000Y-46994000D01*
X59938000Y-45724000D02*
X59942000Y-45720000D01*
X58674000Y-45724000D02*
X59938000Y-45724000D01*
X57404000Y-46994000D02*
X57404000Y-50646999D01*
X58827001Y-52070000D02*
X59827000Y-52070000D01*
%TO.N,/SCL*%
X68072000Y-55114000D02*
X69327195Y-56369195D01*
X66548000Y-54610000D02*
X67568000Y-54610000D01*
X69327195Y-56369195D02*
X69327853Y-56394876D01*
X67568000Y-54610000D02*
X68072000Y-55114000D01*
%TO.N,/SDA*%
X69258224Y-53852000D02*
X69262768Y-53856544D01*
X67814000Y-54110000D02*
X68072000Y-53852000D01*
X68072000Y-53852000D02*
X69258224Y-53852000D01*
X66548000Y-54110000D02*
X67814000Y-54110000D01*
%TO.N,/MPU_INT*%
X62648000Y-56610000D02*
X62648000Y-57494000D01*
X62648000Y-57494000D02*
X62230000Y-57912000D01*
%TO.N,/HX_CLK*%
X54827000Y-49530000D02*
X53719000Y-49530000D01*
X53719000Y-49530000D02*
X51941000Y-51308000D01*
%TO.N,/HX_DATA*%
X53086000Y-52578000D02*
X51941000Y-53723000D01*
X53985701Y-50800000D02*
X53086000Y-51699701D01*
X53086000Y-51699701D02*
X53086000Y-52578000D01*
X54827000Y-50800000D02*
X53985701Y-50800000D01*
X51941000Y-53723000D02*
X51941000Y-53848000D01*
%TD*%
%TA.AperFunction,Conductor*%
%TO.N,GND*%
G36*
X66056718Y-58012163D02*
G01*
X66089471Y-58073881D01*
X66092000Y-58098795D01*
X66092000Y-58147645D01*
X66074734Y-58210763D01*
X66069507Y-58219600D01*
X66069504Y-58219608D01*
X66024357Y-58375002D01*
X66024356Y-58375008D01*
X66021500Y-58411308D01*
X66021500Y-58559500D01*
X66001815Y-58626539D01*
X65949011Y-58672294D01*
X65897500Y-58683500D01*
X64883999Y-58683500D01*
X64816960Y-58663815D01*
X64771205Y-58611011D01*
X64759999Y-58559500D01*
X64759999Y-58439363D01*
X64757144Y-58403084D01*
X64754533Y-58394095D01*
X64754732Y-58324226D01*
X64792674Y-58265556D01*
X64856312Y-58236712D01*
X64873609Y-58235500D01*
X64941698Y-58235500D01*
X65008737Y-58255185D01*
X65054492Y-58307989D01*
X65065316Y-58369228D01*
X65063209Y-58395999D01*
X65063210Y-58396000D01*
X65592000Y-58396000D01*
X65592000Y-58295768D01*
X65611685Y-58228729D01*
X65664489Y-58182974D01*
X65668536Y-58181212D01*
X65713233Y-58162698D01*
X65833451Y-58070451D01*
X65869625Y-58023308D01*
X65926052Y-57982106D01*
X65995798Y-57977951D01*
X66056718Y-58012163D01*
G37*
%TD.AperFunction*%
%TA.AperFunction,Conductor*%
G36*
X58548230Y-56525185D02*
G01*
X58568872Y-56541819D01*
X58575129Y-56548076D01*
X58575133Y-56548079D01*
X58575135Y-56548081D01*
X58716602Y-56631744D01*
X58774911Y-56648684D01*
X58833795Y-56686289D01*
X58863002Y-56749761D01*
X58853257Y-56818948D01*
X58845658Y-56831555D01*
X58846252Y-56831907D01*
X58759968Y-56977804D01*
X58759966Y-56977809D01*
X58714855Y-57133081D01*
X58714854Y-57133087D01*
X58713209Y-57153999D01*
X58713210Y-57154000D01*
X59547500Y-57154000D01*
X59614539Y-57173685D01*
X59660294Y-57226489D01*
X59671500Y-57278000D01*
X59671500Y-57530000D01*
X59651815Y-57597039D01*
X59599011Y-57642794D01*
X59547500Y-57654000D01*
X58713210Y-57654000D01*
X58714854Y-57674910D01*
X58759968Y-57830194D01*
X58778411Y-57861380D01*
X58795593Y-57929104D01*
X58773433Y-57995366D01*
X58718966Y-58039129D01*
X58671678Y-58048500D01*
X56644322Y-58048500D01*
X56577283Y-58028815D01*
X56531528Y-57976011D01*
X56521584Y-57906853D01*
X56537589Y-57861380D01*
X56556032Y-57830193D01*
X56556033Y-57830190D01*
X56601144Y-57674918D01*
X56601145Y-57674912D01*
X56602790Y-57654000D01*
X55768500Y-57654000D01*
X55701461Y-57634315D01*
X55655706Y-57581511D01*
X55644500Y-57530000D01*
X55644500Y-57278000D01*
X55664185Y-57210961D01*
X55716989Y-57165206D01*
X55768500Y-57154000D01*
X56602790Y-57154000D01*
X56601145Y-57133089D01*
X56556031Y-56977804D01*
X56473721Y-56838625D01*
X56473714Y-56838616D01*
X56353862Y-56718764D01*
X56355805Y-56716820D01*
X56322597Y-56670842D01*
X56318804Y-56601076D01*
X56353332Y-56540333D01*
X56415218Y-56507901D01*
X56439502Y-56505500D01*
X57070981Y-56505500D01*
X58481191Y-56505500D01*
X58548230Y-56525185D01*
G37*
%TD.AperFunction*%
%TA.AperFunction,Conductor*%
G36*
X55020039Y-53109685D02*
G01*
X55065794Y-53162489D01*
X55077000Y-53214000D01*
X55077000Y-54360000D01*
X56324295Y-54360000D01*
X56324295Y-54359998D01*
X56324100Y-54357513D01*
X56278281Y-54199801D01*
X56194685Y-54058447D01*
X56189900Y-54052278D01*
X56192252Y-54050453D01*
X56165445Y-54001405D01*
X56170402Y-53931712D01*
X56191465Y-53898936D01*
X56189900Y-53897722D01*
X56194685Y-53891552D01*
X56278282Y-53750196D01*
X56278283Y-53750193D01*
X56324099Y-53592495D01*
X56324100Y-53592489D01*
X56327000Y-53555644D01*
X56327000Y-53446952D01*
X56346685Y-53379913D01*
X56399489Y-53334158D01*
X56468647Y-53324214D01*
X56532203Y-53353239D01*
X56538677Y-53359267D01*
X57368452Y-54189043D01*
X58173197Y-54993788D01*
X58183022Y-55006051D01*
X58183243Y-55005869D01*
X58188210Y-55011874D01*
X58218276Y-55040107D01*
X58253671Y-55100348D01*
X58250879Y-55170162D01*
X58210786Y-55227383D01*
X58146121Y-55253845D01*
X58133393Y-55254500D01*
X56357111Y-55254500D01*
X56290072Y-55234815D01*
X56244317Y-55182011D01*
X56234373Y-55112853D01*
X56250379Y-55067379D01*
X56278281Y-55020198D01*
X56324100Y-54862486D01*
X56324295Y-54860001D01*
X56324295Y-54860000D01*
X53329705Y-54860000D01*
X53329704Y-54860001D01*
X53329899Y-54862486D01*
X53375718Y-55020198D01*
X53459314Y-55161552D01*
X53464100Y-55167722D01*
X53461640Y-55169629D01*
X53488210Y-55218288D01*
X53483226Y-55287980D01*
X53462162Y-55320781D01*
X53463699Y-55321974D01*
X53458915Y-55328140D01*
X53375255Y-55469603D01*
X53375254Y-55469606D01*
X53329402Y-55627426D01*
X53329401Y-55627432D01*
X53326500Y-55664304D01*
X53326500Y-55872393D01*
X53306815Y-55939432D01*
X53254011Y-55985187D01*
X53184853Y-55995131D01*
X53121297Y-55966106D01*
X53090118Y-55924798D01*
X52990035Y-55710171D01*
X52990034Y-55710169D01*
X52854494Y-55516597D01*
X52687402Y-55349506D01*
X52687396Y-55349501D01*
X52501842Y-55219575D01*
X52458217Y-55164998D01*
X52451023Y-55095500D01*
X52482546Y-55033145D01*
X52501842Y-55016425D01*
X52554576Y-54979500D01*
X52687401Y-54886495D01*
X52854495Y-54719401D01*
X52990035Y-54525830D01*
X53089903Y-54311663D01*
X53089903Y-54311662D01*
X53092191Y-54306756D01*
X53093797Y-54307505D01*
X53130514Y-54257636D01*
X53178071Y-54239465D01*
X53148933Y-54207162D01*
X53137614Y-54138216D01*
X53140902Y-54121328D01*
X53151063Y-54083408D01*
X53171659Y-53848000D01*
X53171658Y-53847998D01*
X53171749Y-53846968D01*
X53197201Y-53781899D01*
X53253792Y-53740920D01*
X53323554Y-53737042D01*
X53384338Y-53771496D01*
X53402009Y-53794654D01*
X53459314Y-53891552D01*
X53464100Y-53897722D01*
X53461753Y-53899542D01*
X53488564Y-53948642D01*
X53483580Y-54018334D01*
X53462541Y-54051069D01*
X53464100Y-54052278D01*
X53459314Y-54058447D01*
X53375715Y-54199806D01*
X53374477Y-54202668D01*
X53372909Y-54204552D01*
X53371747Y-54206517D01*
X53371429Y-54206329D01*
X53329783Y-54256373D01*
X53287299Y-54269771D01*
X53313968Y-54296019D01*
X53328002Y-54358158D01*
X53329705Y-54360000D01*
X54577000Y-54360000D01*
X54577000Y-53214000D01*
X54596685Y-53146961D01*
X54649489Y-53101206D01*
X54701000Y-53090000D01*
X54953000Y-53090000D01*
X55020039Y-53109685D01*
G37*
%TD.AperFunction*%
%TA.AperFunction,Conductor*%
G36*
X62145334Y-48812280D02*
G01*
X62201267Y-48854152D01*
X62225684Y-48919616D01*
X62226000Y-48928462D01*
X62226000Y-50616500D01*
X62206315Y-50683539D01*
X62153511Y-50729294D01*
X62102000Y-50740500D01*
X61741308Y-50740500D01*
X61705008Y-50743356D01*
X61705002Y-50743357D01*
X61549610Y-50788503D01*
X61549605Y-50788506D01*
X61540766Y-50793732D01*
X61477648Y-50811000D01*
X61367000Y-50811000D01*
X61367000Y-50862833D01*
X61347315Y-50929872D01*
X61330681Y-50950514D01*
X61295887Y-50985307D01*
X61295880Y-50985316D01*
X61293632Y-50989119D01*
X61242564Y-51036803D01*
X61186899Y-51050000D01*
X59701000Y-51050000D01*
X59633961Y-51030315D01*
X59588206Y-50977511D01*
X59577000Y-50926000D01*
X59577000Y-50674000D01*
X59596685Y-50606961D01*
X59649489Y-50561206D01*
X59701000Y-50550000D01*
X61126000Y-50550000D01*
X61126000Y-50435000D01*
X61145685Y-50367961D01*
X61198489Y-50322206D01*
X61250000Y-50311000D01*
X61726000Y-50311000D01*
X61726000Y-49180462D01*
X61745685Y-49113423D01*
X61762316Y-49092784D01*
X62014321Y-48840779D01*
X62075642Y-48807296D01*
X62145334Y-48812280D01*
G37*
%TD.AperFunction*%
%TA.AperFunction,Conductor*%
G36*
X58249106Y-47135995D02*
G01*
X58305040Y-47177866D01*
X58327163Y-47236533D01*
X58328263Y-47236333D01*
X58329366Y-47242375D01*
X58329391Y-47242440D01*
X58329400Y-47242560D01*
X58329402Y-47242573D01*
X58375254Y-47400393D01*
X58375255Y-47400396D01*
X58375256Y-47400398D01*
X58412681Y-47463681D01*
X58458917Y-47541862D01*
X58463702Y-47548031D01*
X58461256Y-47549927D01*
X58487857Y-47598642D01*
X58482873Y-47668334D01*
X58462069Y-47700703D01*
X58463702Y-47701969D01*
X58458917Y-47708137D01*
X58375255Y-47849603D01*
X58375254Y-47849606D01*
X58329402Y-48007426D01*
X58329401Y-48007432D01*
X58326500Y-48044304D01*
X58326500Y-48475696D01*
X58329401Y-48512567D01*
X58329402Y-48512573D01*
X58375254Y-48670393D01*
X58375255Y-48670396D01*
X58458917Y-48811862D01*
X58463702Y-48818031D01*
X58461256Y-48819927D01*
X58487857Y-48868642D01*
X58482873Y-48938334D01*
X58462069Y-48970703D01*
X58463702Y-48971969D01*
X58458917Y-48978137D01*
X58375255Y-49119603D01*
X58375254Y-49119606D01*
X58329402Y-49277426D01*
X58329401Y-49277432D01*
X58326500Y-49314304D01*
X58326500Y-49745696D01*
X58329401Y-49782567D01*
X58329402Y-49782573D01*
X58375254Y-49940393D01*
X58375255Y-49940396D01*
X58458917Y-50081862D01*
X58463702Y-50088031D01*
X58461369Y-50089840D01*
X58488210Y-50138995D01*
X58483226Y-50208687D01*
X58462470Y-50241021D01*
X58464097Y-50242283D01*
X58459313Y-50248449D01*
X58375717Y-50389803D01*
X58375716Y-50389806D01*
X58356699Y-50455264D01*
X58319093Y-50514150D01*
X58255621Y-50543356D01*
X58186434Y-50533610D01*
X58149942Y-50508350D01*
X58065819Y-50424227D01*
X58032334Y-50362904D01*
X58029500Y-50336546D01*
X58029500Y-47304452D01*
X58049185Y-47237413D01*
X58065818Y-47216772D01*
X58076896Y-47205694D01*
X58118094Y-47164495D01*
X58179415Y-47131011D01*
X58249106Y-47135995D01*
G37*
%TD.AperFunction*%
%TA.AperFunction,Conductor*%
G36*
X53916703Y-44278592D02*
G01*
X53942230Y-44309182D01*
X53979561Y-44372305D01*
X54012417Y-44427862D01*
X54012423Y-44427870D01*
X54128629Y-44544076D01*
X54128633Y-44544079D01*
X54128635Y-44544081D01*
X54270102Y-44627744D01*
X54403097Y-44666383D01*
X54461980Y-44703988D01*
X54491187Y-44767460D01*
X54492500Y-44785458D01*
X54492500Y-44875255D01*
X54490775Y-44890872D01*
X54491061Y-44890899D01*
X54490326Y-44898665D01*
X54492500Y-44967814D01*
X54492500Y-44997343D01*
X54492501Y-44997360D01*
X54493368Y-45004231D01*
X54493826Y-45010050D01*
X54495290Y-45056624D01*
X54495291Y-45056627D01*
X54500880Y-45075867D01*
X54504824Y-45094911D01*
X54507336Y-45114792D01*
X54518658Y-45143388D01*
X54524490Y-45158119D01*
X54526382Y-45163647D01*
X54539381Y-45208388D01*
X54549580Y-45225634D01*
X54558138Y-45243103D01*
X54565514Y-45261732D01*
X54592898Y-45299423D01*
X54596106Y-45304307D01*
X54619827Y-45344416D01*
X54619833Y-45344424D01*
X54633990Y-45358580D01*
X54646627Y-45373375D01*
X54658406Y-45389587D01*
X54665112Y-45395135D01*
X54694309Y-45419288D01*
X54698620Y-45423210D01*
X54999819Y-45724409D01*
X55253729Y-45978319D01*
X55287214Y-46039642D01*
X55282230Y-46109334D01*
X55240358Y-46165267D01*
X55174894Y-46189684D01*
X55166048Y-46190000D01*
X55077000Y-46190000D01*
X55077000Y-48386000D01*
X55057315Y-48453039D01*
X55004511Y-48498794D01*
X54953000Y-48510000D01*
X54701000Y-48510000D01*
X54633961Y-48490315D01*
X54588206Y-48437511D01*
X54577000Y-48386000D01*
X54577000Y-46190000D01*
X53911356Y-46190000D01*
X53874510Y-46192899D01*
X53874500Y-46192901D01*
X53870085Y-46194184D01*
X53800216Y-46193979D01*
X53741549Y-46156032D01*
X53712711Y-46092391D01*
X53711500Y-46075105D01*
X53711500Y-44372305D01*
X53731185Y-44305266D01*
X53783989Y-44259511D01*
X53853147Y-44249567D01*
X53916703Y-44278592D01*
G37*
%TD.AperFunction*%
%TA.AperFunction,Conductor*%
G36*
X68199662Y-44246597D02*
G01*
X68239298Y-44304136D01*
X68245500Y-44342860D01*
X68245500Y-44585869D01*
X68245501Y-44585876D01*
X68251908Y-44645483D01*
X68302202Y-44780328D01*
X68302206Y-44780335D01*
X68388452Y-44895544D01*
X68388455Y-44895547D01*
X68503664Y-44981793D01*
X68503671Y-44981797D01*
X68635081Y-45030810D01*
X68691015Y-45072681D01*
X68715432Y-45138145D01*
X68700580Y-45206418D01*
X68679430Y-45234673D01*
X68557503Y-45356600D01*
X68421965Y-45550169D01*
X68421964Y-45550171D01*
X68322098Y-45764335D01*
X68322094Y-45764344D01*
X68260938Y-45992586D01*
X68260936Y-45992596D01*
X68240341Y-46227999D01*
X68240341Y-46228000D01*
X68260936Y-46463403D01*
X68260938Y-46463413D01*
X68322094Y-46691655D01*
X68322096Y-46691659D01*
X68322097Y-46691663D01*
X68365293Y-46784297D01*
X68378722Y-46813095D01*
X68389214Y-46882173D01*
X68360694Y-46945957D01*
X68302218Y-46984196D01*
X68266340Y-46989500D01*
X63160453Y-46989500D01*
X63093414Y-46969815D01*
X63047659Y-46917011D01*
X63037715Y-46847853D01*
X63066740Y-46784297D01*
X63072772Y-46777819D01*
X63283772Y-46566819D01*
X63345095Y-46533334D01*
X63371453Y-46530500D01*
X63394692Y-46530500D01*
X63412841Y-46529071D01*
X63430993Y-46527643D01*
X63430995Y-46527642D01*
X63430997Y-46527642D01*
X63471975Y-46515736D01*
X63586395Y-46482494D01*
X63725687Y-46400117D01*
X63840117Y-46285687D01*
X63922494Y-46146395D01*
X63967177Y-45992596D01*
X63967642Y-45990997D01*
X63967643Y-45990991D01*
X63970500Y-45954692D01*
X63970500Y-45931452D01*
X63990185Y-45864413D01*
X64006819Y-45843771D01*
X64289772Y-45560818D01*
X64351095Y-45527333D01*
X64377453Y-45524499D01*
X64461180Y-45524499D01*
X64497204Y-45521665D01*
X64651393Y-45476869D01*
X64708882Y-45442869D01*
X64776602Y-45425688D01*
X64835117Y-45442869D01*
X64892607Y-45476869D01*
X64892610Y-45476869D01*
X64892612Y-45476871D01*
X65046791Y-45521664D01*
X65046794Y-45521664D01*
X65046796Y-45521665D01*
X65058803Y-45522610D01*
X65082817Y-45524500D01*
X65082818Y-45524499D01*
X65082819Y-45524500D01*
X65348393Y-45524499D01*
X65481181Y-45524499D01*
X65484015Y-45524275D01*
X65517204Y-45521665D01*
X65671393Y-45476869D01*
X65809598Y-45395135D01*
X65923135Y-45281598D01*
X66004869Y-45143393D01*
X66045299Y-45004231D01*
X66049664Y-44989208D01*
X66049665Y-44989202D01*
X66052500Y-44953184D01*
X66052500Y-44938690D01*
X66052499Y-44865450D01*
X66072183Y-44798413D01*
X66088813Y-44777775D01*
X66555280Y-44311308D01*
X66616602Y-44277825D01*
X66672885Y-44278656D01*
X66761630Y-44300727D01*
X66809287Y-44312579D01*
X66809288Y-44312579D01*
X66809296Y-44312581D01*
X66850338Y-44315364D01*
X66852342Y-44315500D01*
X66852342Y-44315499D01*
X66852343Y-44315500D01*
X67767656Y-44315499D01*
X67767657Y-44315499D01*
X67780830Y-44314606D01*
X67810704Y-44312581D01*
X67996775Y-44266307D01*
X68066407Y-44231772D01*
X68135209Y-44219621D01*
X68199662Y-44246597D01*
G37*
%TD.AperFunction*%
%TA.AperFunction,Conductor*%
G36*
X61097039Y-44473685D02*
G01*
X61142794Y-44526489D01*
X61154000Y-44578000D01*
X61154000Y-44860000D01*
X61175681Y-44881681D01*
X61209166Y-44943004D01*
X61212000Y-44969362D01*
X61212000Y-45802046D01*
X61192315Y-45869085D01*
X61175681Y-45889727D01*
X61131727Y-45933681D01*
X61070404Y-45967166D01*
X61044046Y-45970000D01*
X60836500Y-45970000D01*
X60769461Y-45950315D01*
X60723706Y-45897511D01*
X60712500Y-45846000D01*
X60712499Y-45470819D01*
X60712256Y-45467742D01*
X60709665Y-45434796D01*
X60664869Y-45280607D01*
X60664868Y-45280606D01*
X60664868Y-45280604D01*
X60664196Y-45279050D01*
X60663647Y-45276402D01*
X60662693Y-45273116D01*
X60662951Y-45273040D01*
X60654000Y-45229810D01*
X60654000Y-45202352D01*
X60671267Y-45139233D01*
X60676494Y-45130395D01*
X60681028Y-45114791D01*
X60721642Y-44974997D01*
X60721643Y-44974991D01*
X60724500Y-44938692D01*
X60724500Y-44578000D01*
X60744185Y-44510961D01*
X60796989Y-44465206D01*
X60848500Y-44454000D01*
X61030000Y-44454000D01*
X61097039Y-44473685D01*
G37*
%TD.AperFunction*%
%TA.AperFunction,Conductor*%
G36*
X52066000Y-45792498D02*
G01*
X51958315Y-45743320D01*
X51851763Y-45728000D01*
X51816500Y-45728000D01*
X51816500Y-44188000D01*
X51851763Y-44188000D01*
X51958315Y-44172680D01*
X52066000Y-44123501D01*
X52066000Y-45792498D01*
G37*
%TD.AperFunction*%
%TA.AperFunction,Conductor*%
G36*
X58910532Y-40914185D02*
G01*
X58956287Y-40966989D01*
X58966231Y-41036147D01*
X58937206Y-41099703D01*
X58898588Y-41129588D01*
X58831453Y-41162883D01*
X58682010Y-41283009D01*
X58682009Y-41283010D01*
X58561883Y-41432453D01*
X58561881Y-41432456D01*
X58476694Y-41604221D01*
X58430419Y-41790291D01*
X58427500Y-41833342D01*
X58427500Y-42281130D01*
X58407815Y-42348169D01*
X58355011Y-42393924D01*
X58285853Y-42403868D01*
X58241073Y-42384889D01*
X58239649Y-42387297D01*
X58232933Y-42383325D01*
X58190168Y-42364818D01*
X58184922Y-42362248D01*
X58144093Y-42339803D01*
X58144092Y-42339802D01*
X58124693Y-42334822D01*
X58106281Y-42328518D01*
X58087898Y-42320562D01*
X58087896Y-42320561D01*
X58076725Y-42318792D01*
X58013591Y-42288859D01*
X58008447Y-42284000D01*
X57982370Y-42257923D01*
X57982362Y-42257917D01*
X57840896Y-42174255D01*
X57840893Y-42174254D01*
X57683073Y-42128402D01*
X57683067Y-42128401D01*
X57646196Y-42125500D01*
X57646194Y-42125500D01*
X56480000Y-42125500D01*
X56412961Y-42105815D01*
X56367206Y-42053011D01*
X56356000Y-42001500D01*
X56356000Y-41760304D01*
X56353098Y-41723432D01*
X56353097Y-41723426D01*
X56307245Y-41565606D01*
X56307244Y-41565603D01*
X56307244Y-41565602D01*
X56223581Y-41424135D01*
X56223579Y-41424133D01*
X56223576Y-41424129D01*
X56107370Y-41307923D01*
X56107362Y-41307917D01*
X55965896Y-41224255D01*
X55965893Y-41224254D01*
X55808073Y-41178402D01*
X55808067Y-41178401D01*
X55771196Y-41175500D01*
X55771194Y-41175500D01*
X54464806Y-41175500D01*
X54464804Y-41175500D01*
X54427932Y-41178401D01*
X54427926Y-41178402D01*
X54270106Y-41224254D01*
X54270103Y-41224255D01*
X54128637Y-41307917D01*
X54128629Y-41307923D01*
X54012423Y-41424129D01*
X54012417Y-41424137D01*
X53928755Y-41565603D01*
X53928754Y-41565606D01*
X53882902Y-41723426D01*
X53882901Y-41723432D01*
X53880000Y-41760304D01*
X53880000Y-42191697D01*
X53880747Y-42201191D01*
X53866381Y-42269568D01*
X53844810Y-42298598D01*
X53153146Y-42990262D01*
X53091823Y-43023747D01*
X53022131Y-43018763D01*
X52966198Y-42976891D01*
X52963890Y-42973704D01*
X52854113Y-42816926D01*
X52854108Y-42816920D01*
X52687082Y-42649894D01*
X52493578Y-42514399D01*
X52279492Y-42414570D01*
X52279483Y-42414566D01*
X52051326Y-42353432D01*
X52051316Y-42353430D01*
X51929692Y-42342789D01*
X51864623Y-42317336D01*
X51823645Y-42260745D01*
X51816500Y-42219261D01*
X51816500Y-41018500D01*
X51836185Y-40951461D01*
X51888989Y-40905706D01*
X51940500Y-40894500D01*
X58843493Y-40894500D01*
X58910532Y-40914185D01*
G37*
%TD.AperFunction*%
%TA.AperFunction,Conductor*%
G36*
X61451658Y-40914185D02*
G01*
X61497413Y-40966989D01*
X61507357Y-41036147D01*
X61478332Y-41099703D01*
X61439714Y-41129588D01*
X61371724Y-41163307D01*
X61222369Y-41283362D01*
X61222363Y-41283368D01*
X61210133Y-41298581D01*
X62230000Y-42318447D01*
X62230001Y-42318447D01*
X63249865Y-41298580D01*
X63237632Y-41283363D01*
X63088275Y-41163307D01*
X63020286Y-41129588D01*
X62968974Y-41082167D01*
X62951445Y-41014532D01*
X62973264Y-40948157D01*
X63027505Y-40904115D01*
X63075381Y-40894500D01*
X63923493Y-40894500D01*
X63990532Y-40914185D01*
X64036287Y-40966989D01*
X64046231Y-41036147D01*
X64017206Y-41099703D01*
X63978588Y-41129588D01*
X63911453Y-41162883D01*
X63762010Y-41283009D01*
X63762009Y-41283010D01*
X63641883Y-41432453D01*
X63641881Y-41432456D01*
X63556694Y-41604221D01*
X63556691Y-41604228D01*
X63533676Y-41696773D01*
X63501023Y-41754527D01*
X62317680Y-42937871D01*
X62256357Y-42971356D01*
X62186665Y-42966372D01*
X62142318Y-42937871D01*
X60958976Y-41754529D01*
X60926323Y-41696775D01*
X60903307Y-41604225D01*
X60848912Y-41494547D01*
X60818118Y-41432456D01*
X60818116Y-41432453D01*
X60697990Y-41283010D01*
X60697989Y-41283009D01*
X60548546Y-41162883D01*
X60481412Y-41129588D01*
X60430100Y-41082167D01*
X60412571Y-41014532D01*
X60434390Y-40948157D01*
X60488631Y-40904115D01*
X60536507Y-40894500D01*
X61384619Y-40894500D01*
X61451658Y-40914185D01*
G37*
%TD.AperFunction*%
%TA.AperFunction,Conductor*%
G36*
X69538539Y-40914185D02*
G01*
X69584294Y-40966989D01*
X69595500Y-41018500D01*
X69595500Y-42213500D01*
X69575815Y-42280539D01*
X69523011Y-42326294D01*
X69471500Y-42337500D01*
X68696499Y-42337500D01*
X68629460Y-42317815D01*
X68583705Y-42265011D01*
X68572499Y-42213500D01*
X68572499Y-41833343D01*
X68569581Y-41790298D01*
X68569581Y-41790297D01*
X68569580Y-41790291D01*
X68523307Y-41604225D01*
X68468912Y-41494547D01*
X68438118Y-41432456D01*
X68438116Y-41432453D01*
X68317990Y-41283010D01*
X68317989Y-41283009D01*
X68168546Y-41162883D01*
X68101412Y-41129588D01*
X68050100Y-41082167D01*
X68032571Y-41014532D01*
X68054390Y-40948157D01*
X68108631Y-40904115D01*
X68156507Y-40894500D01*
X69471500Y-40894500D01*
X69538539Y-40914185D01*
G37*
%TD.AperFunction*%
%TA.AperFunction,Conductor*%
G36*
X66530532Y-40914185D02*
G01*
X66576287Y-40966989D01*
X66586231Y-41036147D01*
X66557206Y-41099703D01*
X66518588Y-41129588D01*
X66451453Y-41162883D01*
X66302010Y-41283009D01*
X66302009Y-41283010D01*
X66181883Y-41432453D01*
X66151088Y-41494547D01*
X66103667Y-41545859D01*
X66036032Y-41563388D01*
X65969657Y-41541569D01*
X65928912Y-41494547D01*
X65898116Y-41432453D01*
X65777990Y-41283010D01*
X65777989Y-41283009D01*
X65628546Y-41162883D01*
X65561412Y-41129588D01*
X65510100Y-41082167D01*
X65492571Y-41014532D01*
X65514390Y-40948157D01*
X65568631Y-40904115D01*
X65616507Y-40894500D01*
X66463493Y-40894500D01*
X66530532Y-40914185D01*
G37*
%TD.AperFunction*%
%TD*%
M02*
