%TF.GenerationSoftware,KiCad,Pcbnew,7.0.10*%
%TF.CreationDate,2024-01-21T16:50:34+01:00*%
%TF.ProjectId,powermeter,706f7765-726d-4657-9465-722e6b696361,rev?*%
%TF.SameCoordinates,Original*%
%TF.FileFunction,Copper,L2,Bot*%
%TF.FilePolarity,Positive*%
%FSLAX46Y46*%
G04 Gerber Fmt 4.6, Leading zero omitted, Abs format (unit mm)*
G04 Created by KiCad (PCBNEW 7.0.10) date 2024-01-21 16:50:34*
%MOMM*%
%LPD*%
G01*
G04 APERTURE LIST*
G04 Aperture macros list*
%AMRoundRect*
0 Rectangle with rounded corners*
0 $1 Rounding radius*
0 $2 $3 $4 $5 $6 $7 $8 $9 X,Y pos of 4 corners*
0 Add a 4 corners polygon primitive as box body*
4,1,4,$2,$3,$4,$5,$6,$7,$8,$9,$2,$3,0*
0 Add four circle primitives for the rounded corners*
1,1,$1+$1,$2,$3*
1,1,$1+$1,$4,$5*
1,1,$1+$1,$6,$7*
1,1,$1+$1,$8,$9*
0 Add four rect primitives between the rounded corners*
20,1,$1+$1,$2,$3,$4,$5,0*
20,1,$1+$1,$4,$5,$6,$7,0*
20,1,$1+$1,$6,$7,$8,$9,0*
20,1,$1+$1,$8,$9,$2,$3,0*%
G04 Aperture macros list end*
%TA.AperFunction,ComponentPad*%
%ADD10R,1.700000X1.700000*%
%TD*%
%TA.AperFunction,ComponentPad*%
%ADD11O,1.700000X1.700000*%
%TD*%
%TA.AperFunction,SMDPad,CuDef*%
%ADD12RoundRect,1.000000X0.375000X0.000000X-0.375000X0.000000X-0.375000X0.000000X0.375000X0.000000X0*%
%TD*%
%TA.AperFunction,SMDPad,CuDef*%
%ADD13RoundRect,0.254000X0.254000X-0.762000X0.254000X0.762000X-0.254000X0.762000X-0.254000X-0.762000X0*%
%TD*%
%TA.AperFunction,ViaPad*%
%ADD14C,0.800000*%
%TD*%
%TA.AperFunction,Conductor*%
%ADD15C,0.250000*%
%TD*%
G04 APERTURE END LIST*
D10*
%TO.P,J3,1,Pin_1*%
%TO.N,Net-(J3-Pin_1)*%
X51816000Y-58928000D03*
D11*
%TO.P,J3,2,Pin_2*%
%TO.N,Net-(J3-Pin_2)*%
X51816000Y-56388000D03*
%TO.P,J3,3,Pin_3*%
%TO.N,/HX_DATA*%
X51816000Y-53848000D03*
%TO.P,J3,4,Pin_4*%
%TO.N,/HX_CLK*%
X51816000Y-51308000D03*
%TO.P,J3,5,Pin_5*%
%TO.N,+3.3V*%
X51816000Y-48768000D03*
%TO.P,J3,6,Pin_6*%
%TO.N,GND*%
X51816000Y-46228000D03*
%TO.P,J3,7,Pin_7*%
%TO.N,/5V*%
X51816000Y-43688000D03*
%TD*%
D10*
%TO.P,J2,1,Pin_1*%
%TO.N,Net-(J2-Pin_1)*%
X69596000Y-43688000D03*
D11*
%TO.P,J2,2,Pin_2*%
%TO.N,Net-(J2-Pin_2)*%
X69596000Y-46228000D03*
%TO.P,J2,3,Pin_3*%
%TO.N,Net-(J2-Pin_3)*%
X69596000Y-48768000D03*
%TO.P,J2,4,Pin_4*%
%TO.N,Net-(J2-Pin_4)*%
X69596000Y-51308000D03*
%TO.P,J2,5,Pin_5*%
%TO.N,/SDA*%
X69596000Y-53848000D03*
%TO.P,J2,6,Pin_6*%
%TO.N,/SCL*%
X69596000Y-56388000D03*
%TO.P,J2,7,Pin_7*%
%TO.N,/MPU_INT*%
X69596000Y-58928000D03*
%TD*%
D12*
%TO.P,U1,1,D0/A0*%
%TO.N,Net-(J2-Pin_1)*%
X68741000Y-43799250D03*
%TO.P,U1,2,D1/A1*%
%TO.N,Net-(J2-Pin_2)*%
X68741000Y-46339250D03*
%TO.P,U1,3,D2/A2*%
%TO.N,Net-(J2-Pin_3)*%
X68741000Y-48879250D03*
%TO.P,U1,4,D3/A3*%
%TO.N,Net-(J2-Pin_4)*%
X68741000Y-51419250D03*
%TO.P,U1,5,D4/A4/SDA*%
%TO.N,/SDA*%
X68741000Y-53959250D03*
%TO.P,U1,6,D5/A5/SCL*%
%TO.N,/SCL*%
X68741000Y-56499250D03*
%TO.P,U1,7,D6/TX*%
%TO.N,/MPU_INT*%
X68741000Y-59039250D03*
%TO.P,U1,8,D7/RX*%
%TO.N,Net-(J3-Pin_1)*%
X52576000Y-59039250D03*
%TO.P,U1,9,D8/SCK*%
%TO.N,Net-(J3-Pin_2)*%
X52576000Y-56499250D03*
%TO.P,U1,10,D9/MISO*%
%TO.N,/HX_DATA*%
X52576000Y-53959250D03*
%TO.P,U1,11,D10/MOSI*%
%TO.N,/HX_CLK*%
X52576000Y-51419250D03*
%TO.P,U1,12,3v3*%
%TO.N,+3.3V*%
X52576000Y-48879250D03*
%TO.P,U1,13,GND*%
%TO.N,GND*%
X52576000Y-46339250D03*
%TO.P,U1,14,5v*%
%TO.N,/5V*%
X52576000Y-43799250D03*
D13*
%TO.P,U1,15*%
%TO.N,N/C*%
X56876000Y-60649250D03*
%TO.P,U1,16*%
X54971000Y-60649250D03*
%TD*%
D14*
%TO.N,GND*%
X65024000Y-58584500D03*
X56896000Y-54610000D03*
X68834000Y-41910000D03*
X53086000Y-41656000D03*
X54864000Y-46990000D03*
X56642000Y-58420000D03*
X66548000Y-45212000D03*
X61722000Y-49728000D03*
X58674000Y-57150000D03*
%TO.N,+3.3V*%
X54827000Y-55880000D03*
%TO.N,/MPU_INT*%
X61722000Y-58203000D03*
%TD*%
D15*
%TO.N,GND*%
X61722000Y-49784000D02*
X56896000Y-54610000D01*
X59827000Y-50800000D02*
X59579000Y-50800000D01*
X56896000Y-55372000D02*
X56896000Y-54610000D01*
X52576000Y-46339250D02*
X54721250Y-46339250D01*
X57404000Y-58420000D02*
X56642000Y-58420000D01*
X54721250Y-46339250D02*
X54864000Y-46482000D01*
X54827000Y-46519000D02*
X54827000Y-48260000D01*
X58674000Y-57150000D02*
X57404000Y-58420000D01*
X58674000Y-57150000D02*
X60706000Y-59182000D01*
X56896000Y-50329000D02*
X56896000Y-54610000D01*
X64426500Y-59182000D02*
X65024000Y-58584500D01*
X58674000Y-57150000D02*
X56896000Y-55372000D01*
X54864000Y-46482000D02*
X54827000Y-46519000D01*
X61722000Y-49728000D02*
X61722000Y-49784000D01*
X60706000Y-59182000D02*
X64426500Y-59182000D01*
X54827000Y-48260000D02*
X56896000Y-50329000D01*
%TO.N,+3.3V*%
X54827000Y-51130250D02*
X54827000Y-55880000D01*
X52576000Y-48879250D02*
X54827000Y-51130250D01*
%TO.N,/MPU_INT*%
X67105750Y-57404000D02*
X68741000Y-59039250D01*
X62521000Y-57404000D02*
X67105750Y-57404000D01*
X61722000Y-58203000D02*
X62521000Y-57404000D01*
%TD*%
%TA.AperFunction,Conductor*%
%TO.N,GND*%
G36*
X55422039Y-41014185D02*
G01*
X55467794Y-41066989D01*
X55479000Y-41118500D01*
X55479000Y-43504250D01*
X57257000Y-43504250D01*
X57257000Y-41599250D01*
X58146000Y-41599250D01*
X58146000Y-46044250D01*
X63226000Y-46044250D01*
X63226000Y-41599250D01*
X58146000Y-41599250D01*
X57257000Y-41599250D01*
X57257000Y-41118500D01*
X57276685Y-41051461D01*
X57329489Y-41005706D01*
X57381000Y-40994500D01*
X63991000Y-40994500D01*
X64058039Y-41014185D01*
X64103794Y-41066989D01*
X64115000Y-41118500D01*
X64115000Y-43504250D01*
X65893000Y-43504250D01*
X65893000Y-41118500D01*
X65912685Y-41051461D01*
X65965489Y-41005706D01*
X66017000Y-40994500D01*
X69472000Y-40994500D01*
X69539039Y-41014185D01*
X69584794Y-41066989D01*
X69596000Y-41118500D01*
X69596000Y-42213500D01*
X69576315Y-42280539D01*
X69523511Y-42326294D01*
X69472000Y-42337500D01*
X69469292Y-42337500D01*
X69443846Y-42334861D01*
X69399283Y-42325517D01*
X69302239Y-42305169D01*
X69302235Y-42305168D01*
X69198850Y-42298750D01*
X69198842Y-42298750D01*
X68283158Y-42298750D01*
X68283149Y-42298750D01*
X68179764Y-42305168D01*
X68179761Y-42305169D01*
X67936384Y-42356200D01*
X67936374Y-42356203D01*
X67704730Y-42446592D01*
X67491097Y-42573889D01*
X67301350Y-42734598D01*
X67301348Y-42734600D01*
X67140639Y-42924347D01*
X67013342Y-43137980D01*
X66922953Y-43369624D01*
X66922950Y-43369634D01*
X66871919Y-43613011D01*
X66871918Y-43613014D01*
X66865500Y-43716399D01*
X66865500Y-43882100D01*
X66871918Y-43985485D01*
X66871919Y-43985488D01*
X66922950Y-44228865D01*
X66922953Y-44228875D01*
X67013342Y-44460519D01*
X67013344Y-44460523D01*
X67088036Y-44585873D01*
X67140639Y-44674152D01*
X67301348Y-44863899D01*
X67301350Y-44863901D01*
X67432084Y-44974628D01*
X67470519Y-45032977D01*
X67471306Y-45102842D01*
X67434197Y-45162042D01*
X67432084Y-45163872D01*
X67301350Y-45274598D01*
X67301348Y-45274600D01*
X67140639Y-45464347D01*
X67013342Y-45677980D01*
X66922953Y-45909624D01*
X66922950Y-45909634D01*
X66871919Y-46153011D01*
X66871918Y-46153014D01*
X66865500Y-46256399D01*
X66865500Y-46422100D01*
X66871918Y-46525485D01*
X66871919Y-46525489D01*
X66916909Y-46740053D01*
X66911401Y-46809705D01*
X66869110Y-46865323D01*
X66803464Y-46889247D01*
X66795548Y-46889500D01*
X66017000Y-46889500D01*
X65949961Y-46869815D01*
X65904206Y-46817011D01*
X65893000Y-46765500D01*
X65893000Y-44901250D01*
X64115000Y-44901250D01*
X64115000Y-46765500D01*
X64095315Y-46832539D01*
X64042511Y-46878294D01*
X63991000Y-46889500D01*
X62959346Y-46889500D01*
X62956591Y-46890395D01*
X62932236Y-46902803D01*
X62927543Y-46906213D01*
X62908213Y-46925543D01*
X62904803Y-46930236D01*
X62892395Y-46954591D01*
X62891500Y-46957346D01*
X62891500Y-52102655D01*
X62892397Y-52105416D01*
X62904802Y-52129761D01*
X62908219Y-52134463D01*
X62927539Y-52153783D01*
X62932242Y-52157200D01*
X62956581Y-52169601D01*
X62959345Y-52170499D01*
X62959346Y-52170500D01*
X62976083Y-52170500D01*
X66996501Y-52170500D01*
X67063540Y-52190185D01*
X67103023Y-52231026D01*
X67140632Y-52294141D01*
X67140637Y-52294149D01*
X67301348Y-52483899D01*
X67301350Y-52483901D01*
X67432084Y-52594628D01*
X67470519Y-52652977D01*
X67471306Y-52722842D01*
X67434197Y-52782042D01*
X67432084Y-52783872D01*
X67301350Y-52894598D01*
X67301348Y-52894600D01*
X67140639Y-53084347D01*
X67013342Y-53297980D01*
X66922953Y-53529624D01*
X66922950Y-53529634D01*
X66871919Y-53773011D01*
X66871918Y-53773014D01*
X66865500Y-53876399D01*
X66865500Y-54042100D01*
X66871918Y-54145485D01*
X66871919Y-54145488D01*
X66922950Y-54388865D01*
X66922953Y-54388875D01*
X67013342Y-54620519D01*
X67013344Y-54620523D01*
X67115500Y-54791963D01*
X67140639Y-54834152D01*
X67301348Y-55023899D01*
X67301350Y-55023901D01*
X67432084Y-55134628D01*
X67470519Y-55192977D01*
X67471306Y-55262842D01*
X67434197Y-55322042D01*
X67432084Y-55323872D01*
X67301350Y-55434598D01*
X67301348Y-55434600D01*
X67140639Y-55624347D01*
X67013342Y-55837980D01*
X66922953Y-56069624D01*
X66922950Y-56069634D01*
X66871919Y-56313011D01*
X66871918Y-56313014D01*
X66865500Y-56416399D01*
X66865500Y-56582100D01*
X66869518Y-56646817D01*
X66854025Y-56714948D01*
X66804157Y-56763886D01*
X66745756Y-56778500D01*
X62603743Y-56778500D01*
X62588122Y-56776775D01*
X62588095Y-56777061D01*
X62580333Y-56776326D01*
X62513113Y-56778439D01*
X62509219Y-56778500D01*
X62481650Y-56778500D01*
X62477673Y-56779002D01*
X62466042Y-56779917D01*
X62422374Y-56781289D01*
X62422368Y-56781290D01*
X62403126Y-56786880D01*
X62384087Y-56790823D01*
X62364217Y-56793334D01*
X62364203Y-56793337D01*
X62323598Y-56809413D01*
X62312554Y-56813194D01*
X62270614Y-56825379D01*
X62270610Y-56825381D01*
X62253366Y-56835579D01*
X62235905Y-56844133D01*
X62217274Y-56851510D01*
X62217262Y-56851517D01*
X62181933Y-56877185D01*
X62172173Y-56883596D01*
X62134580Y-56905829D01*
X62120414Y-56919995D01*
X62105624Y-56932627D01*
X62089414Y-56944404D01*
X62089411Y-56944407D01*
X62061573Y-56978058D01*
X62053711Y-56986697D01*
X61774227Y-57266182D01*
X61712907Y-57299666D01*
X61686548Y-57302500D01*
X61627354Y-57302500D01*
X61594897Y-57309398D01*
X61442197Y-57341855D01*
X61442192Y-57341857D01*
X61269270Y-57418848D01*
X61269265Y-57418851D01*
X61116129Y-57530111D01*
X60989466Y-57670785D01*
X60894821Y-57834715D01*
X60894818Y-57834722D01*
X60836327Y-58014740D01*
X60836326Y-58014744D01*
X60816540Y-58203000D01*
X60836326Y-58391256D01*
X60836327Y-58391259D01*
X60894818Y-58571277D01*
X60894821Y-58571284D01*
X60989467Y-58735216D01*
X61095532Y-58853013D01*
X61116129Y-58875888D01*
X61269265Y-58987148D01*
X61269270Y-58987151D01*
X61442192Y-59064142D01*
X61442197Y-59064144D01*
X61627354Y-59103500D01*
X61627355Y-59103500D01*
X61816644Y-59103500D01*
X61816646Y-59103500D01*
X62001803Y-59064144D01*
X62174730Y-58987151D01*
X62327871Y-58875888D01*
X62454533Y-58735216D01*
X62549179Y-58571284D01*
X62607674Y-58391256D01*
X62625321Y-58223344D01*
X62651904Y-58158734D01*
X62660961Y-58148628D01*
X62743773Y-58065818D01*
X62805096Y-58032333D01*
X62831453Y-58029500D01*
X66795298Y-58029500D01*
X66862337Y-58049185D01*
X66882979Y-58065819D01*
X67012977Y-58195817D01*
X67046462Y-58257140D01*
X67041478Y-58326832D01*
X67031819Y-58346971D01*
X67013343Y-58377977D01*
X67013343Y-58377978D01*
X66922953Y-58609624D01*
X66922950Y-58609634D01*
X66871919Y-58853011D01*
X66871918Y-58853014D01*
X66865500Y-58956399D01*
X66865500Y-59122100D01*
X66871918Y-59225485D01*
X66871919Y-59225489D01*
X66884723Y-59286553D01*
X66879215Y-59356206D01*
X66836924Y-59411823D01*
X66771278Y-59435747D01*
X66763362Y-59436000D01*
X57797135Y-59436000D01*
X57730096Y-59416315D01*
X57709454Y-59399681D01*
X57601153Y-59291380D01*
X57601149Y-59291377D01*
X57451044Y-59198790D01*
X57451038Y-59198787D01*
X57451036Y-59198786D01*
X57283612Y-59143308D01*
X57180271Y-59132750D01*
X56571735Y-59132750D01*
X56571720Y-59132751D01*
X56468386Y-59143308D01*
X56300966Y-59198785D01*
X56300955Y-59198790D01*
X56150850Y-59291377D01*
X56150846Y-59291380D01*
X56042546Y-59399681D01*
X55981223Y-59433166D01*
X55954865Y-59436000D01*
X55892135Y-59436000D01*
X55825096Y-59416315D01*
X55804454Y-59399681D01*
X55696153Y-59291380D01*
X55696149Y-59291377D01*
X55546044Y-59198790D01*
X55546038Y-59198787D01*
X55546036Y-59198786D01*
X55378612Y-59143308D01*
X55275271Y-59132750D01*
X54666735Y-59132750D01*
X54666720Y-59132751D01*
X54588102Y-59140783D01*
X54519409Y-59128013D01*
X54468525Y-59080133D01*
X54451500Y-59017425D01*
X54451500Y-58956418D01*
X54451500Y-58956408D01*
X54445081Y-58853013D01*
X54394050Y-58609636D01*
X54394048Y-58609631D01*
X54394046Y-58609624D01*
X54308839Y-58391259D01*
X54303656Y-58377977D01*
X54176366Y-58164356D01*
X54176363Y-58164353D01*
X54176360Y-58164347D01*
X54015651Y-57974600D01*
X54015650Y-57974599D01*
X53884915Y-57863872D01*
X53846480Y-57805524D01*
X53845693Y-57735659D01*
X53882802Y-57676458D01*
X53884915Y-57674628D01*
X54015650Y-57563900D01*
X54015651Y-57563899D01*
X54176360Y-57374152D01*
X54176361Y-57374148D01*
X54176366Y-57374144D01*
X54303656Y-57160523D01*
X54387985Y-56944407D01*
X54394046Y-56928875D01*
X54394046Y-56928872D01*
X54394050Y-56928864D01*
X54412748Y-56839684D01*
X54445771Y-56778112D01*
X54506841Y-56744167D01*
X54559890Y-56743842D01*
X54732354Y-56780500D01*
X54732355Y-56780500D01*
X54921644Y-56780500D01*
X54921646Y-56780500D01*
X55106803Y-56741144D01*
X55279730Y-56664151D01*
X55432871Y-56552888D01*
X55559533Y-56412216D01*
X55654179Y-56248284D01*
X55712674Y-56068256D01*
X55732460Y-55880000D01*
X55712674Y-55691744D01*
X55654179Y-55511716D01*
X55559533Y-55347784D01*
X55557487Y-55345512D01*
X55484350Y-55264284D01*
X55454120Y-55201292D01*
X55452500Y-55181312D01*
X55452500Y-51212992D01*
X55454224Y-51197372D01*
X55453939Y-51197345D01*
X55454673Y-51189583D01*
X55452561Y-51122362D01*
X55452500Y-51118468D01*
X55452500Y-51090906D01*
X55452500Y-51090900D01*
X55451996Y-51086918D01*
X55451081Y-51075279D01*
X55450997Y-51072592D01*
X55449710Y-51031623D01*
X55444119Y-51012380D01*
X55440173Y-50993328D01*
X55437664Y-50973458D01*
X55421579Y-50932833D01*
X55417806Y-50921812D01*
X55405618Y-50879860D01*
X55405617Y-50879859D01*
X55405617Y-50879857D01*
X55405616Y-50879856D01*
X55395423Y-50862621D01*
X55386861Y-50845144D01*
X55379487Y-50826519D01*
X55353816Y-50791187D01*
X55347405Y-50781427D01*
X55325170Y-50743830D01*
X55325168Y-50743828D01*
X55325165Y-50743824D01*
X55311006Y-50729665D01*
X55298368Y-50714869D01*
X55286594Y-50698663D01*
X55252940Y-50670822D01*
X55244299Y-50662959D01*
X54304022Y-49722682D01*
X54270537Y-49661359D01*
X54275521Y-49591667D01*
X54285179Y-49571529D01*
X54303656Y-49540523D01*
X54303658Y-49540518D01*
X54394046Y-49308875D01*
X54394046Y-49308871D01*
X54394050Y-49308864D01*
X54445081Y-49065487D01*
X54451500Y-48962092D01*
X54451500Y-48796408D01*
X54445081Y-48693013D01*
X54394050Y-48449636D01*
X54394048Y-48449631D01*
X54394046Y-48449624D01*
X54303657Y-48217980D01*
X54303656Y-48217977D01*
X54176366Y-48004356D01*
X54176363Y-48004353D01*
X54176360Y-48004347D01*
X54015653Y-47814602D01*
X53884527Y-47703543D01*
X53846093Y-47645194D01*
X53845306Y-47575329D01*
X53882416Y-47516129D01*
X53884528Y-47514298D01*
X54015298Y-47403541D01*
X54175953Y-47213858D01*
X54303206Y-47000299D01*
X54393564Y-46768732D01*
X54393567Y-46768722D01*
X54431199Y-46589250D01*
X52450000Y-46589250D01*
X52382961Y-46569565D01*
X52337206Y-46516761D01*
X52326000Y-46465250D01*
X52326000Y-46213250D01*
X52345685Y-46146211D01*
X52398489Y-46100456D01*
X52450000Y-46089250D01*
X54431198Y-46089250D01*
X54393567Y-45909777D01*
X54393564Y-45909767D01*
X54303206Y-45678200D01*
X54175953Y-45464641D01*
X54015298Y-45274957D01*
X53884527Y-45164199D01*
X53846093Y-45105850D01*
X53845306Y-45035985D01*
X53882415Y-44976785D01*
X53884463Y-44975010D01*
X53971551Y-44901250D01*
X55479000Y-44901250D01*
X55479000Y-47568250D01*
X57257000Y-47568250D01*
X57257000Y-44901250D01*
X55479000Y-44901250D01*
X53971551Y-44901250D01*
X54015650Y-44863900D01*
X54132027Y-44726495D01*
X54176360Y-44674152D01*
X54176361Y-44674148D01*
X54176366Y-44674144D01*
X54303656Y-44460523D01*
X54394050Y-44228864D01*
X54445081Y-43985487D01*
X54451500Y-43882092D01*
X54451500Y-43716408D01*
X54445081Y-43613013D01*
X54394050Y-43369636D01*
X54394048Y-43369631D01*
X54394046Y-43369624D01*
X54303657Y-43137980D01*
X54303656Y-43137977D01*
X54176366Y-42924356D01*
X54176363Y-42924353D01*
X54176360Y-42924347D01*
X54015651Y-42734600D01*
X54015649Y-42734598D01*
X53825902Y-42573889D01*
X53825894Y-42573884D01*
X53612273Y-42446594D01*
X53612271Y-42446593D01*
X53612269Y-42446592D01*
X53380625Y-42356203D01*
X53380615Y-42356200D01*
X53137238Y-42305169D01*
X53137235Y-42305168D01*
X53033850Y-42298750D01*
X53033842Y-42298750D01*
X52118158Y-42298750D01*
X52118149Y-42298750D01*
X52014764Y-42305168D01*
X52014757Y-42305169D01*
X51965446Y-42315509D01*
X51895794Y-42310001D01*
X51840177Y-42267710D01*
X51816253Y-42202063D01*
X51816000Y-42194148D01*
X51816000Y-41118500D01*
X51835685Y-41051461D01*
X51888489Y-41005706D01*
X51940000Y-40994500D01*
X55355000Y-40994500D01*
X55422039Y-41014185D01*
G37*
%TD.AperFunction*%
%TD*%
M02*
