M48
; DRILL file {KiCad 7.0.10} date dim. 21 janv. 2024 16:50:34
; FORMAT={-:-/ absolute / inch / decimal}
; #@! TF.CreationDate,2024-01-21T16:50:34+01:00
; #@! TF.GenerationSoftware,Kicad,Pcbnew,7.0.10
; #@! TF.FileFunction,Plated,1,2,PTH
FMAT,2
INCH
; #@! TA.AperFunction,Plated,PTH,ViaDrill
T1C0.0157
; #@! TA.AperFunction,Plated,PTH,ComponentDrill
T2C0.0394
%
G90
G05
T1
X2.09Y-1.64
X2.1585Y-2.2
X2.16Y-1.85
X2.23Y-2.3
X2.24Y-2.15
X2.31Y-2.25
X2.43Y-1.9578
X2.43Y-2.2915
X2.56Y-2.3065
X2.62Y-1.78
X2.71Y-1.65
T2
X2.04Y-1.72
X2.04Y-1.82
X2.04Y-1.92
X2.04Y-2.02
X2.04Y-2.12
X2.04Y-2.22
X2.04Y-2.32
X2.74Y-1.72
X2.74Y-1.82
X2.74Y-1.92
X2.74Y-2.02
X2.74Y-2.12
X2.74Y-2.22
X2.74Y-2.32
M30
