%TF.GenerationSoftware,KiCad,Pcbnew,7.0.10*%
%TF.CreationDate,2024-01-21T16:59:30+01:00*%
%TF.ProjectId,powermeter,706f7765-726d-4657-9465-722e6b696361,rev?*%
%TF.SameCoordinates,Original*%
%TF.FileFunction,Copper,L2,Bot*%
%TF.FilePolarity,Positive*%
%FSLAX46Y46*%
G04 Gerber Fmt 4.6, Leading zero omitted, Abs format (unit mm)*
G04 Created by KiCad (PCBNEW 7.0.10) date 2024-01-21 16:59:30*
%MOMM*%
%LPD*%
G01*
G04 APERTURE LIST*
G04 Aperture macros list*
%AMRoundRect*
0 Rectangle with rounded corners*
0 $1 Rounding radius*
0 $2 $3 $4 $5 $6 $7 $8 $9 X,Y pos of 4 corners*
0 Add a 4 corners polygon primitive as box body*
4,1,4,$2,$3,$4,$5,$6,$7,$8,$9,$2,$3,0*
0 Add four circle primitives for the rounded corners*
1,1,$1+$1,$2,$3*
1,1,$1+$1,$4,$5*
1,1,$1+$1,$6,$7*
1,1,$1+$1,$8,$9*
0 Add four rect primitives between the rounded corners*
20,1,$1+$1,$2,$3,$4,$5,0*
20,1,$1+$1,$4,$5,$6,$7,0*
20,1,$1+$1,$6,$7,$8,$9,0*
20,1,$1+$1,$8,$9,$2,$3,0*%
G04 Aperture macros list end*
%TA.AperFunction,ComponentPad*%
%ADD10R,1.700000X1.700000*%
%TD*%
%TA.AperFunction,ComponentPad*%
%ADD11O,1.700000X1.700000*%
%TD*%
%TA.AperFunction,SMDPad,CuDef*%
%ADD12RoundRect,1.000000X0.375000X0.000000X-0.375000X0.000000X-0.375000X0.000000X0.375000X0.000000X0*%
%TD*%
%TA.AperFunction,SMDPad,CuDef*%
%ADD13RoundRect,0.254000X0.254000X-0.762000X0.254000X0.762000X-0.254000X0.762000X-0.254000X-0.762000X0*%
%TD*%
%TA.AperFunction,ViaPad*%
%ADD14C,0.800000*%
%TD*%
%TA.AperFunction,Conductor*%
%ADD15C,0.250000*%
%TD*%
G04 APERTURE END LIST*
D10*
%TO.P,J3,1,Pin_1*%
%TO.N,Net-(J3-Pin_1)*%
X51816000Y-59029600D03*
D11*
%TO.P,J3,2,Pin_2*%
%TO.N,Net-(J3-Pin_2)*%
X51816000Y-56489600D03*
%TO.P,J3,3,Pin_3*%
%TO.N,/HX_DATA*%
X51816000Y-53949600D03*
%TO.P,J3,4,Pin_4*%
%TO.N,/HX_CLK*%
X51816000Y-51409600D03*
%TO.P,J3,5,Pin_5*%
%TO.N,+3.3V*%
X51816000Y-48869600D03*
%TO.P,J3,6,Pin_6*%
%TO.N,GND*%
X51816000Y-46329600D03*
%TO.P,J3,7,Pin_7*%
%TO.N,/5V*%
X51816000Y-43789600D03*
%TD*%
D10*
%TO.P,J2,1,Pin_1*%
%TO.N,Net-(J2-Pin_1)*%
X69596000Y-43789600D03*
D11*
%TO.P,J2,2,Pin_2*%
%TO.N,Net-(J2-Pin_2)*%
X69596000Y-46329600D03*
%TO.P,J2,5,Pin_5*%
%TO.N,/SDA*%
X69596000Y-53949600D03*
%TO.P,J2,6,Pin_6*%
%TO.N,/SCL*%
X69596000Y-56489600D03*
%TO.P,J2,7,Pin_7*%
%TO.N,/MPU_INT*%
X69596000Y-59029600D03*
%TD*%
D12*
%TO.P,U1,1,D0/A0*%
%TO.N,Net-(J2-Pin_1)*%
X68741000Y-43799250D03*
%TO.P,U1,2,D1/A1*%
%TO.N,Net-(J2-Pin_2)*%
X68741000Y-46339250D03*
%TO.P,U1,5,D4/A4/SDA*%
%TO.N,/SDA*%
X68741000Y-53959250D03*
%TO.P,U1,6,D5/A5/SCL*%
%TO.N,/SCL*%
X68741000Y-56499250D03*
%TO.P,U1,7,D6/TX*%
%TO.N,/MPU_INT*%
X68741000Y-59039250D03*
%TO.P,U1,8,D7/RX*%
%TO.N,Net-(J3-Pin_1)*%
X52576000Y-59039250D03*
%TO.P,U1,9,D8/SCK*%
%TO.N,Net-(J3-Pin_2)*%
X52576000Y-56499250D03*
%TO.P,U1,10,D9/MISO*%
%TO.N,/HX_DATA*%
X52576000Y-53959250D03*
%TO.P,U1,11,D10/MOSI*%
%TO.N,/HX_CLK*%
X52576000Y-51419250D03*
%TO.P,U1,12,3v3*%
%TO.N,+3.3V*%
X52576000Y-48879250D03*
%TO.P,U1,13,GND*%
%TO.N,GND*%
X52576000Y-46339250D03*
%TO.P,U1,14,5v*%
%TO.N,/5V*%
X52576000Y-43799250D03*
D13*
%TO.P,U1,15*%
%TO.N,N/C*%
X56876000Y-60649250D03*
%TO.P,U1,16*%
X54971000Y-60649250D03*
%TD*%
D14*
%TO.N,GND*%
X56896000Y-54864000D03*
X54737000Y-58801000D03*
X60325000Y-57658000D03*
X57658000Y-41910000D03*
X68834000Y-41910000D03*
X61468000Y-54102000D03*
X53086000Y-41656000D03*
X54864000Y-47244000D03*
X63373000Y-46863000D03*
X66548000Y-45212000D03*
X61976000Y-51308000D03*
X65913000Y-58674000D03*
X56896000Y-57658000D03*
%TO.N,+3.3V*%
X54827000Y-56134000D03*
%TO.N,/MPU_INT*%
X63159017Y-53888017D03*
%TD*%
D15*
%TO.N,GND*%
X56896000Y-57658000D02*
X56896000Y-54610000D01*
X60452000Y-51308000D02*
X61976000Y-51308000D01*
X56896000Y-49276000D02*
X56896000Y-50583000D01*
X56896000Y-54864000D02*
X60452000Y-51308000D01*
X56896000Y-50583000D02*
X56896000Y-54864000D01*
X54864000Y-47244000D02*
X53959250Y-46339250D01*
X53959250Y-46339250D02*
X52576000Y-46339250D01*
X54864000Y-47244000D02*
X56896000Y-49276000D01*
%TO.N,+3.3V*%
X54827000Y-56134000D02*
X54827000Y-51130250D01*
X54827000Y-51130250D02*
X52576000Y-48879250D01*
%TO.N,/MPU_INT*%
X66929000Y-54991000D02*
X66929000Y-57227250D01*
X65826017Y-53888017D02*
X66929000Y-54991000D01*
X63159017Y-53888017D02*
X65826017Y-53888017D01*
X66929000Y-57227250D02*
X68741000Y-59039250D01*
%TD*%
%TA.AperFunction,Conductor*%
%TO.N,GND*%
G36*
X55422039Y-41014185D02*
G01*
X55467794Y-41066989D01*
X55479000Y-41118500D01*
X55479000Y-43504250D01*
X57257000Y-43504250D01*
X57257000Y-41599250D01*
X58146000Y-41599250D01*
X58146000Y-46044250D01*
X63226000Y-46044250D01*
X63226000Y-41599250D01*
X58146000Y-41599250D01*
X57257000Y-41599250D01*
X57257000Y-41118500D01*
X57276685Y-41051461D01*
X57329489Y-41005706D01*
X57381000Y-40994500D01*
X63991000Y-40994500D01*
X64058039Y-41014185D01*
X64103794Y-41066989D01*
X64115000Y-41118500D01*
X64115000Y-43504250D01*
X65893000Y-43504250D01*
X65893000Y-41118500D01*
X65912685Y-41051461D01*
X65965489Y-41005706D01*
X66017000Y-40994500D01*
X69371500Y-40994500D01*
X69438539Y-41014185D01*
X69484294Y-41066989D01*
X69495500Y-41118500D01*
X69495500Y-42192995D01*
X69475815Y-42260034D01*
X69423011Y-42305789D01*
X69353853Y-42315733D01*
X69346054Y-42314356D01*
X69302242Y-42305169D01*
X69302235Y-42305168D01*
X69198850Y-42298750D01*
X69198842Y-42298750D01*
X68283158Y-42298750D01*
X68283149Y-42298750D01*
X68179764Y-42305168D01*
X68179761Y-42305169D01*
X67936384Y-42356200D01*
X67936374Y-42356203D01*
X67704730Y-42446592D01*
X67491097Y-42573889D01*
X67301350Y-42734598D01*
X67301348Y-42734600D01*
X67140639Y-42924347D01*
X67013342Y-43137980D01*
X66922953Y-43369624D01*
X66922950Y-43369634D01*
X66871919Y-43613011D01*
X66871918Y-43613014D01*
X66865500Y-43716399D01*
X66865500Y-43882100D01*
X66871918Y-43985485D01*
X66871919Y-43985488D01*
X66922950Y-44228865D01*
X66922953Y-44228875D01*
X67013342Y-44460519D01*
X67140639Y-44674152D01*
X67301348Y-44863899D01*
X67301350Y-44863901D01*
X67432084Y-44974628D01*
X67470519Y-45032977D01*
X67471306Y-45102842D01*
X67434197Y-45162042D01*
X67432084Y-45163872D01*
X67301350Y-45274598D01*
X67301348Y-45274600D01*
X67140639Y-45464347D01*
X67013342Y-45677980D01*
X66922953Y-45909624D01*
X66922950Y-45909634D01*
X66871919Y-46153011D01*
X66871918Y-46153014D01*
X66865500Y-46256399D01*
X66865500Y-46422100D01*
X66871918Y-46525485D01*
X66871919Y-46525488D01*
X66922950Y-46768865D01*
X66922953Y-46768875D01*
X67013342Y-47000519D01*
X67013344Y-47000523D01*
X67140634Y-47214144D01*
X67140638Y-47214148D01*
X67140640Y-47214152D01*
X67230593Y-47320359D01*
X67258900Y-47384238D01*
X67248178Y-47453280D01*
X67201830Y-47505564D01*
X67135971Y-47524500D01*
X66017000Y-47524500D01*
X65949961Y-47504815D01*
X65904206Y-47452011D01*
X65893000Y-47400500D01*
X65893000Y-44901250D01*
X64115000Y-44901250D01*
X64115000Y-47400500D01*
X64095315Y-47467539D01*
X64042511Y-47513294D01*
X63991000Y-47524500D01*
X62959346Y-47524500D01*
X62956591Y-47525395D01*
X62932236Y-47537803D01*
X62927543Y-47541213D01*
X62908213Y-47560543D01*
X62904803Y-47565236D01*
X62892395Y-47589591D01*
X62891500Y-47592346D01*
X62891500Y-52610655D01*
X62892397Y-52613416D01*
X62904802Y-52637761D01*
X62908219Y-52642463D01*
X62927539Y-52661783D01*
X62932242Y-52665200D01*
X62956581Y-52677601D01*
X62959345Y-52678499D01*
X62959346Y-52678500D01*
X62976083Y-52678500D01*
X67218230Y-52678500D01*
X67285269Y-52698185D01*
X67331024Y-52750989D01*
X67340968Y-52820147D01*
X67311943Y-52883703D01*
X67304784Y-52890781D01*
X67304976Y-52890973D01*
X67301348Y-52894600D01*
X67140639Y-53084347D01*
X67013342Y-53297980D01*
X66922953Y-53529624D01*
X66922950Y-53529634D01*
X66871045Y-53777178D01*
X66838021Y-53838751D01*
X66776951Y-53872696D01*
X66707224Y-53868235D01*
X66662003Y-53839412D01*
X66326820Y-53504229D01*
X66316997Y-53491967D01*
X66316776Y-53492151D01*
X66311803Y-53486139D01*
X66262793Y-53440116D01*
X66259994Y-53437403D01*
X66240494Y-53417902D01*
X66240488Y-53417897D01*
X66237303Y-53415426D01*
X66228451Y-53407865D01*
X66196599Y-53377955D01*
X66196597Y-53377953D01*
X66196594Y-53377952D01*
X66179046Y-53368305D01*
X66162780Y-53357621D01*
X66146949Y-53345341D01*
X66106866Y-53327995D01*
X66096380Y-53322858D01*
X66058111Y-53301820D01*
X66058109Y-53301819D01*
X66038710Y-53296839D01*
X66020298Y-53290535D01*
X66001915Y-53282579D01*
X66001909Y-53282577D01*
X65958777Y-53275746D01*
X65947339Y-53273378D01*
X65905037Y-53262517D01*
X65905036Y-53262517D01*
X65885001Y-53262517D01*
X65865603Y-53260990D01*
X65858179Y-53259814D01*
X65845822Y-53257857D01*
X65845821Y-53257857D01*
X65802342Y-53261967D01*
X65790673Y-53262517D01*
X63862765Y-53262517D01*
X63795726Y-53242832D01*
X63770617Y-53221491D01*
X63764890Y-53215131D01*
X63764886Y-53215127D01*
X63611751Y-53103868D01*
X63611746Y-53103865D01*
X63438824Y-53026874D01*
X63438819Y-53026872D01*
X63293018Y-52995882D01*
X63253663Y-52987517D01*
X63064371Y-52987517D01*
X63031914Y-52994415D01*
X62879214Y-53026872D01*
X62879209Y-53026874D01*
X62706287Y-53103865D01*
X62706282Y-53103868D01*
X62553146Y-53215128D01*
X62426483Y-53355802D01*
X62331838Y-53519732D01*
X62331835Y-53519739D01*
X62273344Y-53699757D01*
X62273343Y-53699761D01*
X62253557Y-53888017D01*
X62273343Y-54076273D01*
X62273344Y-54076276D01*
X62331835Y-54256294D01*
X62331838Y-54256301D01*
X62426484Y-54420233D01*
X62528202Y-54533202D01*
X62553146Y-54560905D01*
X62706282Y-54672165D01*
X62706287Y-54672168D01*
X62879209Y-54749159D01*
X62879214Y-54749161D01*
X63064371Y-54788517D01*
X63064372Y-54788517D01*
X63253661Y-54788517D01*
X63253663Y-54788517D01*
X63438820Y-54749161D01*
X63611747Y-54672168D01*
X63764888Y-54560905D01*
X63767805Y-54557664D01*
X63770617Y-54554543D01*
X63830104Y-54517896D01*
X63862765Y-54513517D01*
X65515565Y-54513517D01*
X65582604Y-54533202D01*
X65603246Y-54549836D01*
X66267181Y-55213771D01*
X66300666Y-55275094D01*
X66303500Y-55301452D01*
X66303500Y-57144505D01*
X66301775Y-57160122D01*
X66302061Y-57160149D01*
X66301326Y-57167915D01*
X66303439Y-57235122D01*
X66303500Y-57239017D01*
X66303500Y-57266607D01*
X66304003Y-57270585D01*
X66304918Y-57282217D01*
X66306290Y-57325874D01*
X66306291Y-57325877D01*
X66311880Y-57345117D01*
X66315824Y-57364161D01*
X66317086Y-57374144D01*
X66318336Y-57384042D01*
X66334414Y-57424653D01*
X66338197Y-57435702D01*
X66350381Y-57477638D01*
X66360580Y-57494884D01*
X66369138Y-57512353D01*
X66376514Y-57530982D01*
X66402181Y-57566310D01*
X66408593Y-57576071D01*
X66430828Y-57613667D01*
X66430833Y-57613674D01*
X66444990Y-57627830D01*
X66457627Y-57642625D01*
X66469406Y-57658837D01*
X66501647Y-57685509D01*
X66503057Y-57686675D01*
X66511698Y-57694538D01*
X67012977Y-58195817D01*
X67046462Y-58257140D01*
X67041478Y-58326832D01*
X67031819Y-58346971D01*
X67013343Y-58377977D01*
X67013343Y-58377978D01*
X66922953Y-58609624D01*
X66922950Y-58609634D01*
X66871919Y-58853011D01*
X66871918Y-58853014D01*
X66865500Y-58956399D01*
X66865500Y-59122100D01*
X66871918Y-59225485D01*
X66871919Y-59225489D01*
X66884723Y-59286553D01*
X66879215Y-59356206D01*
X66836924Y-59411823D01*
X66771278Y-59435747D01*
X66763362Y-59436000D01*
X57797135Y-59436000D01*
X57730096Y-59416315D01*
X57709454Y-59399681D01*
X57601153Y-59291380D01*
X57601149Y-59291377D01*
X57451044Y-59198790D01*
X57451038Y-59198787D01*
X57451036Y-59198786D01*
X57283612Y-59143308D01*
X57180271Y-59132750D01*
X56571735Y-59132750D01*
X56571720Y-59132751D01*
X56468386Y-59143308D01*
X56300966Y-59198785D01*
X56300955Y-59198790D01*
X56150850Y-59291377D01*
X56150846Y-59291380D01*
X56042546Y-59399681D01*
X55981223Y-59433166D01*
X55954865Y-59436000D01*
X55892135Y-59436000D01*
X55825096Y-59416315D01*
X55804454Y-59399681D01*
X55696153Y-59291380D01*
X55696149Y-59291377D01*
X55546044Y-59198790D01*
X55546038Y-59198787D01*
X55546036Y-59198786D01*
X55378612Y-59143308D01*
X55275271Y-59132750D01*
X54666735Y-59132750D01*
X54666720Y-59132751D01*
X54588102Y-59140783D01*
X54519409Y-59128013D01*
X54468525Y-59080133D01*
X54451500Y-59017425D01*
X54451500Y-58956418D01*
X54451500Y-58956408D01*
X54445081Y-58853013D01*
X54394050Y-58609636D01*
X54394048Y-58609631D01*
X54394046Y-58609624D01*
X54303657Y-58377980D01*
X54303656Y-58377978D01*
X54303656Y-58377977D01*
X54176366Y-58164356D01*
X54176363Y-58164353D01*
X54176360Y-58164347D01*
X54015651Y-57974600D01*
X54015650Y-57974599D01*
X53884915Y-57863872D01*
X53846480Y-57805524D01*
X53845693Y-57735659D01*
X53882802Y-57676458D01*
X53884915Y-57674628D01*
X54015650Y-57563900D01*
X54015651Y-57563899D01*
X54176360Y-57374152D01*
X54176361Y-57374148D01*
X54176366Y-57374144D01*
X54303656Y-57160523D01*
X54347446Y-57048300D01*
X54390153Y-56993002D01*
X54455977Y-56969572D01*
X54513398Y-56980095D01*
X54547197Y-56995144D01*
X54732354Y-57034500D01*
X54732355Y-57034500D01*
X54921644Y-57034500D01*
X54921646Y-57034500D01*
X55106803Y-56995144D01*
X55279730Y-56918151D01*
X55432871Y-56806888D01*
X55559533Y-56666216D01*
X55654179Y-56502284D01*
X55712674Y-56322256D01*
X55732460Y-56134000D01*
X55712674Y-55945744D01*
X55654179Y-55765716D01*
X55559533Y-55601784D01*
X55484350Y-55518284D01*
X55454120Y-55455292D01*
X55452500Y-55435312D01*
X55452500Y-51212992D01*
X55454224Y-51197372D01*
X55453939Y-51197345D01*
X55454673Y-51189583D01*
X55452561Y-51122362D01*
X55452500Y-51118468D01*
X55452500Y-51090906D01*
X55452500Y-51090900D01*
X55451996Y-51086918D01*
X55451081Y-51075279D01*
X55449710Y-51031623D01*
X55444119Y-51012380D01*
X55440173Y-50993328D01*
X55437664Y-50973458D01*
X55421579Y-50932833D01*
X55417806Y-50921812D01*
X55405618Y-50879860D01*
X55405617Y-50879859D01*
X55405617Y-50879857D01*
X55405616Y-50879856D01*
X55395423Y-50862621D01*
X55386861Y-50845144D01*
X55379487Y-50826519D01*
X55353816Y-50791187D01*
X55347405Y-50781427D01*
X55325170Y-50743830D01*
X55325168Y-50743828D01*
X55325165Y-50743824D01*
X55311006Y-50729665D01*
X55298368Y-50714869D01*
X55286594Y-50698663D01*
X55252940Y-50670822D01*
X55244299Y-50662959D01*
X54304022Y-49722682D01*
X54270537Y-49661359D01*
X54275521Y-49591667D01*
X54285179Y-49571529D01*
X54303656Y-49540523D01*
X54303658Y-49540518D01*
X54394046Y-49308875D01*
X54394046Y-49308871D01*
X54394050Y-49308864D01*
X54445081Y-49065487D01*
X54451500Y-48962092D01*
X54451500Y-48796408D01*
X54445081Y-48693013D01*
X54394050Y-48449636D01*
X54394048Y-48449631D01*
X54394046Y-48449624D01*
X54303657Y-48217980D01*
X54303656Y-48217977D01*
X54176366Y-48004356D01*
X54176363Y-48004353D01*
X54176360Y-48004347D01*
X54015653Y-47814602D01*
X53884527Y-47703543D01*
X53846093Y-47645194D01*
X53845306Y-47575329D01*
X53882416Y-47516129D01*
X53884528Y-47514298D01*
X54015298Y-47403541D01*
X54175953Y-47213858D01*
X54303206Y-47000299D01*
X54393564Y-46768732D01*
X54393567Y-46768722D01*
X54431199Y-46589250D01*
X52450000Y-46589250D01*
X52382961Y-46569565D01*
X52337206Y-46516761D01*
X52326000Y-46465250D01*
X52326000Y-46213250D01*
X52345685Y-46146211D01*
X52398489Y-46100456D01*
X52450000Y-46089250D01*
X54431198Y-46089250D01*
X54393567Y-45909777D01*
X54393564Y-45909767D01*
X54303206Y-45678200D01*
X54175953Y-45464641D01*
X54015298Y-45274957D01*
X53884527Y-45164199D01*
X53846093Y-45105850D01*
X53845306Y-45035985D01*
X53882415Y-44976785D01*
X53884463Y-44975010D01*
X53971551Y-44901250D01*
X55479000Y-44901250D01*
X55479000Y-47568250D01*
X57257000Y-47568250D01*
X57257000Y-44901250D01*
X55479000Y-44901250D01*
X53971551Y-44901250D01*
X54015650Y-44863900D01*
X54069222Y-44800648D01*
X54176360Y-44674152D01*
X54176361Y-44674148D01*
X54176366Y-44674144D01*
X54303656Y-44460523D01*
X54363080Y-44308230D01*
X54394046Y-44228875D01*
X54394046Y-44228871D01*
X54394050Y-44228864D01*
X54445081Y-43985487D01*
X54451500Y-43882092D01*
X54451500Y-43716408D01*
X54445081Y-43613013D01*
X54394050Y-43369636D01*
X54394048Y-43369631D01*
X54394046Y-43369624D01*
X54303657Y-43137980D01*
X54303656Y-43137977D01*
X54176366Y-42924356D01*
X54176363Y-42924353D01*
X54176360Y-42924347D01*
X54015651Y-42734600D01*
X54015649Y-42734598D01*
X53825902Y-42573889D01*
X53825894Y-42573884D01*
X53612273Y-42446594D01*
X53612271Y-42446593D01*
X53612269Y-42446592D01*
X53380625Y-42356203D01*
X53380615Y-42356200D01*
X53137238Y-42305169D01*
X53137235Y-42305168D01*
X53033850Y-42298750D01*
X53033842Y-42298750D01*
X52118158Y-42298750D01*
X52118149Y-42298750D01*
X52048183Y-42303094D01*
X51980053Y-42287601D01*
X51931114Y-42237733D01*
X51916500Y-42179332D01*
X51916500Y-41118500D01*
X51936185Y-41051461D01*
X51988989Y-41005706D01*
X52040500Y-40994500D01*
X55355000Y-40994500D01*
X55422039Y-41014185D01*
G37*
%TD.AperFunction*%
%TD*%
M02*
