%TF.GenerationSoftware,KiCad,Pcbnew,7.0.9*%
%TF.CreationDate,2023-12-20T22:05:47+01:00*%
%TF.ProjectId,powermeter,706f7765-726d-4657-9465-722e6b696361,rev?*%
%TF.SameCoordinates,Original*%
%TF.FileFunction,Copper,L2,Bot*%
%TF.FilePolarity,Positive*%
%FSLAX46Y46*%
G04 Gerber Fmt 4.6, Leading zero omitted, Abs format (unit mm)*
G04 Created by KiCad (PCBNEW 7.0.9) date 2023-12-20 22:05:47*
%MOMM*%
%LPD*%
G01*
G04 APERTURE LIST*
G04 Aperture macros list*
%AMRoundRect*
0 Rectangle with rounded corners*
0 $1 Rounding radius*
0 $2 $3 $4 $5 $6 $7 $8 $9 X,Y pos of 4 corners*
0 Add a 4 corners polygon primitive as box body*
4,1,4,$2,$3,$4,$5,$6,$7,$8,$9,$2,$3,0*
0 Add four circle primitives for the rounded corners*
1,1,$1+$1,$2,$3*
1,1,$1+$1,$4,$5*
1,1,$1+$1,$6,$7*
1,1,$1+$1,$8,$9*
0 Add four rect primitives between the rounded corners*
20,1,$1+$1,$2,$3,$4,$5,0*
20,1,$1+$1,$4,$5,$6,$7,0*
20,1,$1+$1,$6,$7,$8,$9,0*
20,1,$1+$1,$8,$9,$2,$3,0*%
G04 Aperture macros list end*
%TA.AperFunction,ComponentPad*%
%ADD10R,1.700000X1.700000*%
%TD*%
%TA.AperFunction,ComponentPad*%
%ADD11O,1.700000X1.700000*%
%TD*%
%TA.AperFunction,SMDPad,CuDef*%
%ADD12RoundRect,1.000000X0.375000X0.000000X-0.375000X0.000000X-0.375000X0.000000X0.375000X0.000000X0*%
%TD*%
%TA.AperFunction,SMDPad,CuDef*%
%ADD13RoundRect,0.254000X0.254000X-0.762000X0.254000X0.762000X-0.254000X0.762000X-0.254000X-0.762000X0*%
%TD*%
%TA.AperFunction,ViaPad*%
%ADD14C,0.800000*%
%TD*%
%TA.AperFunction,Conductor*%
%ADD15C,0.250000*%
%TD*%
G04 APERTURE END LIST*
D10*
%TO.P,J3,1,Pin_1*%
%TO.N,Net-(J3-Pin_1)*%
X51816000Y-58928000D03*
D11*
%TO.P,J3,2,Pin_2*%
%TO.N,Net-(J3-Pin_2)*%
X51816000Y-56388000D03*
%TO.P,J3,3,Pin_3*%
%TO.N,/HX_DATA*%
X51816000Y-53848000D03*
%TO.P,J3,4,Pin_4*%
%TO.N,/HX_CLK*%
X51816000Y-51308000D03*
%TO.P,J3,5,Pin_5*%
%TO.N,+3.3V*%
X51816000Y-48768000D03*
%TO.P,J3,6,Pin_6*%
%TO.N,GND*%
X51816000Y-46228000D03*
%TO.P,J3,7,Pin_7*%
X51816000Y-43688000D03*
%TD*%
D10*
%TO.P,J2,1,Pin_1*%
%TO.N,Net-(J2-Pin_1)*%
X69596000Y-43688000D03*
D11*
%TO.P,J2,2,Pin_2*%
%TO.N,Net-(J2-Pin_2)*%
X69596000Y-46228000D03*
%TO.P,J2,3,Pin_3*%
%TO.N,Net-(J2-Pin_3)*%
X69596000Y-48768000D03*
%TO.P,J2,4,Pin_4*%
%TO.N,Net-(J2-Pin_4)*%
X69596000Y-51308000D03*
%TO.P,J2,5,Pin_5*%
%TO.N,/SDA*%
X69596000Y-53848000D03*
%TO.P,J2,6,Pin_6*%
%TO.N,/SCL*%
X69596000Y-56388000D03*
%TO.P,J2,7,Pin_7*%
%TO.N,/MPU_INT*%
X69596000Y-58928000D03*
%TD*%
D12*
%TO.P,U1,1,D0/A0*%
%TO.N,Net-(J2-Pin_1)*%
X68741000Y-43799250D03*
%TO.P,U1,2,D1/A1*%
%TO.N,Net-(J2-Pin_2)*%
X68741000Y-46339250D03*
%TO.P,U1,3,D2/A2*%
%TO.N,Net-(J2-Pin_3)*%
X68741000Y-48879250D03*
%TO.P,U1,4,D3/A3*%
%TO.N,Net-(J2-Pin_4)*%
X68741000Y-51419250D03*
%TO.P,U1,5,D4/A4/SDA*%
%TO.N,/SDA*%
X68741000Y-53959250D03*
%TO.P,U1,6,D5/A5/SCL*%
%TO.N,/SCL*%
X68741000Y-56499250D03*
%TO.P,U1,7,D6/TX*%
%TO.N,/MPU_INT*%
X68741000Y-59039250D03*
%TO.P,U1,8,D7/RX*%
%TO.N,Net-(J3-Pin_1)*%
X52576000Y-59039250D03*
%TO.P,U1,9,D8/SCK*%
%TO.N,Net-(J3-Pin_2)*%
X52576000Y-56499250D03*
%TO.P,U1,10,D9/MISO*%
%TO.N,/HX_DATA*%
X52576000Y-53959250D03*
%TO.P,U1,11,D10/MOSI*%
%TO.N,/HX_CLK*%
X52576000Y-51419250D03*
%TO.P,U1,12,3v3*%
%TO.N,+3.3V*%
X52576000Y-48879250D03*
%TO.P,U1,13,GND*%
%TO.N,GND*%
X52576000Y-46339250D03*
%TO.P,U1,14,5v*%
X52576000Y-43799250D03*
D13*
%TO.P,U1,15*%
%TO.N,N/C*%
X56876000Y-60649250D03*
%TO.P,U1,16*%
X54971000Y-60649250D03*
%TD*%
D14*
%TO.N,GND*%
X66548000Y-45212000D03*
X65024000Y-58584500D03*
X56896000Y-54610000D03*
X57658000Y-57404000D03*
X54827000Y-48260000D03*
X61722000Y-49728000D03*
%TO.N,+3.3V*%
X54827000Y-55880000D03*
%TO.N,/MPU_INT*%
X62230000Y-57912000D03*
%TD*%
D15*
%TO.N,GND*%
X61722000Y-49728000D02*
X61722000Y-49784000D01*
X61722000Y-49784000D02*
X56896000Y-54610000D01*
X59827000Y-50800000D02*
X59579000Y-50800000D01*
X64680500Y-58928000D02*
X65024000Y-58584500D01*
X52576000Y-46339250D02*
X54721250Y-46339250D01*
X56896000Y-56642000D02*
X57658000Y-57404000D01*
X54721250Y-46339250D02*
X54864000Y-46482000D01*
X54827000Y-46519000D02*
X54827000Y-48260000D01*
X56896000Y-50329000D02*
X56896000Y-54610000D01*
X59182000Y-58928000D02*
X64680500Y-58928000D01*
X56896000Y-54610000D02*
X56896000Y-56642000D01*
X54864000Y-46482000D02*
X54827000Y-46519000D01*
X57658000Y-57404000D02*
X59182000Y-58928000D01*
X54827000Y-48260000D02*
X56896000Y-50329000D01*
%TO.N,+3.3V*%
X54827000Y-51130250D02*
X54827000Y-55880000D01*
X52576000Y-48879250D02*
X54827000Y-51130250D01*
%TO.N,/MPU_INT*%
X68741000Y-59039250D02*
X67105750Y-57404000D01*
X62738000Y-57404000D02*
X62230000Y-57912000D01*
X67105750Y-57404000D02*
X62738000Y-57404000D01*
%TD*%
%TA.AperFunction,Conductor*%
%TO.N,GND*%
G36*
X55422039Y-40914185D02*
G01*
X55467794Y-40966989D01*
X55479000Y-41018500D01*
X55479000Y-43504250D01*
X57257000Y-43504250D01*
X57257000Y-41599250D01*
X58146000Y-41599250D01*
X58146000Y-46044250D01*
X63226000Y-46044250D01*
X63226000Y-41599250D01*
X58146000Y-41599250D01*
X57257000Y-41599250D01*
X57257000Y-41018500D01*
X57276685Y-40951461D01*
X57329489Y-40905706D01*
X57381000Y-40894500D01*
X63991000Y-40894500D01*
X64058039Y-40914185D01*
X64103794Y-40966989D01*
X64115000Y-41018500D01*
X64115000Y-43504250D01*
X65893000Y-43504250D01*
X65893000Y-41018500D01*
X65912685Y-40951461D01*
X65965489Y-40905706D01*
X66017000Y-40894500D01*
X69471500Y-40894500D01*
X69538539Y-40914185D01*
X69584294Y-40966989D01*
X69595500Y-41018500D01*
X69595500Y-42213500D01*
X69575815Y-42280539D01*
X69523011Y-42326294D01*
X69471500Y-42337500D01*
X69469292Y-42337500D01*
X69443846Y-42334861D01*
X69399283Y-42325517D01*
X69302239Y-42305169D01*
X69302235Y-42305168D01*
X69198845Y-42298750D01*
X69198842Y-42298750D01*
X68283158Y-42298750D01*
X68283155Y-42298750D01*
X68179764Y-42305168D01*
X68179761Y-42305169D01*
X67936384Y-42356200D01*
X67936374Y-42356203D01*
X67704730Y-42446592D01*
X67491097Y-42573889D01*
X67301350Y-42734598D01*
X67301348Y-42734600D01*
X67140639Y-42924347D01*
X67013342Y-43137980D01*
X66922953Y-43369624D01*
X66922950Y-43369634D01*
X66871919Y-43613011D01*
X66871918Y-43613014D01*
X66865500Y-43716405D01*
X66865500Y-43882095D01*
X66871918Y-43985485D01*
X66871919Y-43985488D01*
X66922950Y-44228865D01*
X66922953Y-44228875D01*
X67013342Y-44460519D01*
X67140639Y-44674152D01*
X67301348Y-44863899D01*
X67301350Y-44863901D01*
X67432084Y-44974628D01*
X67470519Y-45032977D01*
X67471306Y-45102842D01*
X67434197Y-45162042D01*
X67432084Y-45163872D01*
X67301350Y-45274598D01*
X67301348Y-45274600D01*
X67140639Y-45464347D01*
X67013342Y-45677980D01*
X66922953Y-45909624D01*
X66922950Y-45909634D01*
X66871919Y-46153011D01*
X66871918Y-46153014D01*
X66865500Y-46256405D01*
X66865500Y-46422095D01*
X66871918Y-46525485D01*
X66871919Y-46525488D01*
X66922950Y-46768865D01*
X66922952Y-46768871D01*
X66943069Y-46820424D01*
X66949101Y-46890033D01*
X66916542Y-46951853D01*
X66855729Y-46986256D01*
X66827552Y-46989500D01*
X66017000Y-46989500D01*
X65949961Y-46969815D01*
X65904206Y-46917011D01*
X65893000Y-46865500D01*
X65893000Y-44901250D01*
X64115000Y-44901250D01*
X64115000Y-46865500D01*
X64095315Y-46932539D01*
X64042511Y-46978294D01*
X63991000Y-46989500D01*
X63016760Y-46989500D01*
X63016554Y-46989459D01*
X62992000Y-46989459D01*
X62991901Y-46989500D01*
X62991617Y-46989616D01*
X62991615Y-46989618D01*
X62991459Y-46989999D01*
X62991476Y-47014616D01*
X62991471Y-47014616D01*
X62991500Y-47014759D01*
X62991500Y-52045467D01*
X62991416Y-52045889D01*
X62991459Y-52070001D01*
X62991500Y-52070099D01*
X62991616Y-52070382D01*
X62991618Y-52070384D01*
X62991808Y-52070462D01*
X62992000Y-52070541D01*
X62992002Y-52070539D01*
X63016616Y-52070524D01*
X63016616Y-52070528D01*
X63016760Y-52070500D01*
X66936915Y-52070500D01*
X67003954Y-52090185D01*
X67043435Y-52131023D01*
X67140634Y-52294144D01*
X67140638Y-52294148D01*
X67140640Y-52294152D01*
X67301348Y-52483899D01*
X67301350Y-52483901D01*
X67432084Y-52594628D01*
X67470519Y-52652977D01*
X67471306Y-52722842D01*
X67434197Y-52782042D01*
X67432084Y-52783872D01*
X67301350Y-52894598D01*
X67301348Y-52894600D01*
X67140639Y-53084347D01*
X67013342Y-53297980D01*
X66922953Y-53529624D01*
X66922950Y-53529634D01*
X66871919Y-53773011D01*
X66871918Y-53773014D01*
X66865500Y-53876405D01*
X66865500Y-54042095D01*
X66871918Y-54145485D01*
X66871919Y-54145488D01*
X66922950Y-54388865D01*
X66922953Y-54388875D01*
X67013342Y-54620519D01*
X67013344Y-54620523D01*
X67115500Y-54791963D01*
X67140639Y-54834152D01*
X67301348Y-55023899D01*
X67301350Y-55023901D01*
X67432084Y-55134628D01*
X67470519Y-55192977D01*
X67471306Y-55262842D01*
X67434197Y-55322042D01*
X67432084Y-55323872D01*
X67301350Y-55434598D01*
X67301348Y-55434600D01*
X67140639Y-55624347D01*
X67013342Y-55837980D01*
X66922953Y-56069624D01*
X66922950Y-56069634D01*
X66871919Y-56313011D01*
X66871918Y-56313014D01*
X66865500Y-56416405D01*
X66865500Y-56582095D01*
X66869518Y-56646817D01*
X66854025Y-56714948D01*
X66804157Y-56763886D01*
X66745756Y-56778500D01*
X62820737Y-56778500D01*
X62805120Y-56776776D01*
X62805093Y-56777062D01*
X62797331Y-56776327D01*
X62728203Y-56778500D01*
X62698650Y-56778500D01*
X62697929Y-56778590D01*
X62691757Y-56779369D01*
X62685945Y-56779826D01*
X62639372Y-56781290D01*
X62639369Y-56781291D01*
X62620126Y-56786881D01*
X62601083Y-56790825D01*
X62581204Y-56793336D01*
X62581203Y-56793337D01*
X62537878Y-56810490D01*
X62532352Y-56812382D01*
X62487608Y-56825383D01*
X62487604Y-56825385D01*
X62470365Y-56835580D01*
X62452898Y-56844137D01*
X62434269Y-56851512D01*
X62434267Y-56851513D01*
X62396564Y-56878906D01*
X62391682Y-56882112D01*
X62351580Y-56905828D01*
X62337408Y-56920000D01*
X62322623Y-56932628D01*
X62306412Y-56944407D01*
X62288098Y-56966544D01*
X62230197Y-57005649D01*
X62192557Y-57011500D01*
X62135354Y-57011500D01*
X62102897Y-57018398D01*
X61950197Y-57050855D01*
X61950192Y-57050857D01*
X61777270Y-57127848D01*
X61777265Y-57127851D01*
X61624129Y-57239111D01*
X61497466Y-57379785D01*
X61402821Y-57543715D01*
X61402818Y-57543722D01*
X61359690Y-57676458D01*
X61344326Y-57723744D01*
X61324540Y-57912000D01*
X61344326Y-58100256D01*
X61344327Y-58100259D01*
X61402818Y-58280277D01*
X61402821Y-58280284D01*
X61497467Y-58444216D01*
X61624129Y-58584888D01*
X61777265Y-58696148D01*
X61777270Y-58696151D01*
X61950192Y-58773142D01*
X61950197Y-58773144D01*
X62135354Y-58812500D01*
X62135355Y-58812500D01*
X62324644Y-58812500D01*
X62324646Y-58812500D01*
X62509803Y-58773144D01*
X62682730Y-58696151D01*
X62835871Y-58584888D01*
X62962533Y-58444216D01*
X63057179Y-58280284D01*
X63110824Y-58115181D01*
X63150261Y-58057507D01*
X63214620Y-58030308D01*
X63228755Y-58029500D01*
X66795298Y-58029500D01*
X66862337Y-58049185D01*
X66882979Y-58065819D01*
X67012977Y-58195817D01*
X67046462Y-58257140D01*
X67041478Y-58326832D01*
X67031819Y-58346971D01*
X67013343Y-58377977D01*
X67013343Y-58377978D01*
X66922953Y-58609624D01*
X66922950Y-58609634D01*
X66871919Y-58853011D01*
X66871918Y-58853014D01*
X66865500Y-58956405D01*
X66865500Y-59122095D01*
X66871918Y-59225485D01*
X66871919Y-59225489D01*
X66884723Y-59286553D01*
X66879215Y-59356206D01*
X66836924Y-59411823D01*
X66771278Y-59435747D01*
X66763362Y-59436000D01*
X57797135Y-59436000D01*
X57730096Y-59416315D01*
X57709454Y-59399681D01*
X57601153Y-59291380D01*
X57601149Y-59291377D01*
X57451044Y-59198790D01*
X57451038Y-59198787D01*
X57451036Y-59198786D01*
X57283612Y-59143308D01*
X57180271Y-59132750D01*
X56571735Y-59132750D01*
X56571720Y-59132751D01*
X56468386Y-59143308D01*
X56300966Y-59198785D01*
X56300955Y-59198790D01*
X56150850Y-59291377D01*
X56150846Y-59291380D01*
X56042546Y-59399681D01*
X55981223Y-59433166D01*
X55954865Y-59436000D01*
X55892135Y-59436000D01*
X55825096Y-59416315D01*
X55804454Y-59399681D01*
X55696153Y-59291380D01*
X55696149Y-59291377D01*
X55546044Y-59198790D01*
X55546038Y-59198787D01*
X55546036Y-59198786D01*
X55378612Y-59143308D01*
X55275271Y-59132750D01*
X54666735Y-59132750D01*
X54666720Y-59132751D01*
X54588102Y-59140783D01*
X54519409Y-59128013D01*
X54468525Y-59080133D01*
X54451500Y-59017425D01*
X54451500Y-58956405D01*
X54445081Y-58853014D01*
X54445081Y-58853013D01*
X54394050Y-58609636D01*
X54394048Y-58609631D01*
X54394046Y-58609624D01*
X54303657Y-58377980D01*
X54303656Y-58377978D01*
X54303656Y-58377977D01*
X54176366Y-58164356D01*
X54176363Y-58164353D01*
X54176360Y-58164347D01*
X54015651Y-57974600D01*
X54015650Y-57974599D01*
X53884915Y-57863872D01*
X53846480Y-57805524D01*
X53845693Y-57735659D01*
X53882802Y-57676458D01*
X53884915Y-57674628D01*
X54015650Y-57563900D01*
X54015651Y-57563899D01*
X54176360Y-57374152D01*
X54176361Y-57374148D01*
X54176366Y-57374144D01*
X54303656Y-57160523D01*
X54387985Y-56944407D01*
X54394046Y-56928875D01*
X54394046Y-56928872D01*
X54394050Y-56928864D01*
X54412748Y-56839684D01*
X54445771Y-56778112D01*
X54506841Y-56744167D01*
X54559890Y-56743842D01*
X54732354Y-56780500D01*
X54732355Y-56780500D01*
X54921644Y-56780500D01*
X54921646Y-56780500D01*
X55106803Y-56741144D01*
X55279730Y-56664151D01*
X55432871Y-56552888D01*
X55559533Y-56412216D01*
X55654179Y-56248284D01*
X55712674Y-56068256D01*
X55732460Y-55880000D01*
X55712674Y-55691744D01*
X55654179Y-55511716D01*
X55559533Y-55347784D01*
X55557487Y-55345512D01*
X55484350Y-55264284D01*
X55454120Y-55201292D01*
X55452500Y-55181312D01*
X55452500Y-51212992D01*
X55454224Y-51197372D01*
X55453939Y-51197345D01*
X55454673Y-51189583D01*
X55452500Y-51120422D01*
X55452500Y-51090906D01*
X55452500Y-51090900D01*
X55451631Y-51084029D01*
X55451173Y-51078202D01*
X55450997Y-51072592D01*
X55449710Y-51031623D01*
X55444119Y-51012380D01*
X55440173Y-50993328D01*
X55437664Y-50973458D01*
X55420504Y-50930117D01*
X55418624Y-50924629D01*
X55405618Y-50879860D01*
X55395422Y-50862620D01*
X55386861Y-50845144D01*
X55379487Y-50826520D01*
X55379486Y-50826518D01*
X55352079Y-50788795D01*
X55348888Y-50783936D01*
X55325172Y-50743833D01*
X55325165Y-50743824D01*
X55311006Y-50729665D01*
X55298368Y-50714869D01*
X55286594Y-50698663D01*
X55250688Y-50668959D01*
X55246376Y-50665036D01*
X54304022Y-49722682D01*
X54270537Y-49661359D01*
X54275521Y-49591667D01*
X54285179Y-49571529D01*
X54303656Y-49540523D01*
X54303658Y-49540518D01*
X54394046Y-49308875D01*
X54394046Y-49308871D01*
X54394050Y-49308864D01*
X54445081Y-49065487D01*
X54451500Y-48962092D01*
X54451500Y-48796408D01*
X54445081Y-48693013D01*
X54394050Y-48449636D01*
X54394048Y-48449631D01*
X54394046Y-48449624D01*
X54303657Y-48217980D01*
X54303656Y-48217977D01*
X54176366Y-48004356D01*
X54176363Y-48004353D01*
X54176360Y-48004347D01*
X54015653Y-47814602D01*
X53884527Y-47703543D01*
X53846093Y-47645194D01*
X53845306Y-47575329D01*
X53882416Y-47516129D01*
X53884528Y-47514298D01*
X54015298Y-47403541D01*
X54175953Y-47213858D01*
X54303206Y-47000299D01*
X54393564Y-46768732D01*
X54393567Y-46768722D01*
X54431199Y-46589250D01*
X52450000Y-46589250D01*
X52382961Y-46569565D01*
X52337206Y-46516761D01*
X52326000Y-46465250D01*
X52326000Y-44049250D01*
X52826000Y-44049250D01*
X52826000Y-46089250D01*
X54431198Y-46089250D01*
X54393567Y-45909777D01*
X54393564Y-45909767D01*
X54303206Y-45678200D01*
X54175953Y-45464641D01*
X54015296Y-45274955D01*
X54015295Y-45274954D01*
X53884141Y-45163872D01*
X53845706Y-45105524D01*
X53844919Y-45035659D01*
X53882028Y-44976458D01*
X53884141Y-44974628D01*
X53970777Y-44901250D01*
X55479000Y-44901250D01*
X55479000Y-47568250D01*
X57257000Y-47568250D01*
X57257000Y-44901250D01*
X55479000Y-44901250D01*
X53970777Y-44901250D01*
X54015295Y-44863545D01*
X54015296Y-44863544D01*
X54175953Y-44673858D01*
X54303206Y-44460299D01*
X54393564Y-44228732D01*
X54393567Y-44228722D01*
X54431199Y-44049250D01*
X52826000Y-44049250D01*
X52326000Y-44049250D01*
X52326000Y-42299250D01*
X52826000Y-42299250D01*
X52826000Y-43549250D01*
X54431198Y-43549250D01*
X54393567Y-43369777D01*
X54393564Y-43369767D01*
X54303206Y-43138200D01*
X54175953Y-42924641D01*
X54015296Y-42734955D01*
X54015294Y-42734953D01*
X53825608Y-42574296D01*
X53612049Y-42447043D01*
X53380482Y-42356685D01*
X53380472Y-42356682D01*
X53137176Y-42305668D01*
X53137173Y-42305667D01*
X53033807Y-42299250D01*
X52826000Y-42299250D01*
X52326000Y-42299250D01*
X52118193Y-42299250D01*
X52014826Y-42305667D01*
X52014819Y-42305668D01*
X51965946Y-42315916D01*
X51896293Y-42310407D01*
X51840676Y-42268116D01*
X51816753Y-42202470D01*
X51816500Y-42194555D01*
X51816500Y-41018500D01*
X51836185Y-40951461D01*
X51888989Y-40905706D01*
X51940500Y-40894500D01*
X55355000Y-40894500D01*
X55422039Y-40914185D01*
G37*
%TD.AperFunction*%
%TA.AperFunction,Conductor*%
G36*
X52066000Y-45792498D02*
G01*
X51958315Y-45743320D01*
X51851763Y-45728000D01*
X51816500Y-45728000D01*
X51816500Y-44188000D01*
X51851763Y-44188000D01*
X51958315Y-44172680D01*
X52066000Y-44123501D01*
X52066000Y-45792498D01*
G37*
%TD.AperFunction*%
%TD*%
M02*
